<svg width="24" height="24" viewBox="0 0 24 24" fill="none" xmlns="http://www.w3.org/2000/svg">
<path d="M18 19L19 12L13 13M4.99999 8L7.99999 5L13.5 8L11.14 11.5M4.23999 14.5C3.95782 15.4231 3.94887 16.4081 4.2142 17.3361C4.47953 18.2641 5.00781 19.0955 5.73526 19.73C6.46271 20.3644 7.35824 20.7746 8.31375 20.9113C9.26925 21.0479 10.2439 20.9051 11.12 20.5M13.76 17.5C14.0421 16.5769 14.0511 15.5919 13.7858 14.6639C13.5204 13.7359 12.9922 12.9045 12.2647 12.27C11.5373 11.6356 10.6417 11.2254 9.68623 11.0887C8.73072 10.9521 7.75609 11.0949 6.87999 11.5M17 4C17 4.55228 16.5523 5 16 5C15.4477 5 15 4.55228 15 4C15 3.44772 15.4477 3 16 3C16.5523 3 17 3.44772 17 4Z" stroke="black" stroke-width="2" stroke-linecap="round" stroke-linejoin="round"/>
</svg>
