<svg width="24" height="24" viewBox="0 0 24 24" fill="none" xmlns="http://www.w3.org/2000/svg">
<path d="M6.87 6.87C6.00764 7.57873 5.30313 8.46008 4.80178 9.45739C4.30043 10.4547 4.01334 11.5459 3.95895 12.6608C3.90457 13.7757 4.08411 14.8896 4.48601 15.931C4.88792 16.9724 5.50331 17.9181 6.2926 18.7074C7.08189 19.4967 8.02763 20.1121 9.06899 20.514C10.1104 20.9159 11.2243 21.0954 12.3392 21.041C13.4541 20.9867 14.5453 20.6996 15.5426 20.1982C16.5399 19.6969 17.4213 18.9924 18.13 18.13M19.9 14.25C20.0968 13.0036 19.996 11.7283 19.6058 10.5282C19.2156 9.3282 18.5471 8.23749 17.6548 7.34521C16.7625 6.45293 15.6718 5.78438 14.4718 5.39417C13.2717 5.00396 11.9964 4.90316 10.75 5.1M22 6L19 3M6.26 18.67L4 21M2 2L22 22M4 4L2 6" stroke="black" stroke-width="2" stroke-linecap="round" stroke-linejoin="round"/>
</svg>
