<svg width="24" height="24" viewBox="0 0 24 24" fill="none" xmlns="http://www.w3.org/2000/svg">
<path d="M12 7C13 6.44 14.78 5 17 5C18.2955 4.9758 19.548 5.46467 20.4846 6.36005C21.4212 7.25543 21.9659 8.48472 22 9.78C22 14 19 22 16 22C14.75 22 13.5 20.94 12 20.94C10.5 20.94 9.25 22 8 22C5 22 2 14 2 9.78C2.03147 8.48385 2.57536 7.25302 3.51253 6.35708C4.4497 5.46115 5.70375 4.97316 7 5C9.22 5 11 6.44 12 7ZM12 7C12 4 11 2.5 10 2" stroke="black" stroke-width="2" stroke-linecap="round" stroke-linejoin="round"/>
</svg>
