<svg width="24" height="24" viewBox="0 0 24 24" fill="none" xmlns="http://www.w3.org/2000/svg">
<path d="M9 9.00001C8.36 9.64001 7.479 9.95401 6.598 10.165C5.16856 10.5073 3.9145 11.3625 3.07378 12.5682C2.23306 13.7738 1.86415 15.2462 2.03707 16.7058C2.20998 18.1655 2.91268 19.5109 4.01184 20.4868C5.111 21.4627 6.53014 22.0011 8 22C9.83888 22.0023 11.6601 21.6413 13.359 20.9377C15.058 20.2341 16.6012 19.2018 17.9 17.9M10.75 5.09301C11.3941 3.92894 12.4067 3.01193 13.6288 2.48617C14.8509 1.96041 16.213 1.85572 17.5011 2.18855C18.7892 2.52139 19.9301 3.27287 20.7445 4.32485C21.5588 5.37683 22.0005 6.66964 22 8.00001C22 10.411 21.39 12.68 20.317 14.66M5.341 10.62C5.60405 11.2141 6.00789 11.7353 6.51758 12.1383C7.02727 12.5413 7.62746 12.8141 8.26625 12.933C8.90504 13.052 9.56319 13.0135 10.1838 12.821C10.8044 12.6285 11.3687 12.2876 11.828 11.828M10.62 5.34101C11.5289 5.74498 12.2555 6.47193 12.659 7.38101M2 2.00001L22 22" stroke="black" stroke-width="2" stroke-linecap="round" stroke-linejoin="round"/>
</svg>
