<svg width="24" height="24" viewBox="0 0 24 24" fill="none" xmlns="http://www.w3.org/2000/svg">
<path d="M5.341 10.62C5.60464 11.2133 6.00872 11.7335 6.51836 12.1357C7.028 12.5379 7.62787 12.81 8.26618 12.9285C8.90449 13.047 9.56205 13.0083 10.1821 12.8159C10.8021 12.6234 11.366 12.2829 11.825 11.8238C12.284 11.3647 12.6244 10.8008 12.8168 10.1807C13.0091 9.56063 13.0476 8.90306 12.929 8.26477C12.8104 7.62649 12.5382 7.02667 12.1359 6.5171C11.7336 6.00754 11.2133 5.60356 10.62 5.34003M10.165 6.59803C9.954 7.47803 9.64 8.36003 9 9.00003C8.36 9.64003 7.479 9.95403 6.598 10.165C5.16856 10.5074 3.9145 11.3625 3.07378 12.5682C2.23306 13.7739 1.86415 15.2462 2.03707 16.7059C2.20998 18.1655 2.91268 19.5109 4.01184 20.4868C5.111 21.4627 6.53014 22.0012 8 22C15.732 22 22 15.732 22 8.00003C22.0011 6.53017 21.4627 5.11103 20.4868 4.01187C19.5109 2.91271 18.1655 2.21001 16.7058 2.0371C15.2462 1.86418 13.7738 2.23309 12.5681 3.07381C11.3625 3.91453 10.5073 5.16859 10.165 6.59803Z" stroke="black" stroke-width="2" stroke-linecap="round" stroke-linejoin="round"/>
</svg>
