<svg width="24" height="24" viewBox="0 0 24 24" fill="none" xmlns="http://www.w3.org/2000/svg">
<path d="M18.5 6L20.69 10.5C20.8974 11.1463 21.0021 11.8212 21 12.5C21.0008 13.5092 20.7662 14.5047 20.3148 15.4074C19.8635 16.3101 19.2079 17.0951 18.4 17.7C15.4 20.2 11 22 7 22C6.44325 21.9992 5.8977 21.8436 5.42438 21.5504C4.95107 21.2572 4.56868 20.8381 4.32 20.34L2.4 16.5M15 8.5C15 9.88071 13.8807 11 12.5 11C11.1193 11 10 9.88071 10 8.5C10 7.11929 11.1193 6 12.5 6C13.8807 6 15 7.11929 15 8.5ZM12.5 2C11.1072 1.99917 9.75098 2.44573 8.63115 3.2739C7.51132 4.10207 6.68713 5.26804 6.28 6.6C5.18 9.73 5.5 10.5 3.1 12.68C2.62176 13.0721 2.27638 13.6024 2.11111 14.1983C1.94585 14.7942 1.96878 15.4266 2.17677 16.009C2.38477 16.5914 2.76766 17.0953 3.27304 17.4517C3.77842 17.8081 4.38159 17.9996 5 18C9 18 13.4 16.2 16.4 13.7C17.4914 12.8815 18.2976 11.7403 18.7043 10.4381C19.1111 9.13591 19.0979 7.73875 18.6664 6.44452C18.235 5.15029 17.4073 4.02461 16.3006 3.22693C15.1939 2.42924 13.8642 2 12.5 2Z" stroke="black" stroke-width="2" stroke-linecap="round" stroke-linejoin="round"/>
</svg>
