<svg width="24" height="24" viewBox="0 0 24 24" fill="none" xmlns="http://www.w3.org/2000/svg">
<path d="M13 13V18M17 11.47V8M17 11H18C18.4992 11 18.9905 11.1245 19.4294 11.3622C19.8683 11.6 20.2409 11.9436 20.5135 12.3617C20.7861 12.7799 20.95 13.2595 20.9904 13.757C21.0309 14.2546 20.9465 14.7543 20.745 15.211M2 2L22 22M5 8V20C5 20.5304 5.21071 21.0391 5.58579 21.4142C5.96086 21.7893 6.46957 22 7 22H15C15.5304 22 16.0391 21.7893 16.4142 21.4142C16.7893 21.0391 17 20.5304 17 20V17M7.536 7.535C6.766 7.649 6.154 8 5.5 8C5.00548 8.00009 4.52204 7.85352 4.11083 7.57882C3.69962 7.30413 3.37912 6.91364 3.18986 6.45677C3.0006 5.9999 2.95109 5.49716 3.0476 5.01215C3.1441 4.52713 3.38227 4.08163 3.732 3.732M8.727 3.204C9.306 2.767 9.885 2 11 2C12.56 2 13 3.5 14 3.5C15 3.5 15.72 3 16.5 3C17.163 3 17.7989 3.26339 18.2678 3.73223C18.7366 4.20107 19 4.83696 19 5.5C19 6.16304 18.7366 6.79893 18.2678 7.26777C17.7989 7.73661 17.163 8 16.5 8C15.72 8 15 7.5 14 7.5C13.7152 7.50174 13.4319 7.54211 13.158 7.62M9 14.6V18" stroke="black" stroke-width="2" stroke-linecap="round" stroke-linejoin="round"/>
</svg>
