<svg width="24" height="24" viewBox="0 0 24 24" fill="none" xmlns="http://www.w3.org/2000/svg">
<path d="M8.7 3C9.60381 2.40479 10.6518 2.06511 11.7329 2.01693C12.814 1.96875 13.888 2.21387 14.8412 2.72633C15.7944 3.23879 16.5912 3.9995 17.1473 4.9279C17.7034 5.85629 17.998 6.91781 18 8C18.0016 9.68453 18.203 11.3629 18.6 13M17 17H3C3 17 6 15 6 8C5.99349 7.41961 6.09522 6.8431 6.3 6.3M10.3 21C10.4674 21.3044 10.7134 21.5583 11.0125 21.7352C11.3115 21.912 11.6526 22.0053 12 22.0053C12.3474 22.0053 12.6885 21.912 12.9875 21.7352C13.2866 21.5583 13.5326 21.3044 13.7 21M2 2L22 22" stroke="black" stroke-width="2" stroke-linecap="round" stroke-linejoin="round"/>
</svg>
