<svg width="24" height="24" viewBox="0 0 24 24" fill="none" xmlns="http://www.w3.org/2000/svg">
<path d="M14.35 4.64999L16.3 2.69999C16.7516 2.25054 17.3628 1.99823 18 1.99823C18.6372 1.99823 19.2484 2.25054 19.7 2.69999L21.3 4.29999C21.5237 4.52295 21.7013 4.7879 21.8224 5.07962C21.9435 5.37134 22.0059 5.68411 22.0059 5.99999C22.0059 6.31586 21.9435 6.62863 21.8224 6.92035C21.7013 7.21207 21.5237 7.47702 21.3 7.69999L19.35 9.64998M22 1.99999L20.5 3.49999M20 13C20 17.9705 15.9706 22 11 22C6.02944 22 2 17.9705 2 13C2 8.02942 6.02944 3.99999 11 3.99999C15.9706 3.99999 20 8.02942 20 13Z" stroke="black" stroke-width="2" stroke-linecap="round" stroke-linejoin="round"/>
</svg>
