<svg width="24" height="24" viewBox="0 0 24 24" fill="none" xmlns="http://www.w3.org/2000/svg">
<path d="M19 3L20 4M20 2L15.5 6.5M20 8V21C20 21.2652 19.8946 21.5196 19.7071 21.7071C19.5196 21.8946 19.2652 22 19 22H6.5C5.83696 22 5.20107 21.7366 4.73223 21.2678C4.26339 20.7989 4 20.163 4 19.5M4 19.5C4 18.837 4.26339 18.2011 4.73223 17.7322C5.20107 17.2634 5.83696 17 6.5 17H20M4 19.5V4.5C4 3.83696 4.26339 3.20107 4.73223 2.73223C5.20107 2.26339 5.83696 2 6.5 2H14M16 8C16 9.10457 15.1046 10 14 10C12.8954 10 12 9.10457 12 8C12 6.89543 12.8954 6 14 6C15.1046 6 16 6.89543 16 8Z" stroke="black" stroke-width="2" stroke-linecap="round" stroke-linejoin="round"/>
</svg>
