<svg width="24" height="24" viewBox="0 0 24 24" fill="none" xmlns="http://www.w3.org/2000/svg">
<path d="M17.599 6.5C17.841 6.08059 17.9779 5.60882 17.998 5.125M6.003 5.125C6.02277 5.60874 6.15933 6.0805 6.401 6.5M3.477 10.896C3.65994 10.747 3.8557 10.6145 4.062 10.5M19.938 10.5C20.1443 10.6145 20.3401 10.747 20.523 10.896M6 18C5.31083 18.0003 4.63327 17.8226 4.033 17.484M19.967 17.484C19.3667 17.8226 18.6892 18.0003 18 18M15.7 10.4L14.8 10.8M9.2 13.2L8.3 13.6M13.6 15.7L13.2 14.8M10.8 9.2L10.4 8.3M15.7 13.5L14.8 13.1M9.2 10.9L8.3 10.5M10.5 15.7L10.9 14.8M13.1 9.2L13.5 8.3M12 5C11.9989 4.60074 11.9182 4.20572 11.7624 3.83808C11.6067 3.47044 11.3792 3.13757 11.0932 2.859C10.8071 2.58043 10.4684 2.36176 10.0968 2.21579C9.72516 2.06983 9.32814 1.99951 8.92899 2.00896C8.52985 2.01841 8.1366 2.10744 7.7723 2.27083C7.40801 2.43422 7.07999 2.66869 6.80748 2.96048C6.53497 3.25228 6.32344 3.59554 6.1853 3.97014C6.04716 4.34474 5.98518 4.74314 6.003 5.142C5.4152 5.29314 4.8695 5.57605 4.40723 5.96932C3.94496 6.36258 3.57824 6.85588 3.33484 7.41185C3.09145 7.96783 2.97776 8.5719 3.00239 9.17832C3.02702 9.78473 3.18932 10.3776 3.477 10.912C2.97118 11.3229 2.57342 11.8512 2.31834 12.4509C2.06325 13.0506 1.95856 13.7036 2.01336 14.353C2.06817 15.0024 2.28081 15.6286 2.6328 16.177C2.98479 16.7255 3.46546 17.1797 4.033 17.5C3.90945 18.4558 4.13517 19.4241 4.66863 20.2268C5.20209 21.0295 6.00742 21.6125 6.93651 21.8688C7.8656 22.125 8.85596 22.0372 9.72546 21.6215C10.595 21.2057 11.2851 20.49 11.669 19.606C11.7398 19.4292 11.7947 19.2465 11.833 19.06C11.861 18.93 12.139 18.93 12.168 19.06C12.206 19.2465 12.2605 19.4292 12.331 19.606C12.7149 20.49 13.405 21.2057 14.2745 21.6215C15.144 22.0372 16.1344 22.125 17.0635 21.8688C17.9926 21.6125 18.7979 21.0295 19.3314 20.2268C19.8648 19.4241 20.0905 18.4558 19.967 17.5C20.5345 17.1797 21.0152 16.7255 21.3672 16.177C21.7192 15.6286 21.9318 15.0024 21.9866 14.353C22.0414 13.7036 21.9367 13.0506 21.6817 12.4509C21.4266 11.8512 21.0288 11.3229 20.523 10.912C20.8107 10.3776 20.973 9.78473 20.9976 9.17832C21.0222 8.5719 20.9086 7.96783 20.6652 7.41185C20.4218 6.85588 20.055 6.36258 19.5928 5.96932C19.1305 5.57605 18.5848 5.29314 17.997 5.142C18.0148 4.74314 17.9528 4.34474 17.8147 3.97014C17.6766 3.59554 17.465 3.25228 17.1925 2.96048C16.92 2.66869 16.592 2.43422 16.2277 2.27083C15.8634 2.10744 15.4702 2.01841 15.071 2.00896C14.6719 1.99951 14.2748 2.06983 13.9032 2.21579C13.5316 2.36176 13.1928 2.58043 12.9068 2.859C12.6208 3.13757 12.3933 3.47044 12.2376 3.83808C12.0818 4.20572 12.0011 4.60074 12 5ZM15 12C15 13.6569 13.6569 15 12 15C10.3431 15 9 13.6569 9 12C9 10.3431 10.3431 9 12 9C13.6569 9 15 10.3431 15 12Z" stroke="black" stroke-width="2" stroke-linecap="round" stroke-linejoin="round"/>
</svg>
