<svg width="24" height="24" viewBox="0 0 24 24" fill="none" xmlns="http://www.w3.org/2000/svg">
<path d="M6.003 5.12499C5.98515 4.72542 6.04739 4.32631 6.18605 3.95114C6.32471 3.57597 6.53699 3.23232 6.8104 2.94039C7.08381 2.64847 7.41284 2.41416 7.77814 2.25126C8.14343 2.08835 8.53761 2.00014 8.93749 1.9918C9.33738 1.98347 9.73489 2.05518 10.1067 2.20272C10.4784 2.35026 10.8169 2.57065 11.1023 2.85093C11.3876 3.13122 11.614 3.46572 11.7682 3.83479C11.9224 4.20385 12.0012 4.60002 12 4.99999V18M6.003 5.12499C5.4152 5.27613 4.8695 5.55904 4.40723 5.9523C3.94496 6.34556 3.57824 6.83886 3.33484 7.39484C3.09145 7.95081 2.97776 8.55488 3.00239 9.1613C3.02702 9.76772 3.18932 10.3606 3.477 10.895M6.003 5.12499C6.02277 5.60872 6.15933 6.08048 6.401 6.49999M3.477 10.895C2.97118 11.3059 2.57342 11.8342 2.31834 12.4339C2.06325 13.0336 1.95856 13.6866 2.01336 14.336C2.06817 14.9854 2.28081 15.6115 2.6328 16.16C2.98479 16.7085 3.46546 17.1626 4.033 17.483M3.477 10.895C3.65994 10.746 3.8557 10.6145 4.062 10.5M4.033 17.483C3.96291 18.0252 4.00474 18.5761 4.15589 19.1015C4.30703 19.627 4.56429 20.1158 4.91178 20.5379C5.25927 20.9601 5.68961 21.3065 6.17622 21.5557C6.66283 21.805 7.19538 21.9519 7.74097 21.9873C8.28657 22.0227 8.83364 21.9459 9.34838 21.7616C9.86313 21.5773 10.3346 21.2894 10.7338 20.9157C11.1329 20.5421 11.4512 20.0906 11.669 19.5891C11.8867 19.0876 11.9994 18.5467 12 18M4.033 17.483C4.63327 17.8216 5.31083 18.0003 6 18M12 18H18C18.5304 18 19.0391 18.2107 19.4142 18.5858C19.7893 18.9608 20 19.4696 20 20V21M9 13C9.83955 12.7046 10.5727 12.167 11.1067 11.455C11.6407 10.743 11.9515 9.88866 12 8.99999M12 13H16M12 7.99999H20M16 7.99999V4.99999C16 4.46956 16.2107 3.96085 16.5858 3.58578C16.9609 3.2107 17.4696 2.99999 18 2.99999M16.5 13C16.5 13.2761 16.2761 13.5 16 13.5C15.7239 13.5 15.5 13.2761 15.5 13C15.5 12.7238 15.7239 12.5 16 12.5C16.2761 12.5 16.5 12.7238 16.5 13ZM18.5 2.99999C18.5 3.27613 18.2761 3.49999 18 3.49999C17.7239 3.49999 17.5 3.27613 17.5 2.99999C17.5 2.72385 17.7239 2.49999 18 2.49999C18.2761 2.49999 18.5 2.72385 18.5 2.99999ZM20.5 21C20.5 21.2761 20.2761 21.5 20 21.5C19.7239 21.5 19.5 21.2761 19.5 21C19.5 20.7238 19.7239 20.5 20 20.5C20.2761 20.5 20.5 20.7238 20.5 21ZM20.5 7.99999C20.5 8.27613 20.2761 8.49999 20 8.49999C19.7239 8.49999 19.5 8.27613 19.5 7.99999C19.5 7.72385 19.7239 7.49999 20 7.49999C20.2761 7.49999 20.5 7.72385 20.5 7.99999Z" stroke="black" stroke-width="2" stroke-linecap="round" stroke-linejoin="round"/>
</svg>
