<svg width="24" height="24" viewBox="0 0 24 24" fill="none" xmlns="http://www.w3.org/2000/svg">
<path d="M9.05999 11.9L17.13 3.83998C17.3931 3.56842 17.7075 3.35192 18.0551 3.20309C18.4026 3.05425 18.7763 2.97605 19.1544 2.97305C19.5324 2.97005 19.9073 3.0423 20.2572 3.18559C20.6071 3.32889 20.9249 3.54037 21.1923 3.80771C21.4596 4.07505 21.6711 4.39291 21.8144 4.74278C21.9577 5.09265 22.0299 5.46753 22.0269 5.8456C22.0239 6.22367 21.9457 6.59736 21.7969 6.94491C21.648 7.29245 21.4315 7.60692 21.16 7.86998L13.1 15.95M7.06999 14.94C5.40999 14.94 4.06999 16.29 4.06999 17.96C4.06999 19.29 1.56999 19.48 2.06999 19.98C3.14999 21.08 4.55999 22 6.06999 22C8.26999 22 10.07 20.2 10.07 17.96C10.0713 17.5647 9.99475 17.173 9.8447 16.8073C9.69465 16.4416 9.47403 16.1091 9.19546 15.8287C8.91688 15.5482 8.5858 15.3254 8.22111 15.1729C7.85642 15.0204 7.46527 14.9413 7.06999 14.94Z" stroke="black" stroke-width="2" stroke-linecap="round" stroke-linejoin="round"/>
</svg>
