<svg width="24" height="24" viewBox="0 0 24 24" fill="none" xmlns="http://www.w3.org/2000/svg">
<path d="M4.2 4.2C3.84843 4.35337 3.54839 4.60461 3.33562 4.92375C3.12286 5.24289 3.00636 5.61649 3 6V20C3 20.5304 3.21071 21.0391 3.58579 21.4142C3.96086 21.7893 4.46957 22 5 22H19C19.3847 21.9992 19.761 21.8874 20.0839 21.6782C20.4067 21.4689 20.6623 21.1709 20.82 20.82M21 15.5V6C21 5.46957 20.7893 4.96086 20.4142 4.58579C20.0391 4.21071 19.5304 4 19 4H9.5M16 2V6M3 10H10M21 10H15.5M2 2L22 22" stroke="black" stroke-width="2" stroke-linecap="round" stroke-linejoin="round"/>
</svg>
