<svg width="24" height="24" viewBox="0 0 24 24" fill="none" xmlns="http://www.w3.org/2000/svg">
<path d="M3 10H21V6C21 5.46957 20.7893 4.96086 20.4142 4.58579C20.0391 4.21071 19.5304 4 19 4H5C4.46957 4 3.96086 4.21071 3.58579 4.58579C3.21071 4.96086 3 5.46957 3 6V20C3 20.5304 3.21071 21.0391 3.58579 21.4142C3.96086 21.7893 4.46957 22 5 22H12M8 2V6M16 2V6M21.29 14.7C20.9493 14.3609 20.5156 14.1305 20.0439 14.038C19.5722 13.9454 19.0836 13.9948 18.64 14.18C18.34 14.3 18.07 14.48 17.84 14.71L17.5 15.05L17.15 14.71C16.8104 14.3693 16.3772 14.137 15.9055 14.0426C15.4337 13.9483 14.9446 13.9961 14.5 14.18C14.2 14.3 13.94 14.48 13.71 14.71C12.76 15.65 12.71 17.24 13.91 18.45L17.5 22L21.1 18.45C22.3 17.24 22.24 15.65 21.29 14.71V14.7Z" stroke="black" stroke-width="2" stroke-linecap="round" stroke-linejoin="round"/>
</svg>
