<svg width="24" height="24" viewBox="0 0 24 24" fill="none" xmlns="http://www.w3.org/2000/svg">
<path d="M2 2L22 22M7 7H4C3.46957 7 2.96086 7.21071 2.58579 7.58579C2.21071 7.96086 2 8.46957 2 9V18C2 18.5304 2.21071 19.0391 2.58579 19.4142C2.96086 19.7893 3.46957 20 4 20H20M9.5 4H14.5L17 7H20C20.5304 7 21.0391 7.21071 21.4142 7.58579C21.7893 7.96086 22 8.46957 22 9V16.5M14.121 15.121C13.8455 15.4123 13.5143 15.6454 13.1471 15.8066C12.7799 15.9677 12.3842 16.0536 11.9832 16.0592C11.5823 16.0648 11.1843 15.9899 10.8128 15.839C10.4412 15.6882 10.1037 15.4644 9.82019 15.1808C9.53665 14.8973 9.31283 14.5598 9.16196 14.1882C9.01109 13.8167 8.93623 13.4187 8.9418 13.0178C8.94738 12.6168 9.03328 12.2211 9.19442 11.8539C9.35556 11.4867 9.58868 11.1555 9.88 10.88" stroke="black" stroke-width="2" stroke-linecap="round" stroke-linejoin="round"/>
</svg>
