<svg width="24" height="24" viewBox="0 0 24 24" fill="none" xmlns="http://www.w3.org/2000/svg">
<g clip-path="url(#clip0_119_1457)">
<path d="M17.75 6.99999L15 2.09999M10.9 4.79999L13 8.99999M7.9 9.69999L9.9 14.1M4.9 14.7L7 18.9M5.7 21C5.56868 21.2298 5.39338 21.4315 5.18411 21.5936C4.97484 21.7556 4.73569 21.8749 4.48033 21.9445C3.96461 22.0852 3.41413 22.0152 2.95 21.75C2.48587 21.4848 2.14611 21.046 2.00546 20.5303C1.86481 20.0146 1.93479 19.4641 2.2 19L10.8 4.99999C11.5957 3.62086 12.9066 2.6143 14.4444 2.20172C15.9822 1.78913 17.6209 2.00434 19 2.79999C20.3791 3.59564 21.3857 4.90656 21.7983 6.44436C22.2109 7.98215 21.9957 9.62086 21.2 11C21.0696 11.2293 20.8952 11.4305 20.6868 11.5921C20.4783 11.7537 20.2399 11.8725 19.9854 11.9416C19.7308 12.0107 19.4651 12.0288 19.2036 11.9948C18.942 11.9608 18.6898 11.8754 18.4613 11.7435C18.2329 11.6116 18.0328 11.4359 17.8726 11.2263C17.7124 11.0168 17.5952 10.7777 17.5278 10.5227C17.4604 10.2677 17.4441 10.0019 17.4798 9.74054C17.5155 9.47921 17.6026 9.22753 17.736 8.99999C17.8694 8.77245 17.9565 8.52077 17.9922 8.25944C18.0279 7.99811 18.0116 7.7323 17.9442 7.4773C17.8768 7.2223 17.7596 6.98315 17.5994 6.77363C17.4392 6.56411 17.2391 6.38835 17.0107 6.25646C16.7822 6.12458 16.53 6.03918 16.2684 6.00518C16.0069 5.97119 15.7412 5.98926 15.4866 6.05837C15.2321 6.12748 14.9937 6.24625 14.7853 6.40786C14.5768 6.56946 14.4024 6.7707 14.272 6.99999L5.7 21Z" stroke="black" stroke-width="2" stroke-linecap="round" stroke-linejoin="round"/>
</g>
<defs>
<clipPath id="clip0_119_1457">
<rect width="24" height="24" fill="white"/>
</clipPath>
</defs>
</svg>
