<svg width="24" height="24" viewBox="0 0 24 24" fill="none" xmlns="http://www.w3.org/2000/svg">
<path d="M8.5 8.5L7.5 9.5C6.58718 10.4314 6.07883 11.6855 6.08542 12.9896C6.09201 14.2938 6.613 15.5426 7.53518 16.4648C8.45736 17.387 9.70621 17.908 11.0104 17.9146C12.3145 17.9212 13.5686 17.4128 14.5 16.5L15.5 15.5M11.843 6.187C12.6667 5.98876 13.5275 6.00538 14.343 6.23529C15.1584 6.4652 15.9012 6.90068 16.5 7.5C17.0993 8.09885 17.5348 8.84158 17.7647 9.65702C17.9946 10.4725 18.0112 11.3333 17.813 12.157M14 16.5V14M14 6.5V8.343M10 10V17.5M16 7L17 2L18.367 2.683C18.7833 2.89128 19.2425 2.99981 19.708 3H21V4.292C21.0002 4.75754 21.1087 5.21665 21.317 5.633L22 7L17 8M8 17L7 22L5.633 21.317C5.21665 21.1087 4.75754 21.0002 4.292 21H3V19.708C2.99981 19.2425 2.89128 18.7833 2.683 18.367L2 17L7 16M2 2L22 22" stroke="black" stroke-width="2" stroke-linecap="round" stroke-linejoin="round"/>
</svg>
