<svg width="24" height="24" viewBox="0 0 24 24" fill="none" xmlns="http://www.w3.org/2000/svg">
<path d="M8 14V14.5M16 14V14.5M12 5.00002C12.67 5.00002 13.35 5.09002 14 5.26002C15.78 3.26002 19.03 2.42002 20.42 3.00002C21.82 3.58002 20 10 20 10C20.57 11.07 21 12.24 21 13.44C21 17.9 16.97 21 12 21C7.03 21 3 18 3 13.44C3 12.19 3.5 11.04 4 10C4 10 2.11 3.58002 3.5 3.00002C4.89 2.42002 8.22 3.23002 10 5.23002C10.656 5.07913 11.3268 5.00198 12 5.00002ZM11.25 16.25H12.75L12 17L11.25 16.25Z" stroke="black" stroke-width="2" stroke-linecap="round" stroke-linejoin="round"/>
</svg>
