<svg width="24" height="24" viewBox="0 0 24 24" fill="none" xmlns="http://www.w3.org/2000/svg">
<path d="M16.75 12H20.382C20.5524 12.0001 20.7199 12.0437 20.8687 12.1267C21.0175 12.2097 21.1426 12.3294 21.2322 12.4744C21.3218 12.6193 21.3728 12.7848 21.3805 12.955C21.3881 13.1252 21.3522 13.2946 21.276 13.447L19.242 17.516C19.1649 17.6702 19.0492 17.8018 18.9062 17.8981C18.7632 17.9944 18.5977 18.0521 18.4259 18.0656C18.254 18.079 18.0816 18.0479 17.9253 17.975C17.769 17.9022 17.6342 17.7902 17.534 17.65L15.41 14.68M2 19H5.76C6.13273 19.0026 6.49877 18.901 6.81682 18.7066C7.13487 18.5122 7.39228 18.2328 7.56 17.9L9 15M2 21V17M7 8.99998H7.01M17.106 9.05298C17.343 9.17163 17.5232 9.37951 17.607 9.63096C17.6909 9.88241 17.6714 10.1569 17.553 10.394L14.447 16.605C14.3883 16.7225 14.3069 16.8272 14.2077 16.9133C14.1084 16.9993 13.9932 17.065 13.8686 17.1065C13.744 17.148 13.6124 17.1646 13.4814 17.1552C13.3504 17.1458 13.2225 17.1108 13.105 17.052L3.61 12.3C2.92033 11.9526 2.39635 11.3462 2.15272 10.6134C1.90909 9.88061 1.96564 9.08116 2.31 8.38998L3.69 5.59998C3.862 5.2572 4.09984 4.95166 4.38994 4.70081C4.68003 4.44996 5.0167 4.25872 5.38072 4.138C5.74474 4.01728 6.12897 3.96945 6.51147 3.99724C6.89398 4.02503 7.26726 4.1279 7.61 4.29998L17.106 9.05298Z" stroke="black" stroke-width="2" stroke-linecap="round" stroke-linejoin="round"/>
</svg>
