<svg width="24" height="24" viewBox="0 0 24 24" fill="none" xmlns="http://www.w3.org/2000/svg">
<path d="M21.21 15.89C20.5738 17.3945 19.5788 18.7202 18.3119 19.7513C17.045 20.7824 15.5448 21.4874 13.9424 21.8048C12.3401 22.1221 10.6844 22.0421 9.12015 21.5718C7.55587 21.1014 6.13062 20.2551 4.96902 19.1066C3.80741 17.9582 2.94481 16.5427 2.45663 14.9839C1.96845 13.4251 1.86956 11.7705 2.1686 10.1646C2.46763 8.55876 3.15549 7.05061 4.17204 5.77201C5.18859 4.49341 6.50288 3.4833 8 2.82998M21 12C21.552 12 22.005 11.551 21.95 11.002C21.7195 8.70615 20.7021 6.56068 19.0703 4.9293C17.4386 3.29792 15.2929 2.28102 12.997 2.05098C12.447 1.99598 11.999 2.44898 11.999 3.00098V11.001C11.999 11.2662 12.1044 11.5206 12.2919 11.7081C12.4794 11.8956 12.7338 12.001 12.999 12.001L21 12Z" stroke="black" stroke-width="2" stroke-linecap="round" stroke-linejoin="round"/>
</svg>
