<svg width="24" height="24" viewBox="0 0 24 24" fill="none" xmlns="http://www.w3.org/2000/svg">
<path d="M5.99999 17H18M17 21C17.2652 21 17.5196 20.8947 17.7071 20.7071C17.8946 20.5196 18 20.2652 18 20V14.65C18 14.193 18.316 13.806 18.727 13.609C19.578 13.2031 20.2582 12.5096 20.6476 11.6509C21.037 10.7923 21.1106 9.82363 20.8554 8.91599C20.6002 8.00835 20.0325 7.22003 19.2527 6.69017C18.4728 6.16032 17.5308 5.92297 16.593 6.02003C16.2068 5.12224 15.5659 4.35732 14.7496 3.81987C13.9333 3.28241 12.9773 2.99597 12 2.99597C11.0226 2.99597 10.0667 3.28241 9.25042 3.81987C8.43412 4.35732 7.79323 5.12224 7.40699 6.02003C6.46957 5.92365 5.52823 6.16133 4.74892 6.69117C3.96962 7.221 3.4024 8.00896 3.14728 8.91613C2.89215 9.8233 2.9655 10.7914 3.3544 11.6498C3.74329 12.5082 4.42275 13.2017 5.27299 13.608C5.68399 13.806 5.99999 14.193 5.99999 14.649V20C5.99999 20.2652 6.10535 20.5196 6.29288 20.7071C6.48042 20.8947 6.73477 21 6.99999 21H17Z" stroke="black" stroke-width="2" stroke-linecap="round" stroke-linejoin="round"/>
</svg>
