<svg width="24" height="24" viewBox="0 0 24 24" fill="none" xmlns="http://www.w3.org/2000/svg">
<path d="M10 9.00002H14M12 7.00002V12M14 22V18C14 17.4696 13.7893 16.9609 13.4142 16.5858C13.0391 16.2107 12.5304 16 12 16C11.4696 16 10.9609 16.2107 10.5858 16.5858C10.2107 16.9609 10 17.4696 10 18V22M18 22V5.61802C17.9999 5.43235 17.9481 5.25039 17.8504 5.09249C17.7528 4.93459 17.6131 4.80701 17.447 4.72402L12.894 2.44702C12.6164 2.3083 12.3103 2.23608 12 2.23608C11.6897 2.23608 11.3836 2.3083 11.106 2.44702L6.553 4.72402C6.38692 4.80701 6.24722 4.93459 6.14955 5.09249C6.05188 5.25039 6.0001 5.43235 6 5.61802V22M18 7.00002L21.447 8.72402C21.6131 8.80701 21.7528 8.93459 21.8504 9.09249C21.9481 9.25039 21.9999 9.43235 22 9.61802V20C22 20.5304 21.7893 21.0392 21.4142 21.4142C21.0391 21.7893 20.5304 22 20 22H4C3.46957 22 2.96086 21.7893 2.58579 21.4142C2.21071 21.0392 2 20.5304 2 20V9.61802C2.0001 9.43235 2.05188 9.25039 2.14955 9.09249C2.24722 8.93459 2.38692 8.80701 2.553 8.72402L6 7.00002" stroke="black" stroke-width="2" stroke-linecap="round" stroke-linejoin="round"/>
</svg>
