<svg width="24" height="24" viewBox="0 0 24 24" fill="none" xmlns="http://www.w3.org/2000/svg">
<path d="M10.1 2.18198C11.355 1.9391 12.645 1.9391 13.9 2.18198M13.9 21.818C12.645 22.0609 11.355 22.0609 10.1 21.818M17.609 3.72098C18.6705 4.4402 19.5837 5.35684 20.299 6.42098M2.18201 13.9C1.93913 12.645 1.93913 11.355 2.18201 10.1M20.279 17.609C19.5598 18.6704 18.6431 19.5837 17.579 20.299M21.818 10.1C22.0609 11.355 22.0609 12.645 21.818 13.9M3.72101 6.39098C4.44023 5.32951 5.35688 4.41626 6.42101 3.70098M6.39101 20.279C5.32954 19.5598 4.41629 18.6431 3.70101 17.579" stroke="black" stroke-width="2" stroke-linecap="round" stroke-linejoin="round"/>
</svg>
