<svg width="24" height="24" viewBox="0 0 24 24" fill="none" xmlns="http://www.w3.org/2000/svg">
<path d="M12 7V11M7.998 9.003C7.44133 9.7462 7.10261 10.6297 7.0198 11.5546C6.93699 12.4794 7.11335 13.4091 7.52914 14.2394C7.94492 15.0696 8.58369 15.7677 9.37388 16.2554C10.1641 16.7431 11.0744 17.0011 12.003 17.0005C12.9316 16.9999 13.8416 16.7408 14.6312 16.2521C15.4208 15.7634 16.0587 15.0646 16.4734 14.2338C16.8882 13.403 17.0634 12.4731 16.9794 11.5484C16.8954 10.6236 16.5556 9.7405 15.998 8.998M22 12C22 17.5228 17.5228 22 12 22C6.47715 22 2 17.5228 2 12C2 6.47715 6.47715 2 12 2C17.5228 2 22 6.47715 22 12Z" stroke="black" stroke-width="2" stroke-linecap="round" stroke-linejoin="round"/>
</svg>
