<svg width="24" height="24" viewBox="0 0 24 24" fill="none" xmlns="http://www.w3.org/2000/svg">
<path d="M2 2L22 22M8.35 2.69C10.1606 1.98282 12.1381 1.81868 14.0405 2.21764C15.943 2.61661 17.6879 3.56139 19.0619 4.93641C20.4358 6.31143 21.3793 8.05708 21.7767 9.95983C22.1742 11.8626 22.0086 13.8399 21.3 15.65M19.08 19.08C18.1502 20.0098 17.0465 20.7473 15.8317 21.2505C14.6169 21.7536 13.3149 22.0126 12 22.0126C10.6851 22.0126 9.38312 21.7536 8.16833 21.2505C6.95354 20.7473 5.84976 20.0098 4.92 19.08C3.99024 18.1502 3.25271 17.0465 2.74953 15.8317C2.24635 14.6169 1.98737 13.3149 1.98737 12C1.98737 10.6851 2.24635 9.38312 2.74953 8.16833C3.25271 6.95354 3.99024 5.84976 4.92 4.92" stroke="black" stroke-width="2" stroke-linecap="round" stroke-linejoin="round"/>
</svg>
