<svg width="24" height="24" viewBox="0 0 24 24" fill="none" xmlns="http://www.w3.org/2000/svg">
<path d="M15.6 2.70002C13.4612 1.8691 11.1017 1.79899 8.91731 2.50144C6.73294 3.20389 4.85658 4.63618 3.603 6.55802C2.34943 8.47986 1.7949 10.7743 2.03245 13.0566C2.26999 15.3388 3.28516 17.4699 4.90765 19.0924C6.53013 20.7149 8.66124 21.73 10.9435 21.9676C13.2257 22.2051 15.5202 21.6506 17.442 20.397C19.3638 19.1434 20.7961 17.2671 21.4986 15.0827C22.201 12.8983 22.1309 10.5388 21.3 8.40002M13.4 10.6L19 5.00002M14 12C14 13.1046 13.1046 14 12 14C10.8954 14 10 13.1046 10 12C10 10.8954 10.8954 10 12 10C13.1046 10 14 10.8954 14 12Z" stroke="black" stroke-width="2" stroke-linecap="round" stroke-linejoin="round"/>
</svg>
