<svg width="24" height="24" viewBox="0 0 24 24" fill="none" xmlns="http://www.w3.org/2000/svg">
<path d="M19.65 15.66C18.1362 17.0957 16.1215 17.8832 14.0354 17.8546C11.9493 17.8261 9.95692 16.9838 8.483 15.5072C7.00908 14.0307 6.17027 12.0368 6.14542 9.95067C6.12057 7.86454 6.91165 5.85122 8.34999 4.34M14 10L8.49999 15.5M14 10L14 17.85M14 10H6.14999M21.66 17.67C21.7691 17.774 21.8553 17.8997 21.9129 18.039C21.9706 18.1783 21.9984 18.3282 21.9946 18.4789C21.9908 18.6296 21.9556 18.7778 21.891 18.9141C21.8265 19.0503 21.7342 19.1716 21.62 19.27C19.3174 21.1624 16.393 22.1301 13.4162 21.9849C10.4393 21.8397 7.62299 20.5919 5.51552 18.4845C3.40806 16.377 2.16026 13.5607 2.01505 10.5838C1.86985 7.60695 2.83763 4.68257 4.72999 2.38C4.83015 2.26686 4.95255 2.17558 5.08955 2.11183C5.22655 2.04808 5.37522 2.01325 5.52628 2.00949C5.67734 2.00574 5.82755 2.03315 5.96755 2.09002C6.10755 2.14688 6.23433 2.23198 6.33999 2.34L21.66 17.67Z" stroke="black" stroke-width="2" stroke-linecap="round" stroke-linejoin="round"/>
</svg>
