<svg width="24" height="24" viewBox="0 0 24 24" fill="none" xmlns="http://www.w3.org/2000/svg">
<path d="M3.00001 11L20.2 6.00001L19.4 3.40001C19.1 2.40001 18 1.80001 16.9 2.10001L3.40001 6.10001C2.40001 6.40001 1.80001 7.50001 2.10001 8.60001L3.00001 11ZM3.00001 11H21V19C21 19.5304 20.7893 20.0392 20.4142 20.4142C20.0392 20.7893 19.5304 21 19 21H5.00001C4.46958 21 3.96087 20.7893 3.5858 20.4142C3.21073 20.0392 3.00001 19.5304 3.00001 19V11ZM6.20001 5.30001L9.30001 9.20001M12.4 3.40001L15.5 7.40001" stroke="black" stroke-width="2" stroke-linecap="round" stroke-linejoin="round"/>
</svg>
