<svg width="24" height="24" viewBox="0 0 24 24" fill="none" xmlns="http://www.w3.org/2000/svg">
<path d="M13.228 21.925C11.1988 22.1762 9.14141 21.7993 7.33304 20.8451C5.52467 19.8909 4.05224 18.4053 3.11419 16.5885C2.17614 14.7718 1.81754 12.7111 2.08673 10.6842C2.35592 8.65734 3.23994 6.7617 4.61969 5.25273C5.99943 3.74377 7.80856 2.69401 9.8033 2.24492C11.798 1.79584 13.8825 1.969 15.7758 2.74109C17.6691 3.51318 19.2802 4.84707 20.392 6.56302C21.5039 8.27898 22.063 10.2945 21.994 12.338M12 6.00001V12L13.562 12.781M14 18L18 14M18 14L22 18M18 14V22" stroke="black" stroke-width="2" stroke-linecap="round" stroke-linejoin="round"/>
</svg>
