<svg width="24" height="24" viewBox="0 0 24 24" fill="none" xmlns="http://www.w3.org/2000/svg">
<path d="M12.338 21.994C10.2945 22.063 8.27903 21.5039 6.56309 20.3922C4.84714 19.2804 3.51322 17.6694 2.74108 15.7761C1.96895 13.8829 1.7957 11.7985 2.24469 9.80376C2.69367 7.80904 3.74332 5.99989 5.25218 4.62008C6.76103 3.24028 8.65659 2.35615 10.6834 2.08683C12.7102 1.81752 14.7709 2.17595 16.5877 3.11384C18.4045 4.05174 19.8902 5.52401 20.8445 7.33226C21.7988 9.14051 22.1759 11.1978 21.925 13.227M12 6.00001V12L14 13M14 18L18 22M18 22L22 18M18 22V14" stroke="black" stroke-width="2" stroke-linecap="round" stroke-linejoin="round"/>
</svg>
