<svg width="24" height="24" viewBox="0 0 24 24" fill="none" xmlns="http://www.w3.org/2000/svg">
<path d="M4 14.899C3.25704 14.1399 2.69657 13.2217 2.36104 12.2139C2.0255 11.2062 1.92371 10.1352 2.06336 9.08229C2.20302 8.02935 2.58046 7.02199 3.1671 6.13652C3.75374 5.25106 4.53419 4.5107 5.44934 3.97154C6.36448 3.43238 7.39033 3.10854 8.44917 3.02457C9.50801 2.94059 10.5721 3.09868 11.5608 3.48685C12.5495 3.87502 13.4369 4.4831 14.1557 5.26503C14.8746 6.04695 15.4061 6.98222 15.71 7.99999H17.5C18.4655 7.99988 19.4055 8.31031 20.181 8.88543C20.9565 9.46055 21.5265 10.2699 21.8068 11.1938C22.087 12.1177 22.0627 13.1073 21.7373 14.0164C21.412 14.9254 20.8029 15.7057 20 16.242M8 15H8.01M8 19H8.01M12 17H12.01M12 21H12.01M16 15H16.01M16 19H16.01" stroke="black" stroke-width="2" stroke-linecap="round" stroke-linejoin="round"/>
</svg>
