<svg width="24" height="24" viewBox="0 0 24 24" fill="none" xmlns="http://www.w3.org/2000/svg">
<path d="M6 16.326C4.94623 15.8256 4.03422 15.0698 3.34686 14.1273C2.6595 13.1848 2.21858 12.0855 2.06418 10.9292C1.90978 9.77291 2.0468 8.59638 2.46278 7.50653C2.87876 6.41669 3.56051 5.44808 4.44606 4.68874C5.33162 3.9294 6.39291 3.40342 7.53346 3.15859C8.67402 2.91376 9.85768 2.95785 10.9769 3.28686C12.096 3.61587 13.1152 4.21935 13.9419 5.04247C14.7685 5.86559 15.3763 6.88223 15.71 8.00001H17.5C18.6515 7.998 19.7599 8.43748 20.5972 9.22801C21.4345 10.0185 21.9368 11.0999 22.0009 12.2496C22.0649 13.3993 21.6858 14.5299 20.9416 15.4085C20.1973 16.2872 19.1446 16.8471 18 16.973M13 12L10 17H14L11 22" stroke="black" stroke-width="2" stroke-linecap="round" stroke-linejoin="round"/>
</svg>
