<svg width="24" height="24" viewBox="0 0 24 24" fill="none" xmlns="http://www.w3.org/2000/svg">
<path d="M10.188 8.5C10.5207 7.21165 11.2721 6.07042 12.3242 5.25581C13.3764 4.4412 14.6694 3.99944 16 4C15.2044 4.79565 14.7574 5.87478 14.7574 7C14.7574 7.55715 14.8671 8.10885 15.0803 8.62359C15.2935 9.13833 15.606 9.60603 16 10C16.394 10.394 16.8617 10.7065 17.3764 10.9197C17.8912 11.1329 18.4429 11.2426 19 11.2426C20.1252 11.2426 21.2044 10.7956 22 10C22.0002 11.0534 21.723 12.0882 21.1964 13.0005C20.6697 13.9128 19.9122 14.6703 19 15.197M13 16C13.7957 16 14.5587 16.3161 15.1213 16.8787C15.6839 17.4413 16 18.2044 16 19C16 19.7956 15.6839 20.5587 15.1213 21.1213C14.5587 21.6839 13.7957 22 13 22H7C6.05397 21.9998 5.12741 21.7312 4.32793 21.2255C3.52844 20.7197 2.88885 19.9975 2.48343 19.1427C2.07801 18.288 1.9234 17.3358 2.03756 16.3966C2.15172 15.4575 2.52997 14.5701 3.12836 13.8373C3.72676 13.1046 4.52075 12.5567 5.41813 12.2572C6.3155 11.9577 7.27942 11.9189 8.19795 12.1454C9.11647 12.3718 9.9519 12.8542 10.6072 13.5366C11.2625 14.2189 11.7108 15.0731 11.9 16H13Z" stroke="black" stroke-width="2" stroke-linecap="round" stroke-linejoin="round"/>
</svg>
