<svg width="24" height="24" viewBox="0 0 24 24" fill="none" xmlns="http://www.w3.org/2000/svg">
<path d="M12 2V4M4.92999 4.93L6.33999 6.34M20 12H22M19.07 4.93L17.66 6.34M15.947 12.65C16.0701 11.9045 15.9795 11.1394 15.6857 10.4432C15.3919 9.74711 14.907 9.14841 14.287 8.71648C13.667 8.28455 12.9374 8.03704 12.1826 8.00262C11.4278 7.96821 10.6787 8.14828 10.022 8.522M13 22H6.99999C6.05396 21.9998 5.1274 21.7312 4.32791 21.2255C3.52843 20.7197 2.88884 19.9975 2.48342 19.1427C2.078 18.288 1.92339 17.3358 2.03755 16.3966C2.15171 15.4575 2.52995 14.5701 3.12835 13.8373C3.72675 13.1046 4.52074 12.5567 5.41811 12.2572C6.31548 11.9577 7.27941 11.9189 8.19793 12.1454C9.11646 12.3718 9.95189 12.8542 10.6072 13.5366C11.2625 14.2189 11.7108 15.0731 11.9 16H13C13.7956 16 14.5587 16.3161 15.1213 16.8787C15.6839 17.4413 16 18.2044 16 19C16 19.7956 15.6839 20.5587 15.1213 21.1213C14.5587 21.6839 13.7956 22 13 22Z" stroke="black" stroke-width="2" stroke-linecap="round" stroke-linejoin="round"/>
</svg>
