<svg width="24" height="24" viewBox="0 0 24 24" fill="none" xmlns="http://www.w3.org/2000/svg">
<path d="M22 10C22 9.20435 21.6839 8.44129 21.1213 7.87868C20.5587 7.31607 19.7957 7 19 7H16.793C16.4538 5.80633 15.7209 4.76239 14.7136 4.03772C13.7062 3.31306 12.4834 2.95022 11.2438 3.00813C10.0042 3.06605 8.82062 3.54131 7.8852 4.35675C6.94978 5.17218 6.31749 6.27989 6.09101 7.5M17.5 21H9.00001C7.70187 20.9997 6.4294 20.6384 5.32478 19.9565C4.22017 19.2746 3.32693 18.2989 2.74488 17.1386C2.16283 15.9783 1.9149 14.6789 2.0288 13.3858C2.1427 12.0927 2.61394 10.8567 3.38985 9.81598C4.16577 8.77525 5.2158 7.97079 6.42261 7.49248C7.62941 7.01418 8.94545 6.88087 10.2237 7.10746C11.5019 7.33405 12.6919 7.91161 13.6607 8.7756C14.6296 9.63959 15.3391 10.756 15.71 12H17.5C18.091 12 18.6761 12.1164 19.2221 12.3425C19.768 12.5687 20.2641 12.9002 20.682 13.318C21.0999 13.7359 21.4313 14.232 21.6575 14.7779C21.8836 15.3239 22 15.909 22 16.5C22 17.0909 21.8836 17.6761 21.6575 18.2221C21.4313 18.768 21.0999 19.2641 20.682 19.682C20.2641 20.0998 19.768 20.4313 19.2221 20.6575C18.6761 20.8836 18.091 21 17.5 21Z" stroke="black" stroke-width="2" stroke-linecap="round" stroke-linejoin="round"/>
</svg>
