<svg width="24" height="24" viewBox="0 0 24 24" fill="none" xmlns="http://www.w3.org/2000/svg">
<path d="M10.188 8.5C10.5207 7.21165 11.2721 6.07042 12.3242 5.25581C13.3763 4.4412 14.6694 3.99944 16 4C15.2044 4.79565 14.7574 5.87478 14.7574 7C14.7574 7.55715 14.8671 8.10885 15.0803 8.62359C15.2935 9.13833 15.606 9.60603 16 10C16.394 10.394 16.8617 10.7065 17.3764 10.9197C17.8912 11.1329 18.4428 11.2426 19 11.2426C20.1252 11.2426 21.2044 10.7956 22 10C22.0001 11.0534 21.723 12.0882 21.1964 13.0005C20.6697 13.9128 19.9122 14.6703 19 15.197M11 20V22M3 20C2.55054 19.4001 2.2417 18.7069 2.09633 17.9715C1.95096 17.2362 1.97279 16.4776 2.16018 15.7518C2.34758 15.0261 2.69576 14.3517 3.17896 13.7787C3.66216 13.2056 4.26802 12.7486 4.95171 12.4413C5.6354 12.134 6.37943 11.9844 7.12876 12.0035C7.87809 12.0226 8.61353 12.2099 9.28069 12.5516C9.94785 12.8933 10.5296 13.3806 10.983 13.9775C11.4364 14.5744 11.7498 15.2656 11.9 16H13C13.6085 15.9991 14.2028 16.1832 14.7042 16.528C15.2055 16.8727 15.5902 17.3618 15.8072 17.9302C16.0242 18.4987 16.0632 19.1197 15.919 19.7108C15.7748 20.3019 15.4543 20.8353 15 21.24M7 19V21" stroke="black" stroke-width="2" stroke-linecap="round" stroke-linejoin="round"/>
</svg>
