<svg width="24" height="24" viewBox="0 0 24 24" fill="none" xmlns="http://www.w3.org/2000/svg">
<path d="M12 2V4M4.93 4.93L6.34 6.34M20 12H22M19.07 4.93L17.66 6.34M15.947 12.65C16.0701 11.9045 15.9795 11.1394 15.6857 10.4432C15.3919 9.74711 14.907 9.14841 14.287 8.71648C13.6671 8.28455 12.9374 8.03704 12.1826 8.00262C11.4278 7.96821 10.6787 8.14828 10.022 8.522M3 20C2.55054 19.4001 2.2417 18.7069 2.09633 17.9715C1.95096 17.2362 1.97279 16.4776 2.16018 15.7518C2.34758 15.0261 2.69576 14.3517 3.17896 13.7787C3.66216 13.2056 4.26802 12.7486 4.95171 12.4413C5.6354 12.134 6.37943 11.9844 7.12876 12.0035C7.87809 12.0226 8.61353 12.2099 9.28069 12.5516C9.94785 12.8933 10.5296 13.3806 10.983 13.9775C11.4364 14.5744 11.7498 15.2656 11.9 16H13C13.6085 15.9991 14.2028 16.1832 14.7042 16.528C15.2055 16.8727 15.5902 17.3618 15.8072 17.9302C16.0242 18.4987 16.0632 19.1197 15.919 19.7108C15.7748 20.3019 15.4543 20.8353 15 21.24M11 20V22M7 19V21" stroke="black" stroke-width="2" stroke-linecap="round" stroke-linejoin="round"/>
</svg>
