<svg width="24" height="24" viewBox="0 0 24 24" fill="none" xmlns="http://www.w3.org/2000/svg">
<path d="M4.2 15.1C3.41922 14.3631 2.81839 13.4565 2.44399 12.4503C2.06959 11.4441 1.93165 10.3653 2.04084 9.29728C2.15002 8.22925 2.50341 7.20064 3.07367 6.29102C3.64393 5.3814 4.41577 4.61513 5.32951 4.05149C6.24324 3.48785 7.27438 3.14193 8.34318 3.0405C9.41197 2.93907 10.4898 3.08483 11.4932 3.46652C12.4967 3.84821 13.3989 4.4556 14.1301 5.24171C14.8613 6.02782 15.4018 6.97158 15.71 8H17.5C18.4539 8.01286 19.379 8.32852 20.1418 8.90141C20.9045 9.4743 21.4655 10.2748 21.7437 11.1873C22.0219 12.0998 22.003 13.0771 21.6895 13.9781C21.3761 14.8791 20.7845 15.6572 20 16.2M15.7 18.4L14.8 18.1M9.2 15.9L8.3 15.6M10.6 20.7L10.9 19.8M13.1 14.2L13.4 13.3M13.6 20.7L13.2 19.7M10.8 14.3L10.4 13.3M8.3 18.6L9.3 18.2M14.7 15.8L15.7 15.4M15 17C15 18.6569 13.6569 20 12 20C10.3431 20 9 18.6569 9 17C9 15.3431 10.3431 14 12 14C13.6569 14 15 15.3431 15 17Z" stroke="black" stroke-width="2" stroke-linecap="round" stroke-linejoin="round"/>
</svg>
