<svg width="24" height="24" viewBox="0 0 24 24" fill="none" xmlns="http://www.w3.org/2000/svg">
<path d="M16.17 7.83L2 22M16.17 7.83C16.4398 7.55982 16.652 7.2378 16.7939 6.88337C16.9358 6.52894 17.0045 6.14943 16.9957 5.76774C16.987 5.38605 16.901 5.01009 16.743 4.66254C16.585 4.31498 16.3582 4.00303 16.0763 3.74551C15.7945 3.48798 15.4634 3.29022 15.103 3.16414C14.7426 3.03807 14.3605 2.98629 13.9795 3.01194C13.5986 3.03759 13.2268 3.14014 12.8866 3.31339C12.5464 3.48664 12.2448 3.72701 12 4.02C11.7552 3.72701 11.4536 3.48664 11.1134 3.31339C10.7732 3.14014 10.4014 3.03759 10.0205 3.01194C9.63955 2.98629 9.25737 3.03807 8.897 3.16414C8.53663 3.29022 8.20553 3.48798 7.92367 3.74551C7.64181 4.00303 7.41504 4.31498 7.25702 4.66254C7.09901 5.01009 7.01304 5.38605 7.00428 5.76774C6.99553 6.14943 7.06418 6.52894 7.20609 6.88337C7.34801 7.2378 7.56024 7.55982 7.83 7.83M16.17 7.83C16.4402 7.56024 16.7622 7.348 17.1166 7.20609C17.4711 7.06418 17.8506 6.99553 18.2323 7.00428C18.6139 7.01303 18.9899 7.09901 19.3375 7.25702C19.685 7.41503 19.997 7.64181 20.2545 7.92366C20.512 8.20552 20.7098 8.53662 20.8359 8.89699C20.9619 9.25737 21.0137 9.63954 20.9881 10.0205C20.9624 10.4014 20.8599 10.7732 20.6866 11.1134C20.5134 11.4536 20.273 11.7552 19.98 12C20.273 12.2448 20.5134 12.5464 20.6866 12.8866C20.8599 13.2268 20.9624 13.5986 20.9881 13.9795C21.0137 14.3605 20.9619 14.7426 20.8359 15.103C20.7098 15.4634 20.512 15.7945 20.2545 16.0763C19.997 16.3582 19.685 16.585 19.3375 16.743C18.9899 16.901 18.6139 16.987 18.2323 16.9957C17.8506 17.0045 17.4711 16.9358 17.1166 16.7939C16.7622 16.652 16.4402 16.4398 16.17 16.17M4.02 12C3.72701 11.7552 3.48664 11.4536 3.31339 11.1134C3.14014 10.7732 3.0376 10.4014 3.01195 10.0205C2.9863 9.63954 3.03807 9.25737 3.16415 8.89699C3.29022 8.53662 3.48799 8.20552 3.74551 7.92366C4.00304 7.64181 4.31498 7.41503 4.66254 7.25702C5.0101 7.09901 5.38606 7.01303 5.76775 7.00428C6.14943 6.99553 6.52894 7.06418 6.88338 7.20609C7.23781 7.348 7.55983 7.56024 7.83 7.83M7.83 7.83L16.17 16.17M16.17 16.17C16.4398 16.4402 16.652 16.7622 16.7939 17.1166C16.9358 17.4711 17.0045 17.8506 16.9957 18.2323C16.987 18.6139 16.901 18.9899 16.743 19.3375C16.585 19.685 16.3582 19.997 16.0763 20.2545C15.7945 20.512 15.4634 20.7098 15.103 20.8359C14.7426 20.9619 14.3605 21.0137 13.9795 20.9881C13.5986 20.9624 13.2268 20.8599 12.8866 20.6866C12.5464 20.5134 12.2448 20.273 12 19.98C11.7552 20.273 11.4536 20.5134 11.1134 20.6866C10.7732 20.8599 10.4014 20.9624 10.0205 20.9881C9.63955 21.0137 9.25737 20.9619 8.897 20.8359C8.53663 20.7098 8.20553 20.512 7.92367 20.2545C7.64181 19.997 7.41504 19.685 7.25702 19.3375C7.09901 18.9899 7.01304 18.6139 7.00428 18.2323C6.99553 17.8506 7.06418 17.4711 7.20609 17.1166C7.34801 16.7622 7.56024 16.4402 7.83 16.17C7.27702 16.6779 6.54494 16.9453 5.79479 16.9134C5.04465 16.8815 4.33789 16.553 3.83 16C3.32211 15.447 3.05469 14.7149 3.08657 13.9648C3.11845 13.2146 3.44702 12.5079 4 12" stroke="black" stroke-width="2" stroke-linecap="round" stroke-linejoin="round"/>
</svg>
