<svg width="24" height="24" viewBox="0 0 24 24" fill="none" xmlns="http://www.w3.org/2000/svg">
<path d="M12 17.66C11.4754 18.4052 10.7739 19.0083 9.95855 19.4153C9.14317 19.8222 8.23945 20.0201 7.32862 19.9913C6.41779 19.9625 5.52839 19.7078 4.74037 19.2501C3.95234 18.7924 3.29039 18.1461 2.81399 17.3693C2.3376 16.5924 2.0617 15.7094 2.01108 14.7995C1.96047 13.8896 2.13674 12.9814 2.52403 12.1565C2.91133 11.3317 3.49752 10.6159 4.22993 10.0737C4.96233 9.53144 5.81799 9.17968 6.72 9.05001C6.48093 8.23032 6.43598 7.36622 6.58872 6.52614C6.74146 5.68606 7.08769 4.89309 7.6 4.21001C8.11231 3.52693 8.77662 2.97251 9.54033 2.59066C10.304 2.20881 11.1462 2.01001 12 2.01001C12.8539 2.01001 13.696 2.20881 14.4597 2.59066C15.2234 2.97251 15.8877 3.52693 16.4 4.21001C16.9123 4.89309 17.2585 5.68606 17.4113 6.52614C17.564 7.36622 17.5191 8.23032 17.28 9.05001V9.06001C18.1831 9.18851 19.0401 9.53961 19.7737 10.0817C20.5074 10.6238 21.0946 11.3398 21.4827 12.1654C21.8708 12.9909 22.0474 13.9 21.9967 14.8108C21.946 15.7216 21.6696 16.6055 21.1923 17.3828C20.7151 18.1602 20.0519 18.8067 19.2627 19.264C18.4734 19.7213 17.5828 19.9752 16.671 20.0027C15.7592 20.0302 14.8549 19.8304 14.0395 19.4215C13.2241 19.0125 12.5232 18.4072 12 17.66ZM12 17.66V22" stroke="black" stroke-width="2" stroke-linecap="round" stroke-linejoin="round"/>
</svg>
