<svg width="24" height="24" viewBox="0 0 24 24" fill="none" xmlns="http://www.w3.org/2000/svg">
<path d="M2 12H22M20 12V20C20 20.5304 19.7893 21.0392 19.4142 21.4142C19.0391 21.7893 18.5304 22 18 22H6C5.46957 22 4.96086 21.7893 4.58579 21.4142C4.21071 21.0392 4 20.5304 4 20V12M4 8.00001L20 4.00001M8.86 6.78001L8.41 4.97001C8.34553 4.71524 8.33189 4.45027 8.36988 4.19023C8.40787 3.93019 8.49674 3.68019 8.6314 3.45451C8.76606 3.22884 8.94388 3.03191 9.15469 2.875C9.3655 2.71808 9.60517 2.60425 9.86 2.54001L11.8 2.06001C12.0554 1.9957 12.3211 1.98248 12.5816 2.02111C12.8422 2.05974 13.0926 2.14946 13.3184 2.28512C13.5441 2.42078 13.7409 2.59971 13.8974 2.81163C14.0538 3.02355 14.1669 3.26428 14.23 3.52001L14.68 5.32001" stroke="black" stroke-width="2" stroke-linecap="round" stroke-linejoin="round"/>
</svg>
