<svg width="24" height="24" viewBox="0 0 24 24" fill="none" xmlns="http://www.w3.org/2000/svg">
<path d="M14.83 14.83C14.2704 15.389 13.5577 15.7695 12.7819 15.9235C12.0061 16.0774 11.202 15.998 10.4714 15.6951C9.74074 15.3922 9.11629 14.8795 8.67696 14.2218C8.23763 13.5641 8.00315 12.7909 8.00315 12C8.00315 11.2091 8.23763 10.4359 8.67696 9.77818C9.11629 9.12048 9.74074 8.60779 10.4714 8.30491C11.202 8.00203 12.0061 7.92255 12.7819 8.07653C13.5577 8.23051 14.2704 8.61104 14.83 9.17M22 12C22 17.5228 17.5228 22 12 22C6.47715 22 2 17.5228 2 12C2 6.47715 6.47715 2 12 2C17.5228 2 22 6.47715 22 12Z" stroke="black" stroke-width="2" stroke-linecap="round" stroke-linejoin="round"/>
</svg>
