<svg width="24" height="24" viewBox="0 0 24 24" fill="none" xmlns="http://www.w3.org/2000/svg">
<path d="M10 9.3C9.39316 9.02221 8.70705 8.97031 8.06533 9.15366C7.42361 9.33701 6.86848 9.74354 6.5 10.3C6.16876 10.8051 5.9923 11.396 5.9923 12C5.9923 12.604 6.16876 13.1949 6.5 13.7C6.85359 14.2732 7.40861 14.6935 8.05615 14.8785C8.70368 15.0635 9.39698 14.9998 10 14.7M17 9.3C16.3932 9.02221 15.7071 8.97031 15.0653 9.15366C14.4236 9.33701 13.8685 9.74354 13.5 10.3C13.1688 10.8051 12.9923 11.396 12.9923 12C12.9923 12.604 13.1688 13.1949 13.5 13.7C13.8536 14.2732 14.4086 14.6935 15.0561 14.8785C15.7037 15.0635 16.397 14.9998 17 14.7M22 12C22 17.5228 17.5228 22 12 22C6.47715 22 2 17.5228 2 12C2 6.47715 6.47715 2 12 2C17.5228 2 22 6.47715 22 12Z" stroke="black" stroke-width="2" stroke-linecap="round" stroke-linejoin="round"/>
</svg>
