<svg width="24" height="24" viewBox="0 0 24 24" fill="none" xmlns="http://www.w3.org/2000/svg">
<path d="M5 21H19M11.562 3.26599C11.6052 3.18759 11.6686 3.12222 11.7456 3.07669C11.8227 3.03116 11.9105 3.00714 12 3.00714C12.0895 3.00714 12.1773 3.03116 12.2544 3.07669C12.3314 3.12222 12.3948 3.18759 12.438 3.26599L15.39 8.86999C15.4604 8.99975 15.5586 9.11232 15.6777 9.1996C15.7968 9.28689 15.9337 9.34674 16.0786 9.37484C16.2235 9.40295 16.3729 9.39862 16.5159 9.36216C16.659 9.32571 16.7922 9.25803 16.906 9.16399L21.183 5.49999C21.2651 5.43321 21.3663 5.3942 21.472 5.38859C21.5776 5.38297 21.6824 5.41103 21.7711 5.46873C21.8598 5.52643 21.9279 5.61079 21.9657 5.70968C22.0034 5.80856 22.0087 5.91686 21.981 6.01899L19.147 16.265C19.0891 16.4747 18.9645 16.6597 18.792 16.7922C18.6195 16.9247 18.4085 16.9973 18.191 16.999H5.81C5.59233 16.9975 5.38111 16.925 5.20839 16.7925C5.03567 16.66 4.91089 16.4748 4.853 16.265L2.02 6.01999C1.99225 5.91786 1.99762 5.80956 2.03534 5.71068C2.07306 5.61179 2.14118 5.52743 2.2299 5.46973C2.31862 5.41203 2.42335 5.38397 2.52904 5.38959C2.63472 5.3952 2.73589 5.43421 2.818 5.50099L7.094 9.16499C7.2078 9.25903 7.341 9.32671 7.48406 9.36316C7.62712 9.39962 7.77647 9.40395 7.9214 9.37584C8.06632 9.34774 8.20323 9.28789 8.32229 9.2006C8.44135 9.11331 8.5396 9.00075 8.61 8.87099L11.562 3.26599Z" stroke="black" stroke-width="2" stroke-linecap="round" stroke-linejoin="round"/>
</svg>
