<svg width="24" height="24" viewBox="0 0 24 24" fill="none" xmlns="http://www.w3.org/2000/svg">
<path d="M21 5C21 6.65685 16.9706 8 12 8C7.02944 8 3.00001 6.65685 3.00001 5M21 5C21 3.34315 16.9706 2 12 2C7.02944 2 3.00001 3.34315 3.00001 5M21 5V8M3.00001 5L3.00001 19C2.99444 19.4809 3.33581 19.9552 3.99534 20.383C4.65487 20.8107 5.61323 21.1793 6.78964 21.4577C7.96605 21.7361 9.32602 21.9162 10.7549 21.9827C12.1838 22.0493 13.6398 22.0003 15 21.84M21 12L18 17H22L19 22M3.00001 12C3.00145 12.4675 3.33069 12.9285 3.96146 13.3461C4.59223 13.7636 5.50706 14.1263 6.63297 14.4051C7.75888 14.6839 9.06469 14.8711 10.4462 14.9519C11.8277 15.0326 13.2468 15.0045 14.59 14.87" stroke="black" stroke-width="2" stroke-linecap="round" stroke-linejoin="round"/>
</svg>
