<svg width="24" height="24" viewBox="0 0 24 24" fill="none" xmlns="http://www.w3.org/2000/svg">
<g clip-path="url(#clip0_119_1875)">
<path d="M6.47999 3.65999C8.40309 2.38539 10.7078 1.81495 13.0034 2.04538C15.299 2.2758 17.4443 3.29291 19.0757 4.92431C20.7071 6.55571 21.7242 8.70102 21.9546 10.9966C22.185 13.2922 21.6146 15.5969 20.34 17.52M6.40999 6.40999L17.59 17.59M3.65999 6.47999C2.38539 8.40309 1.81495 10.7078 2.04538 13.0034C2.2758 15.299 3.29291 17.4443 4.92431 19.0757C6.55571 20.7071 8.70102 21.7242 10.9966 21.9546C13.2922 22.185 15.5969 21.6146 17.52 20.34M21 19C21 20.1046 20.1046 21 19 21C17.8954 21 17 20.1046 17 19C17 17.8954 17.8954 17 19 17C20.1046 17 21 17.8954 21 19ZM6.99999 4.99999C6.99999 6.10456 6.10456 6.99999 4.99999 6.99999C3.89542 6.99999 2.99999 6.10456 2.99999 4.99999C2.99999 3.89542 3.89542 2.99999 4.99999 2.99999C6.10456 2.99999 6.99999 3.89542 6.99999 4.99999Z" stroke="black" stroke-width="2" stroke-linecap="round" stroke-linejoin="round"/>
</g>
<defs>
<clipPath id="clip0_119_1875">
<rect width="24" height="24" fill="white"/>
</clipPath>
</defs>
</svg>
