<svg width="24" height="24" viewBox="0 0 24 24" fill="none" xmlns="http://www.w3.org/2000/svg">
<path d="M20.5 10C20.1335 9.99277 19.773 9.90501 19.4442 9.74295C19.1154 9.58089 18.8262 9.34849 18.5972 9.06223C18.3682 8.77597 18.205 8.44285 18.119 8.08647C18.0331 7.7301 18.0266 7.35918 18.1 7.00001H18C17.482 7.00546 16.9717 6.87441 16.5204 6.62003C16.0691 6.36565 15.6928 5.99692 15.4292 5.55092C15.1657 5.10493 15.0242 4.5974 15.0191 4.07938C15.014 3.56137 15.1453 3.05114 15.4 2.60001C13.3091 1.83556 11.0229 1.79068 8.90365 2.47248C6.78438 3.15427 4.95321 4.52376 3.70027 6.36396C2.44734 8.20416 1.84429 10.4098 1.98667 12.6315C2.12904 14.8532 3.00871 16.9639 4.48629 18.6291C5.96387 20.2943 7.95487 21.4188 10.1438 21.8245C12.3328 22.2302 14.5946 21.8939 16.5708 20.8688C18.547 19.8437 20.1246 18.1885 21.0537 16.1654C21.9828 14.1423 22.2102 11.867 21.7 9.70001C21.4 9.90001 20.9 10 20.5 10Z" stroke="black" stroke-width="2" stroke-linecap="round" stroke-linejoin="round"/>
<path d="M12 15C13.6569 15 15 13.6569 15 12C15 10.3432 13.6569 9.00001 12 9.00001C10.3431 9.00001 9 10.3432 9 12C9 13.6569 10.3431 15 12 15Z" stroke="black" stroke-width="2" stroke-linecap="round" stroke-linejoin="round"/>
</svg>
