<svg width="24" height="24" viewBox="0 0 24 24" fill="none" xmlns="http://www.w3.org/2000/svg">
<path d="M12.99 6.74L14.92 10.18M19.136 12C18.2052 12.948 17.0947 13.7011 15.8696 14.2151C14.6444 14.7292 13.3291 14.994 12.0005 14.994C10.6719 14.994 9.35657 14.7292 8.13142 14.2151C6.90627 13.7011 5.79584 12.948 4.865 12M21 21L18.84 17.16M3 21L11.02 6.74M14 5C14 6.10457 13.1046 7 12 7C10.8954 7 10 6.10457 10 5C10 3.89543 10.8954 3 12 3C13.1046 3 14 3.89543 14 5Z" stroke="black" stroke-width="2" stroke-linecap="round" stroke-linejoin="round"/>
</svg>
