<svg width="24" height="24" viewBox="0 0 24 24" fill="none" xmlns="http://www.w3.org/2000/svg">
<path d="M7.00001 3.34V5C7.00001 5.79565 7.31608 6.55871 7.87869 7.12132C8.4413 7.68393 9.20436 8 10 8M11 21.95V18C11 17.4696 10.7893 16.9609 10.4142 16.5858C10.0391 16.2107 9.53044 16 9.00001 16C8.46957 16 7.96087 15.7893 7.58579 15.4142C7.21072 15.0391 7.00001 14.5304 7.00001 14V13C7.00001 12.4696 6.78929 11.9609 6.41422 11.5858C6.03915 11.2107 5.53044 11 5.00001 11H2.05001M15 21.54V17C15 16.4696 15.2107 15.9609 15.5858 15.5858C15.9609 15.2107 16.4696 15 17 15H21.54C20.9855 16.7631 19.9533 18.338 18.5579 19.55C17.1625 20.7619 15.4586 21.5634 13.6352 21.8655C11.8118 22.1676 9.94042 21.9585 8.22872 21.2614C6.51702 20.5642 5.032 19.4064 3.93854 17.9163C2.84507 16.4263 2.18594 14.6623 2.03432 12.8204C1.8827 10.9784 2.24453 9.1304 3.07962 7.4816C3.91472 5.83281 5.19042 4.4477 6.76509 3.48007C8.33976 2.51243 10.1518 2.00011 12 2M20 6V4C20 3.46957 19.7893 2.96086 19.4142 2.58579C19.0391 2.21071 18.5304 2 18 2C17.4696 2 16.9609 2.21071 16.5858 2.58579C16.2107 2.96086 16 3.46957 16 4V6M15 6H21C21.5523 6 22 6.44772 22 7V10C22 10.5523 21.5523 11 21 11H15C14.4477 11 14 10.5523 14 10V7C14 6.44772 14.4477 6 15 6Z" stroke="black" stroke-width="2" stroke-linecap="round" stroke-linejoin="round"/>
</svg>
