<svg width="24" height="24" viewBox="0 0 24 24" fill="none" xmlns="http://www.w3.org/2000/svg">
<path d="M21.54 15H17C16.4696 15 15.9609 15.2107 15.5858 15.5858C15.2107 15.9609 15 16.4696 15 17V21.54M7 3.34V5C7 5.79565 7.31607 6.55871 7.87868 7.12132C8.44129 7.68393 9.20435 8 10 8C10.5304 8 11.0391 8.21071 11.4142 8.58579C11.7893 8.96086 12 9.46957 12 10C12 11.1 12.9 12 14 12C14.5304 12 15.0391 11.7893 15.4142 11.4142C15.7893 11.0391 16 10.5304 16 10C16 8.9 16.9 8 18 8H21.17M11 21.95V18C11 17.4696 10.7893 16.9609 10.4142 16.5858C10.0391 16.2107 9.53043 16 9 16C8.46957 16 7.96086 15.7893 7.58579 15.4142C7.21071 15.0391 7 14.5304 7 14V13C7 12.4696 6.78929 11.9609 6.41421 11.5858C6.03914 11.2107 5.53043 11 5 11H2.05M22 12C22 17.5228 17.5228 22 12 22C6.47715 22 2 17.5228 2 12C2 6.47715 6.47715 2 12 2C17.5228 2 22 6.47715 22 12Z" stroke="black" stroke-width="2" stroke-linecap="round" stroke-linejoin="round"/>
</svg>
