<svg width="24" height="24" viewBox="0 0 24 24" fill="none" xmlns="http://www.w3.org/2000/svg">
<path d="M2.06199 12.348C1.97865 12.1235 1.97865 11.8765 2.06199 11.652C2.87369 9.68385 4.2515 8.00103 6.02076 6.81689C7.79001 5.63275 9.87103 5.00061 12 5.00061C14.1289 5.00061 16.21 5.63275 17.9792 6.81689C19.7485 8.00103 21.1263 9.68385 21.938 11.652C22.0213 11.8765 22.0213 12.1235 21.938 12.348C21.1263 14.3161 19.7485 15.999 17.9792 17.1831C16.21 18.3672 14.1289 18.9994 12 18.9994C9.87103 18.9994 7.79001 18.3672 6.02076 17.1831C4.2515 15.999 2.87369 14.3161 2.06199 12.348Z" stroke="black" stroke-width="2" stroke-linecap="round" stroke-linejoin="round"/>
<path d="M12 15C13.6568 15 15 13.6568 15 12C15 10.3431 13.6568 8.99999 12 8.99999C10.3431 8.99999 8.99999 10.3431 8.99999 12C8.99999 13.6568 10.3431 15 12 15Z" stroke="black" stroke-width="2" stroke-linecap="round" stroke-linejoin="round"/>
</svg>
