<svg width="24" height="24" viewBox="0 0 24 24" fill="none" xmlns="http://www.w3.org/2000/svg">
<path d="M12 12V12.01M10.827 16.379C9.77915 16.9085 8.60044 17.1234 7.43314 16.9978C6.26583 16.8722 5.15984 16.4114 4.24864 15.6711C3.33744 14.9308 2.66 13.9425 2.29807 12.8257C1.93614 11.7088 1.90521 10.5111 2.209 9.377L7.621 10.827C7.09147 9.77915 6.87655 8.60044 7.00216 7.43314C7.12777 6.26583 7.58856 5.15984 8.32889 4.24864C9.06923 3.33744 10.0575 2.66 11.1743 2.29807C12.2912 1.93614 13.4889 1.90521 14.623 2.209L13.173 7.621C14.2208 7.09147 15.3996 6.87655 16.5669 7.00216C17.7342 7.12777 18.8402 7.58856 19.7514 8.32889C20.6626 9.06923 21.34 10.0575 21.7019 11.1743C22.0638 12.2912 22.0948 13.4889 21.791 14.623L16.379 13.173C16.9085 14.2208 17.1234 15.3996 16.9978 16.5669C16.8722 17.7342 16.4114 18.8402 15.6711 19.7514C14.9308 20.6626 13.9425 21.34 12.8257 21.7019C11.7088 22.0638 10.5111 22.0948 9.377 21.791L10.827 16.379Z" stroke="black" stroke-width="2" stroke-linecap="round" stroke-linejoin="round"/>
</svg>
