<svg width="24" height="24" viewBox="0 0 24 24" fill="none" xmlns="http://www.w3.org/2000/svg">
<path d="M16 8.00001L2 22M17.5 15H9M12.67 19C12.9331 18.9999 13.1936 18.948 13.4366 18.8471C13.6796 18.7462 13.9003 18.5983 14.086 18.412L20.24 12.24C21.3658 11.1142 21.9983 9.58719 21.9983 7.99501C21.9983 6.40282 21.3658 4.87585 20.24 3.75001C19.1142 2.62416 17.5872 1.99167 15.995 1.99167C14.4028 1.99167 12.8758 2.62416 11.75 3.75001L5.586 9.914C5.2109 10.289 5.00011 10.7976 5 11.328V18C5 18.2652 5.10536 18.5196 5.29289 18.7071C5.48043 18.8946 5.73478 19 6 19H12.67Z" stroke="black" stroke-width="2" stroke-linecap="round" stroke-linejoin="round"/>
</svg>
