<svg width="24" height="24" viewBox="0 0 24 24" fill="none" xmlns="http://www.w3.org/2000/svg">
<path d="M12 14C13.1046 14 14 13.1046 14 12C14 10.8954 13.1046 10 12 10C10.8954 10 10 10.8954 10 12C10 13.1046 10.8954 14 12 14ZM12 14L9 22M12 14L15 22M12 2V6M6.8 15L3.3 17M20.7 7L17.2 9M6.8 9L3.3 7M20.7 17L17.2 15M8 22H16M18 18.7C19.3586 17.4849 20.3162 15.8858 20.7461 14.1145C21.176 12.3432 21.0579 10.4831 20.4076 8.7804C19.7572 7.07766 18.6051 5.61253 17.1038 4.57888C15.6025 3.54524 13.8227 2.9918 12 2.9918C10.1773 2.9918 8.39751 3.54524 6.89621 4.57888C5.39491 5.61253 4.24284 7.07766 3.59245 8.7804C2.94206 10.4831 2.82401 12.3432 3.25392 14.1145C3.68382 15.8858 4.64142 17.4849 6 18.7" stroke="black" stroke-width="2" stroke-linecap="round" stroke-linejoin="round"/>
</svg>
