<svg width="24" height="24" viewBox="0 0 24 24" fill="none" xmlns="http://www.w3.org/2000/svg">
<path d="M4 22H18C18.5304 22 19.0391 21.7893 19.4142 21.4142C19.7893 21.0391 20 20.5304 20 20V7L15 2H6C5.46957 2 4.96086 2.21071 4.58578 2.58579C4.21071 2.96086 4 3.46957 4 4V6M14 2V6C14 6.53043 14.2107 7.03914 14.5858 7.41421C14.9609 7.78929 15.4696 8 16 8H20M10.29 10.7C9.94841 10.3589 9.51298 10.1273 9.03923 10.0347C8.56548 9.94209 8.07488 9.99267 7.63 10.18C7.34 10.3 7.07 10.48 6.85 10.71L6.5 11.05L6.15 10.71C5.81037 10.3693 5.37723 10.137 4.90547 10.0426C4.43371 9.94828 3.94456 9.99609 3.5 10.18C3.2 10.3 2.94 10.48 2.71 10.71C1.76 11.65 1.71 13.24 2.91 14.45L6.5 18L10.1 14.45C11.3 13.24 11.24 11.65 10.29 10.71V10.7Z" stroke="black" stroke-width="2" stroke-linecap="round" stroke-linejoin="round"/>
</svg>
