<svg width="24" height="24" viewBox="0 0 24 24" fill="none" xmlns="http://www.w3.org/2000/svg">
<path d="M14 2V6C14 6.53043 14.2107 7.03914 14.5858 7.41421C14.9609 7.78929 15.4696 8 16 8H20M16 22H18C18.5304 22 19.0391 21.7893 19.4142 21.4142C19.7893 21.0391 20 20.5304 20 20V7L15 2H6.00001C5.46958 2 4.96087 2.21071 4.5858 2.58579C4.21072 2.96086 4.00001 3.46957 4.00001 4V7.5M4.01701 11.512C3.40538 12.0548 2.91116 12.7169 2.5647 13.4576C2.21824 14.1983 2.02685 15.002 2.00228 15.8194C1.97771 16.6368 2.12049 17.4506 2.42184 18.2108C2.72319 18.9709 3.17675 19.6615 3.75468 20.2401C4.3326 20.8186 5.02269 21.2729 5.78256 21.5751C6.54244 21.8772 7.35606 22.0209 8.17346 21.9972C8.99086 21.9735 9.79479 21.7829 10.5359 21.4372C11.277 21.0916 11.9396 20.5981 12.483 19.987M9.00001 16C8.73479 16 8.48044 15.8946 8.2929 15.7071C8.10537 15.5196 8.00001 15.2652 8.00001 15V11C8.00001 10.448 8.45001 9.992 8.99501 10.083C10.2253 10.2899 11.3605 10.8751 12.2427 11.7573C13.1249 12.6395 13.7101 13.7747 13.917 15.005C14.008 15.549 13.552 16 13 16H9.00001Z" stroke="black" stroke-width="2" stroke-linecap="round" stroke-linejoin="round"/>
</svg>
