<svg width="24" height="24" viewBox="0 0 24 24" fill="none" xmlns="http://www.w3.org/2000/svg">
<path d="M18 5L15.586 2.586C15.211 2.2109 14.7024 2.00011 14.172 2H6C5.46957 2 4.96086 2.21071 4.58579 2.58579C4.21071 2.96086 4 3.46957 4 4V20C4 20.5304 4.21071 21.0391 4.58579 21.4142C4.96086 21.7893 5.46957 22 6 22H18C18.5304 22 19.0391 21.7893 19.4142 21.4142C19.7893 21.0391 20 20.5304 20 20M8 18H9M21.378 12.626C21.7764 12.2276 22.0001 11.6874 22.0001 11.124C22.0001 10.5606 21.7764 10.0204 21.378 9.622C20.9796 9.22364 20.4394 8.99985 19.876 8.99985C19.3126 8.99985 18.7724 9.22364 18.374 9.622L14.364 13.634C14.1262 13.8716 13.9522 14.1653 13.858 14.488L13.021 17.358C12.9959 17.444 12.9944 17.5353 13.0166 17.6221C13.0389 17.7089 13.0841 17.7882 13.1474 17.8516C13.2108 17.9149 13.2901 17.9601 13.3769 17.9824C13.4637 18.0046 13.555 18.0031 13.641 17.978L16.511 17.141C16.8337 17.0468 17.1274 16.8728 17.365 16.635L21.378 12.626Z" stroke="black" stroke-width="2" stroke-linecap="round" stroke-linejoin="round"/>
</svg>
