<svg width="24" height="24" viewBox="0 0 24 24" fill="none" xmlns="http://www.w3.org/2000/svg">
<path d="M14.5 22H18C18.5304 22 19.0391 21.7893 19.4142 21.4142C19.7893 21.0391 20 20.5304 20 20V7L15 2H6C5.46957 2 4.96086 2.21071 4.58579 2.58579C4.21072 2.96086 4 3.46957 4 4V8M14 2V6C14 6.53043 14.2107 7.03914 14.5858 7.41421C14.9609 7.78929 15.4696 8 16 8H20M7 17V22M7 17L11.7 14.2M7 17L2.3 14.2M3 13.1C2.69182 13.2779 2.43668 13.5348 2.2609 13.8441C2.08511 14.1535 1.99505 14.5042 2 14.86V18.1C1.98842 18.4562 2.07224 18.809 2.24278 19.122C2.41332 19.4349 2.66439 19.6966 2.97 19.88L6 21.7C6.30669 21.8827 6.65668 21.9799 7.01364 21.9817C7.3706 21.9835 7.72153 21.8896 8.03 21.71L11 19.9C11.3082 19.7221 11.5633 19.4652 11.7391 19.1559C11.9149 18.8465 12.005 18.4958 12 18.14V14.9C12.0116 14.5438 11.9278 14.191 11.7572 13.878C11.5867 13.5651 11.3356 13.3034 11.03 13.12L8 11.3C7.69332 11.1173 7.34333 11.0201 6.98637 11.0183C6.6294 11.0165 6.27847 11.1104 5.97 11.29L3 13.1Z" stroke="black" stroke-width="2" stroke-linecap="round" stroke-linejoin="round"/>
</svg>
