<svg width="24" height="24" viewBox="0 0 24 24" fill="none" xmlns="http://www.w3.org/2000/svg">
<path d="M12 10C11.4696 10 10.9609 10.2107 10.5858 10.5858C10.2107 10.9609 10 11.4696 10 12C10 13.02 9.9 14.51 9.74 16M14 13.12C14 15.5 14 19.5 13 22M17.29 21.02C17.41 20.42 17.72 18.72 17.79 18M2 12C2 9.90118 2.66037 7.85555 3.88758 6.1529C5.11478 4.45024 6.8466 3.17687 8.83772 2.51317C10.8288 1.84946 12.9783 1.82906 14.9817 2.45486C16.985 3.08067 18.7407 4.32094 20 6M2 16H2.01M21.8 16C22 14 21.931 10.646 21.8 10M5 19.5C5.5 18 6 15 6 12C5.99899 11.3189 6.11397 10.6425 6.34 10M8.65 22C8.86 21.34 9.1 20.68 9.22 20M9 6.8C9.9124 6.27323 10.9474 5.99598 12.001 5.99615C13.0545 5.99632 14.0894 6.2739 15.0017 6.80096C15.9139 7.32803 16.6713 8.086 17.1976 8.99865C17.7239 9.9113 18.0007 10.9465 18 12V14" stroke="black" stroke-width="2" stroke-linecap="round" stroke-linejoin="round"/>
</svg>
