<svg width="24" height="24" viewBox="0 0 24 24" fill="none" xmlns="http://www.w3.org/2000/svg">
<path d="M9 20H4C3.46957 20 2.96086 19.7893 2.58579 19.4142C2.21071 19.0391 2 18.5304 2 18V5C2 4.46957 2.21071 3.96086 2.58579 3.58579C2.96086 3.21071 3.46957 3 4 3H7.9C8.23449 2.99672 8.56445 3.07739 8.8597 3.23462C9.15495 3.39185 9.40604 3.62063 9.59 3.9L10.4 5.1C10.5821 5.37653 10.83 5.60352 11.1215 5.7606C11.413 5.91769 11.7389 5.99995 12.07 6H20C20.5304 6 21.0391 6.21071 21.4142 6.58579C21.7893 6.96086 22 7.46957 22 8V8.5M12 10V14M12 14H16M12 14L13.535 12.395C14.109 11.8433 14.8065 11.4367 15.5694 11.2089C16.3323 10.9812 17.1386 10.9389 17.9211 11.0856C18.7037 11.2324 19.4399 11.5638 20.0684 12.0525C20.697 12.5411 21.1998 13.1728 21.535 13.895M22 22V18M22 18H18M22 18L20.465 19.605C19.891 20.1567 19.1935 20.5633 18.4306 20.7911C17.6677 21.0188 16.8614 21.0611 16.0789 20.9144C15.2963 20.7676 14.5601 20.4362 13.9316 19.9475C13.303 19.4589 12.8002 18.8272 12.465 18.105" stroke="black" stroke-width="2" stroke-linecap="round" stroke-linejoin="round"/>
</svg>
