<svg width="24" height="24" viewBox="0 0 24 24" fill="none" xmlns="http://www.w3.org/2000/svg">
<path d="M10 20H4C3.46957 20 2.96086 19.7893 2.58579 19.4142C2.21071 19.0391 2 18.5304 2 18V5C2 4.46956 2.21071 3.96086 2.58579 3.58578C2.96086 3.21071 3.46957 3 4 3H7.9C8.23449 2.99672 8.56445 3.07739 8.8597 3.23462C9.15495 3.39185 9.40604 3.62062 9.59 3.9L10.4 5.1C10.5821 5.37653 10.83 5.60352 11.1215 5.7606C11.413 5.91768 11.7389 5.99994 12.07 6H20C20.5304 6 21.0391 6.21071 21.4142 6.58578C21.7893 6.96086 22 7.46956 22 8V10.5M20 17V15C20 14.4696 19.7893 13.9609 19.4142 13.5858C19.0391 13.2107 18.5304 13 18 13C17.4696 13 16.9609 13.2107 16.5858 13.5858C16.2107 13.9609 16 14.4696 16 15V17M15 17H21C21.5523 17 22 17.4477 22 18V21C22 21.5523 21.5523 22 21 22H15C14.4477 22 14 21.5523 14 21V18C14 17.4477 14.4477 17 15 17Z" stroke="black" stroke-width="2" stroke-linecap="round" stroke-linejoin="round"/>
</svg>
