<svg width="24" height="24" viewBox="0 0 24 24" fill="none" xmlns="http://www.w3.org/2000/svg">
<path d="M10.3 20H4C3.46957 20 2.96086 19.7893 2.58579 19.4142C2.21071 19.0391 2 18.5304 2 18V5C2 4.46956 2.21071 3.96086 2.58579 3.58578C2.96086 3.21071 3.46957 3 4 3H7.9C8.23449 2.99672 8.56445 3.07739 8.8597 3.23462C9.15495 3.39185 9.40604 3.62062 9.59 3.9L10.4 5.1C10.5821 5.37653 10.83 5.60352 11.1215 5.7606C11.413 5.91768 11.7389 5.99994 12.07 6H20C20.5304 6 21.0391 6.21071 21.4142 6.58578C21.7893 6.96086 22 7.46956 22 8V11.3M21.7 19.4L20.8 19.1M15.2 16.9L14.3 16.6M16.6 21.7L16.9 20.8M19.1 15.2L19.4 14.3M19.6 21.7L19.2 20.7M16.8 15.3L16.4 14.3M14.3 19.6L15.3 19.2M20.7 16.8L21.7 16.4M21 18C21 19.6569 19.6569 21 18 21C16.3431 21 15 19.6569 15 18C15 16.3431 16.3431 15 18 15C19.6569 15 21 16.3431 21 18Z" stroke="black" stroke-width="2" stroke-linecap="round" stroke-linejoin="round"/>
</svg>
