<svg width="24" height="24" viewBox="0 0 24 24" fill="none" xmlns="http://www.w3.org/2000/svg">
<path d="M2 11.5V5C2 4.46957 2.21071 3.96086 2.58579 3.58579C2.96086 3.21071 3.46957 3 4 3H7.9C8.6 3 9.2 3.3 9.6 3.9L10.4 5.1C10.8 5.7 11.4 6 12.1 6H20C20.5304 6 21.0391 6.21071 21.4142 6.58579C21.7893 6.96086 22 7.46957 22 8V18C22 18.5304 21.7893 19.0391 21.4142 19.4142C21.0391 19.7893 20.5304 20 20 20H10.5M11.378 13.626C11.5752 13.4288 11.7317 13.1946 11.8385 12.9369C11.9452 12.6792 12.0001 12.4029 12.0001 12.124C12.0001 11.8451 11.9452 11.5688 11.8385 11.3111C11.7317 11.0534 11.5752 10.8192 11.378 10.622C11.1808 10.4248 10.9466 10.2683 10.6889 10.1615C10.4312 10.0548 10.1549 9.99985 9.876 9.99985C9.59705 9.99985 9.32084 10.0548 9.06312 10.1615C8.80541 10.2683 8.57125 10.4248 8.374 10.622L3.364 15.634C3.12625 15.8716 2.95222 16.1653 2.858 16.488L2.021 19.358C1.9959 19.444 1.9944 19.5353 2.01664 19.6221C2.03889 19.7089 2.08407 19.7882 2.14745 19.8516C2.21083 19.9149 2.29008 19.9601 2.37691 19.9824C2.46374 20.0046 2.55495 20.0031 2.641 19.978L5.511 19.141C5.83367 19.0468 6.12738 18.8728 6.365 18.635L11.378 13.626Z" stroke="black" stroke-width="2" stroke-linecap="round" stroke-linejoin="round"/>
</svg>
