<svg width="24" height="24" viewBox="0 0 24 24" fill="none" xmlns="http://www.w3.org/2000/svg">
<path d="M11 20H4C3.46957 20 2.96086 19.7893 2.58579 19.4142C2.21071 19.0391 2 18.5304 2 18V5C2 4.46956 2.21071 3.96086 2.58579 3.58578C2.96086 3.21071 3.46957 3 4 3H7.9C8.23449 2.99672 8.56445 3.07739 8.8597 3.23462C9.15495 3.39185 9.40604 3.62062 9.59 3.9L10.4 5.1C10.5821 5.37653 10.83 5.60352 11.1215 5.7606C11.413 5.91768 11.7389 5.99994 12.07 6H20C20.5304 6 21.0391 6.21071 21.4142 6.58578C21.7893 6.96086 22 7.46956 22 8V9.5M13.9 17.45C12.7 16.25 12.76 14.65 13.7 13.72C13.9257 13.4938 14.1938 13.3144 14.4889 13.192C14.7841 13.0696 15.1005 13.0065 15.42 13.0065C15.7395 13.0065 16.0559 13.0696 16.3511 13.192C16.6462 13.3144 16.9143 13.4938 17.14 13.72L17.5 14.06L17.84 13.72C18.0652 13.4917 18.3334 13.3102 18.6291 13.186C18.9248 13.0618 19.2422 12.9974 19.5629 12.9965C19.8836 12.9956 20.2014 13.0581 20.4978 13.1806C20.7942 13.3031 21.0635 13.483 21.29 13.71C22.24 14.66 22.29 16.24 21.09 17.45L17.5 21L13.9 17.45Z" stroke="black" stroke-width="2" stroke-linecap="round" stroke-linejoin="round"/>
</svg>
