<svg width="24" height="24" viewBox="0 0 24 24" fill="none" xmlns="http://www.w3.org/2000/svg">
<path d="M16 17H20M4 13H8M4 16V13.62C4 11.5 2.97 10.5 3 8C3.03 5.28 4.49 2 7.5 2C9.37 2 10 3.8 10 5.5C10 8.61 8 11.16 8 14.18V16C8 16.5304 7.78929 17.0391 7.41422 17.4142C7.03914 17.7893 6.53043 18 6 18C5.46957 18 4.96086 17.7893 4.58579 17.4142C4.21072 17.0391 4 16.5304 4 16ZM20 20V17.62C20 15.5 21.03 14.5 21 12C20.97 9.28 19.51 6 16.5 6C14.63 6 14 7.8 14 9.5C14 12.61 16 15.16 16 18.18V20C16 20.5304 16.2107 21.0391 16.5858 21.4142C16.9609 21.7893 17.4696 22 18 22C18.5304 22 19.0391 21.7893 19.4142 21.4142C19.7893 21.0391 20 20.5304 20 20Z" stroke="black" stroke-width="2" stroke-linecap="round" stroke-linejoin="round"/>
</svg>
