<svg width="24" height="24" viewBox="0 0 24 24" fill="none" xmlns="http://www.w3.org/2000/svg">
<path d="M12 13V2L20 6L12 10M20.561 10.222C21.0932 11.8621 21.1429 13.6206 20.7044 15.2882C20.266 16.9559 19.3576 18.4624 18.0876 19.6287C16.8175 20.7949 15.2391 21.5718 13.5402 21.8668C11.8414 22.1619 10.0935 21.9626 8.50456 21.2929C6.91564 20.6231 5.55256 19.511 4.57749 18.0889C3.60242 16.6668 3.05641 14.9945 3.00441 13.2709C2.95242 11.5474 3.39663 9.84522 4.2842 8.36689C5.17178 6.88856 6.46534 5.69631 8.011 4.932M8.002 9.997C7.50091 10.664 7.17468 11.4458 7.05304 12.2712C6.93141 13.0966 7.01823 13.9392 7.3056 14.7224C7.59297 15.5057 8.07176 16.2045 8.69833 16.7554C9.3249 17.3062 10.0793 17.6915 10.8929 17.8762C11.7065 18.0608 12.5534 18.039 13.3563 17.8126C14.1593 17.5862 14.8929 17.1625 15.4902 16.5801C16.0875 15.9977 16.5296 15.275 16.7762 14.478C17.0228 13.681 17.066 12.835 16.902 12.017" stroke="black" stroke-width="2" stroke-linecap="round" stroke-linejoin="round"/>
</svg>
