<svg width="24" height="24" viewBox="0 0 24 24" fill="none" xmlns="http://www.w3.org/2000/svg">
<path d="M22 5V2L16.11 7.89M19.6 15.89C19.6 17.5469 18.2569 18.89 16.6 18.89C14.9431 18.89 13.6 17.5469 13.6 15.89C13.6 14.2331 14.9431 12.89 16.6 12.89C18.2569 12.89 19.6 14.2331 19.6 15.89ZM11.11 7.4C11.11 9.05685 9.76685 10.4 8.11 10.4C6.45315 10.4 5.11 9.05685 5.11 7.4C5.11 5.74315 6.45315 4.4 8.11 4.4C9.76685 4.4 11.11 5.74315 11.11 7.4ZM15.35 11.65C15.35 13.3069 14.0069 14.65 12.35 14.65C10.6931 14.65 9.35 13.3069 9.35 11.65C9.35 9.99315 10.6931 8.65 12.35 8.65C14.0069 8.65 15.35 9.99315 15.35 11.65ZM16.91 5.85C16.91 7.50685 15.5669 8.85 13.91 8.85C12.2531 8.85 10.91 7.50685 10.91 5.85C10.91 4.19315 12.2531 2.85 13.91 2.85C15.5669 2.85 16.91 4.19315 16.91 5.85ZM21.15 10.09C21.15 11.7469 19.8069 13.09 18.15 13.09C16.4931 13.09 15.15 11.7469 15.15 10.09C15.15 8.43315 16.4931 7.09 18.15 7.09C19.8069 7.09 21.15 8.43315 21.15 10.09ZM9.56 13.2C9.56 14.8569 8.21685 16.2 6.56 16.2C4.90315 16.2 3.56 14.8569 3.56 13.2C3.56 11.5431 4.90315 10.2 6.56 10.2C8.21685 10.2 9.56 11.5431 9.56 13.2ZM13.8 17.44C13.8 19.0969 12.4569 20.44 10.8 20.44C9.14315 20.44 7.8 19.0969 7.8 17.44C7.8 15.7831 9.14315 14.44 10.8 14.44C12.4569 14.44 13.8 15.7831 13.8 17.44ZM8 19C8 20.6569 6.65685 22 5 22C3.34315 22 2 20.6569 2 19C2 17.3431 3.34315 16 5 16C6.65685 16 8 17.3431 8 19Z" stroke="black" stroke-width="2" stroke-linecap="round" stroke-linejoin="round"/>
</svg>
