<svg width="24" height="24" viewBox="0 0 24 24" fill="none" xmlns="http://www.w3.org/2000/svg">
<path d="M11.5 13C11.7761 13 12 12.7761 12 12.5C12 12.2239 11.7761 12 11.5 12C11.2239 12 11 12.2239 11 12.5C11 12.7761 11.2239 13 11.5 13Z" fill="black"/>
<path d="M11.9 12.1L16.414 7.586M16.414 7.586C16.7891 7.21102 16.9999 6.70239 17 6.172V4.828C17.0001 4.29761 17.2109 3.78899 17.586 3.414L18.7 2.3C18.8869 2.11678 19.1382 2.01414 19.4 2.01414C19.6618 2.01414 19.9131 2.11678 20.1 2.3L21.7 3.9C21.8832 4.08693 21.9859 4.33825 21.9859 4.6C21.9859 4.86175 21.8832 5.11307 21.7 5.3L20.586 6.414C20.211 6.7891 19.7024 6.99989 19.172 7H17.828C17.2976 7.00012 16.789 7.2109 16.414 7.586ZM6 16L8 18M8.2 9.9C8.7 8.8 9.8 8 11 8C13.8 8 16 10.2 16 13C16 14.2 15.2 15.3 14.1 15.8L13.2 16.2C12.8484 16.3534 12.5484 16.6046 12.3356 16.9238C12.1229 17.2429 12.0064 17.6165 12 18C12 19.0609 11.5786 20.0783 10.8284 20.8284C10.0783 21.5786 9.06087 22 8 22C4.7 22 2 19.3 2 16C2 14.9391 2.42143 13.9217 3.17157 13.1716C3.92172 12.4214 4.93913 12 6 12C6.38351 11.9936 6.75711 11.8771 7.07625 11.6644C7.39539 11.4516 7.64663 11.1516 7.8 10.8L8.2 9.9ZM12 12.5C12 12.7761 11.7761 13 11.5 13C11.2239 13 11 12.7761 11 12.5C11 12.2239 11.2239 12 11.5 12C11.7761 12 12 12.2239 12 12.5Z" stroke="black" stroke-width="2" stroke-linecap="round" stroke-linejoin="round"/>
</svg>
