<svg width="24" height="24" viewBox="0 0 24 24" fill="none" xmlns="http://www.w3.org/2000/svg">
<path d="M13.144 21.144C14.114 20.174 14.9415 19.0804 15.5791 17.9258C16.2168 16.7711 16.6521 15.5779 16.8604 14.4143C17.0686 13.2508 17.0456 12.1396 16.7927 11.1443C16.5398 10.149 16.062 9.28906 15.3865 8.61354C14.7109 7.93802 13.851 7.46017 12.8557 7.20728C11.8604 6.95439 10.7492 6.9314 9.58566 7.13963C8.4221 7.34786 7.22892 7.78323 6.07424 8.42089C4.91957 9.05854 3.82601 9.88599 2.856 10.856M13.144 21.144C13.9627 20.3253 14.2059 18.9982 13.8201 17.4546C13.4343 15.9111 12.4511 14.2774 11.0868 12.9132C9.72256 11.5489 8.08894 10.5657 6.54536 10.1799C5.00178 9.79413 3.67468 10.0373 2.856 10.856M13.144 21.144C12.3253 21.9627 10.9982 22.2059 9.45465 21.8201C7.91107 21.4343 6.27745 20.4511 4.91318 19.0868C3.54891 17.7226 2.56573 16.0889 2.17993 14.5454C1.79414 13.0018 2.03733 11.6747 2.856 10.856M16.565 10.435L18.6 8.4C18.9177 8.57603 19.2699 8.68075 19.6322 8.70689C19.9944 8.73302 20.358 8.67995 20.6977 8.55135C21.0373 8.42276 21.3449 8.22172 21.599 7.96223C21.8532 7.70274 22.0477 7.39102 22.1692 7.04873C22.2906 6.70645 22.3361 6.34182 22.3023 5.98019C22.2686 5.61856 22.1566 5.26862 21.9739 4.95469C21.7913 4.64076 21.5424 4.37037 21.2447 4.16233C20.947 3.95429 20.6076 3.81358 20.25 3.75C20.18 3.39786 20.035 3.06492 19.8248 2.77385C19.6146 2.48278 19.3441 2.2404 19.0319 2.0632C18.7196 1.88599 18.3728 1.77813 18.0152 1.74694C17.6575 1.71575 17.2973 1.76197 16.9591 1.88245C16.6209 2.00293 16.3126 2.19485 16.0552 2.44514C15.7977 2.69544 15.5973 2.99824 15.4674 3.33295C15.3375 3.66766 15.2812 4.02643 15.3023 4.38484C15.3235 4.74325 15.4216 5.0929 15.59 5.41L13.566 7.435M8.5 16.5L7.5 15.5" stroke="black" stroke-width="2" stroke-linecap="round" stroke-linejoin="round"/>
</svg>
