<svg width="24" height="24" viewBox="0 0 24 24" fill="none" xmlns="http://www.w3.org/2000/svg">
<path d="M15 12L6.627 20.373C6.22917 20.7708 5.68961 20.9943 5.127 20.9943C4.56439 20.9943 4.02482 20.7708 3.627 20.373C3.22917 19.9752 3.00568 19.4356 3.00568 18.873C3.00568 18.3104 3.22917 17.7708 3.627 17.373L12 9M18 15L22 11M21.5 11.5L19.586 9.586C19.2109 9.21101 19.0001 8.70239 19 8.172V7L16.74 4.74C15.6245 3.62518 14.115 2.99436 12.538 2.984L9 2.96L9.92 3.78C10.5735 4.35939 11.0967 5.0707 11.4552 5.86704C11.8137 6.66338 11.9994 7.52667 12 8.4V10L14 12H15.172C15.7024 12.0001 16.211 12.2109 16.586 12.586L18.5 14.5" stroke="black" stroke-width="2" stroke-linecap="round" stroke-linejoin="round"/>
</svg>
