<svg width="24" height="24" viewBox="0 0 24 24" fill="none" xmlns="http://www.w3.org/2000/svg">
<path d="M18 12.5V10C18 9.46957 17.7893 8.96086 17.4142 8.58579C17.0391 8.21071 16.5304 8 16 8C15.4696 8 14.9609 8.21071 14.5858 8.58579C14.2107 8.96086 14 9.46957 14 10V11.4M14 11V9C14 8.46957 13.7893 7.96086 13.4142 7.58579C13.0391 7.21071 12.5304 7 12 7C11.4696 7 10.9609 7.21071 10.5858 7.58579C10.2107 7.96086 10 8.46957 10 9V11M10 10.5V5C10 4.46957 9.78928 3.96086 9.41421 3.58579C9.03914 3.21071 8.53043 3 8 3C7.46956 3 6.96086 3.21071 6.58578 3.58579C6.21071 3.96086 6 4.46957 6 5V14M7 15L5.24 13.24C4.86016 12.8946 4.36204 12.7085 3.84877 12.7202C3.3355 12.7319 2.84639 12.9406 2.48272 13.303C2.11904 13.6653 1.90866 14.1537 1.89512 14.6669C1.88158 15.1802 2.06593 15.6789 2.41 16.06L6.01 19.66C7.5 21.14 9.2 22 12 22H14C16.1217 22 18.1566 21.1571 19.6569 19.6569C21.1571 18.1566 22 16.1217 22 14V7C22 6.46957 21.7893 5.96086 21.4142 5.58579C21.0391 5.21071 20.5304 5 20 5C19.4696 5 18.9609 5.21071 18.5858 5.58579C18.2107 5.96086 18 6.46957 18 7V12" stroke="black" stroke-width="2" stroke-linecap="round" stroke-linejoin="round"/>
</svg>
