<svg width="24" height="24" viewBox="0 0 24 24" fill="none" xmlns="http://www.w3.org/2000/svg">
<path d="M18 11V6C18 5.46957 17.7893 4.96086 17.4142 4.58579C17.0392 4.21071 16.5304 4 16 4C15.4696 4 14.9609 4.21071 14.5858 4.58579C14.2107 4.96086 14 5.46957 14 6M14 10V4C14 3.46957 13.7893 2.96086 13.4142 2.58579C13.0392 2.21071 12.5304 2 12 2C11.4696 2 10.9609 2.21071 10.5858 2.58579C10.2107 2.96086 10 3.46957 10 4V6M10 6V10.5M10 6C10 5.46957 9.7893 4.96086 9.41422 4.58579C9.03915 4.21071 8.53044 4 8.00001 4C7.46958 4 6.96087 4.21071 6.5858 4.58579C6.21073 4.96086 6.00001 5.46957 6.00001 6V14M18 8C18 7.46957 18.2107 6.96086 18.5858 6.58579C18.9609 6.21071 19.4696 6 20 6C20.5304 6 21.0392 6.21071 21.4142 6.58579C21.7893 6.96086 22 7.46957 22 8V14C22 16.1217 21.1572 18.1566 19.6569 19.6569C18.1566 21.1571 16.1217 22 14 22H12C9.20001 22 7.50001 21.14 6.01001 19.66L2.41001 16.06C2.06595 15.6789 1.8816 15.1802 1.89514 14.6669C1.90867 14.1537 2.11906 13.6653 2.48273 13.303C2.84641 12.9406 3.33551 12.7319 3.84878 12.7202C4.36205 12.7085 4.86018 12.8946 5.24001 13.24L7.00001 15" stroke="black" stroke-width="2" stroke-linecap="round" stroke-linejoin="round"/>
</svg>
