<svg width="24" height="24" viewBox="0 0 24 24" fill="none" xmlns="http://www.w3.org/2000/svg">
<path d="M2 2L22 22M16.5 16.5L12 21L5 14C3.5 12.55 2 10.8 2 8.5C2.00067 7.65962 2.1939 6.83057 2.56487 6.0765C2.93584 5.32243 3.47467 4.6634 4.14 4.15M8.76 3.1C9.91 3.32 10.89 3.88 12 5C13.5 3.5 14.74 3 16.5 3C17.9587 3 19.3576 3.57946 20.3891 4.61091C21.4205 5.64236 22 7.04131 22 8.5C22 10.62 20.7 12.28 19.33 13.67" stroke="black" stroke-width="2" stroke-linecap="round" stroke-linejoin="round"/>
</svg>
