<svg width="24" height="24" viewBox="0 0 24 24" fill="none" xmlns="http://www.w3.org/2000/svg">
<path d="M10.82 16.12C12.51 16.72 14.73 16.91 16 16.97C16.28 16.98 16.53 16.88 16.7 16.7M11.14 20.57C11.66 20.81 13.58 21.69 15.22 21.94C15.68 22 16.08 21.69 16.12 21.23C16.24 19.71 15.82 17.8 15.62 16.95M16.13 21.05C17.78 21.68 19.81 21.89 21 21.96C21.1285 21.9693 21.2575 21.9509 21.3782 21.906C21.499 21.8612 21.6087 21.7909 21.7 21.7M17.99 5.52C19.234 6.87437 20.2932 8.38753 21.14 10.02C21.1938 10.1382 21.218 10.2676 21.2106 10.3972C21.2031 10.5268 21.1643 10.6527 21.0973 10.7639C21.0304 10.8752 20.9374 10.9684 20.8264 11.0357C20.7153 11.103 20.5896 11.1422 20.46 11.15C19.29 11.25 17.96 11.17 16.56 10.9M20.57 11.14C20.81 11.66 21.69 13.58 21.94 15.22C21.98 15.52 21.86 15.81 21.63 15.97M4.93 4.93C3.17718 6.68318 2.13807 9.02494 2.01427 11.501C1.89047 13.977 2.69081 16.4107 4.26 18.33C4.61 18.76 5.22 18.73 5.43 18.21C6.12 16.5 6.5 13.14 6.5 11.5C7.84 11.95 9.6 12.4 11.38 12.12C11.5617 12.0939 11.7301 12.0097 11.86 11.88M5.52 17.99C6.57 18.94 8.43 20.41 10.02 21.14C10.1382 21.1938 10.2676 21.218 10.3972 21.2106C10.5268 21.2031 10.6527 21.1643 10.7639 21.0973C10.8752 21.0304 10.9684 20.9374 11.0357 20.8264C11.103 20.7153 11.1422 20.5896 11.15 20.46C11.35 18.12 10.82 15.16 9.58 12.18M8.35 2.68C10.004 2.0335 11.8003 1.83911 13.5542 2.11679C15.3082 2.39448 16.9566 3.13422 18.33 4.26C18.76 4.61 18.73 5.22 18.21 5.43C16.71 6.03 13.91 6.41 12.14 6.48M2 2L22 22" stroke="black" stroke-width="2" stroke-linecap="round" stroke-linejoin="round"/>
</svg>
