<svg width="24" height="24" viewBox="0 0 24 24" fill="none" xmlns="http://www.w3.org/2000/svg">
<path d="M10.82 16.12C12.51 16.72 14.73 16.91 16 16.97C16.55 17 17 16.55 16.97 16C16.91 14.73 16.71 12.5 16.12 10.82M15.62 16.95C15.82 17.8 16.24 19.71 16.12 21.23C16.1118 21.3371 16.0814 21.4412 16.0306 21.5358C15.9797 21.6304 15.9097 21.7133 15.825 21.7792C15.7402 21.8452 15.6426 21.8926 15.5384 21.9186C15.4342 21.9446 15.3258 21.9484 15.22 21.93C13.8069 21.6551 12.4354 21.1979 11.14 20.57M16.13 21.05C17.78 21.68 19.81 21.89 21 21.96C21.1284 21.9689 21.2571 21.9501 21.3776 21.905C21.4981 21.8599 21.6076 21.7895 21.6985 21.6985C21.7895 21.6076 21.8599 21.4981 21.905 21.3776C21.9501 21.2571 21.9689 21.1284 21.96 21C21.89 19.3425 21.587 17.7031 21.06 16.13M16.94 15.62C17.8 15.82 19.71 16.24 21.23 16.12C21.3371 16.1118 21.4412 16.0814 21.5358 16.0306C21.6304 15.9797 21.7133 15.9097 21.7792 15.825C21.8452 15.7402 21.8926 15.6426 21.9186 15.5384C21.9445 15.4342 21.9484 15.3258 21.93 15.22C21.6551 13.8069 21.1979 12.4354 20.57 11.14M17.99 5.52C19.2341 6.8743 20.2933 8.38746 21.14 10.02C21.1938 10.1382 21.218 10.2676 21.2106 10.3972C21.2031 10.5268 21.1643 10.6527 21.0973 10.7639C21.0304 10.8752 20.9374 10.9684 20.8264 11.0357C20.7153 11.103 20.5896 11.1422 20.46 11.15C18.13 11.35 15.16 10.83 12.19 9.58M4.92999 4.93L2.99999 3C2.93348 2.93482 2.88063 2.85703 2.84455 2.77117C2.80848 2.68532 2.78989 2.59313 2.78989 2.5C2.78989 2.40687 2.80848 2.31468 2.84455 2.22883C2.88063 2.14297 2.93348 2.06518 2.99999 2M9.57999 12.18C10.82 15.16 11.35 18.13 11.15 20.46C11.1422 20.5896 11.103 20.7153 11.0357 20.8264C10.9684 20.9374 10.8752 21.0304 10.7639 21.0973C10.6527 21.1643 10.5268 21.2031 10.3972 21.2106C10.2676 21.218 10.1382 21.1938 10.02 21.14C8.38746 20.2933 6.87429 19.2341 5.51999 17.99M11.5 6.5C13.14 6.5 16.5 6.12 18.21 5.43C18.73 5.23 18.76 4.61 18.33 4.26C16.4103 2.69378 13.9776 1.89593 11.5033 2.02104C9.02891 2.14616 6.68908 3.18534 4.93721 4.93722C3.18534 6.68909 2.14616 9.02891 2.02104 11.5033C1.89592 13.9776 2.69378 16.4103 4.25999 18.33C4.60999 18.76 5.21999 18.73 5.42999 18.21C6.11999 16.5 6.49999 13.14 6.49999 11.5C7.83999 11.95 9.6 12.4 11.38 12.12C11.5645 12.0902 11.7347 12.0023 11.8659 11.8693C11.9972 11.7363 12.0827 11.5649 12.11 11.38C12.41 9.24 11.96 7.88 11.5 6.5Z" stroke="black" stroke-width="2" stroke-linecap="round" stroke-linejoin="round"/>
</svg>
