<svg width="24" height="24" viewBox="0 0 24 24" fill="none" xmlns="http://www.w3.org/2000/svg">
<path d="M13.22 2.416C12.8579 2.13721 12.4113 1.99082 11.9544 2.00119C11.4976 2.01156 11.0581 2.17807 10.709 2.473L3.709 8.472C3.4868 8.6598 3.30824 8.89381 3.18579 9.15772C3.06333 9.42163 2.99993 9.70907 3 10V19C3 19.5304 3.21071 20.0391 3.58579 20.4142C3.96086 20.7893 4.46957 21 5 21H19C19.5304 21 20.0391 20.7893 20.4142 20.4142C20.7893 20.0391 21 19.5304 21 19V11.646M15 21V13C15 12.7348 14.8946 12.4804 14.7071 12.2929C14.5196 12.1054 14.2652 12 14 12H10C9.73478 12 9.48043 12.1054 9.29289 12.2929C9.10536 12.4804 9 12.7348 9 13V21M15 6H21M18 3V9" stroke="black" stroke-width="2" stroke-linecap="round" stroke-linejoin="round"/>
</svg>
