<svg width="24" height="24" viewBox="0 0 24 24" fill="none" xmlns="http://www.w3.org/2000/svg">
<path d="M8 21H16M12 18V21M5.14 11C4.9848 10.4777 4.95367 9.92642 5.0491 9.38999C5.14454 8.85356 5.36389 8.34681 5.6897 7.91011C6.01551 7.4734 6.43877 7.11879 6.9258 6.8745C7.41282 6.63022 7.95015 6.50302 8.495 6.50302C9.03985 6.50302 9.57718 6.63022 10.0642 6.8745C10.5512 7.11879 10.9745 7.4734 11.3003 7.91011C11.6261 8.34681 11.8455 8.85356 11.9409 9.38999C12.0363 9.92642 12.0052 10.4777 11.85 11M12.14 11C11.9848 10.4777 11.9537 9.92642 12.0491 9.38999C12.1445 8.85356 12.3639 8.34681 12.6897 7.91011C13.0155 7.4734 13.4388 7.11879 13.9258 6.8745C14.4128 6.63022 14.9501 6.50302 15.495 6.50302C16.0399 6.50302 16.5772 6.63022 17.0642 6.8745C17.5512 7.11879 17.9745 7.4734 18.3003 7.91011C18.6261 8.34681 18.8455 8.85356 18.9409 9.38999C19.0363 9.92642 19.0052 10.4777 18.85 11M15.5 6.5C15.5 6.04037 15.4095 5.58525 15.2336 5.16061C15.0577 4.73597 14.7999 4.35013 14.4749 4.02513C14.1499 3.70012 13.764 3.44231 13.3394 3.26642C12.9148 3.09053 12.4596 3 12 3C11.5404 3 11.0852 3.09053 10.6606 3.26642C10.236 3.44231 9.85013 3.70012 9.52513 4.02513C9.20012 4.35013 8.94231 4.73597 8.76642 5.16061C8.59053 5.58525 8.5 6.04037 8.5 6.5M12 17C17 17 20 14.31 20 11H4C4 14.31 7 17 12 17Z" stroke="black" stroke-width="2" stroke-linecap="round" stroke-linejoin="round"/>
</svg>
