<svg width="24" height="24" viewBox="0 0 24 24" fill="none" xmlns="http://www.w3.org/2000/svg">
<path d="M2 2L22 22M10.41 10.41C10.2242 10.5958 10.0036 10.7432 9.76079 10.8438C9.51801 10.9444 9.25779 10.9961 8.995 10.9961C8.73221 10.9961 8.47199 10.9444 8.22921 10.8438C7.98642 10.7432 7.76582 10.5958 7.58 10.41C7.39418 10.2242 7.24678 10.0036 7.14621 9.76079C7.04565 9.51801 6.99389 9.25779 6.99389 8.995C6.99389 8.73221 7.04565 8.47199 7.14621 8.22921C7.24678 7.98642 7.39418 7.76582 7.58 7.58M13.5 13.5L6 21M18 12L21 15V5C21 4.46957 20.7893 3.96086 20.4142 3.58579C20.0391 3.21071 19.5304 3 19 3H9M3.59 3.59C3.40358 3.77454 3.25548 3.99412 3.15423 4.2361C3.05298 4.47808 3.00056 4.73769 3 5V19C3 19.5304 3.21071 20.0391 3.58579 20.4142C3.96086 20.7893 4.46957 21 5 21H19C19.55 21 20.052 20.78 20.41 20.41" stroke="black" stroke-width="2" stroke-linecap="round" stroke-linejoin="round"/>
</svg>
