<svg width="24" height="24" viewBox="0 0 24 24" fill="none" xmlns="http://www.w3.org/2000/svg">
<path d="M11 16L6 21M11 21H5C4.46957 21 3.96086 20.7893 3.58579 20.4142C3.21071 20.0391 3 19.5304 3 19V5C3 4.46957 3.21071 3.96086 3.58579 3.58579C3.96086 3.21071 4.46957 3 5 3H19C19.5304 3 20.0391 3.21071 20.4142 3.58579C20.7893 3.96086 21 4.46957 21 5V11.5M15.765 22C15.6893 22.0473 15.6023 22.0735 15.5131 22.0758C15.4239 22.0782 15.3357 22.0566 15.2576 22.0133C15.1796 21.9701 15.1145 21.9067 15.0692 21.8298C15.0239 21.7529 15 21.6653 15 21.576V13.38C15 13.2907 15.0239 13.2031 15.0692 13.1262C15.1145 13.0493 15.1796 12.9859 15.2576 12.9427C15.3357 12.8994 15.4239 12.8778 15.5131 12.8802C15.6023 12.8825 15.6893 12.9087 15.765 12.956L21.643 16.63C21.7868 16.7199 21.9054 16.8449 21.9876 16.9932C22.0699 17.1416 22.113 17.3084 22.113 17.478C22.113 17.6476 22.0699 17.8144 21.9876 17.9628C21.9054 18.1111 21.7868 18.2361 21.643 18.326L15.765 22ZM11 9C11 10.1046 10.1046 11 9 11C7.89543 11 7 10.1046 7 9C7 7.89543 7.89543 7 9 7C10.1046 7 11 7.89543 11 9Z" stroke="black" stroke-width="2" stroke-linecap="round" stroke-linejoin="round"/>
</svg>
