<svg width="24" height="24" viewBox="0 0 24 24" fill="none" xmlns="http://www.w3.org/2000/svg">
<path d="M14 7L17 10M9.4 10.6L2.586 17.414C2.2109 17.789 2.00011 18.2976 2 18.828V21C2 21.2652 2.10536 21.5196 2.29289 21.7071C2.48043 21.8946 2.73478 22 3 22H6C6.26522 22 6.51957 21.8946 6.70711 21.7071C6.89464 21.5196 7 21.2652 7 21V20C7 19.7348 7.10536 19.4804 7.29289 19.2929C7.48043 19.1054 7.73478 19 8 19H9C9.26522 19 9.51957 18.8946 9.70711 18.7071C9.89464 18.5196 10 18.2652 10 18V17C10 16.7348 10.1054 16.4804 10.2929 16.2929C10.4804 16.1054 10.7348 16 11 16H11.172C11.7024 15.9999 12.211 15.7891 12.586 15.414L13.4 14.6M12.4 2.70001C12.8623 2.27127 13.4695 2.03304 14.1 2.03304C14.7305 2.03304 15.3377 2.27127 15.8 2.70001L21.3 8.2C21.7287 8.66229 21.967 9.26951 21.967 9.9C21.967 10.5305 21.7287 11.1377 21.3 11.6L17.6 15.3C17.1377 15.7287 16.5305 15.967 15.9 15.967C15.2695 15.967 14.6623 15.7287 14.2 15.3L8.7 9.8C8.27126 9.33772 8.03303 8.7305 8.03303 8.10001C8.03303 7.46951 8.27126 6.86229 8.7 6.40001L12.4 2.70001Z" stroke="black" stroke-width="2" stroke-linecap="round" stroke-linejoin="round"/>
</svg>
