<svg width="24" height="24" viewBox="0 0 24 24" fill="none" xmlns="http://www.w3.org/2000/svg">
<g clip-path="url(#clip0_119_2523)">
<path d="M16.02 12L21.5 15.13C21.6539 15.2172 21.7819 15.3437 21.871 15.4965C21.96 15.6494 22.007 15.8231 22.007 16C22.007 16.1769 21.96 16.3506 21.871 16.5035C21.7819 16.6563 21.6539 16.7828 21.5 16.87L13 21.74C12.696 21.9155 12.3511 22.0079 12 22.0079C11.6489 22.0079 11.304 21.9155 11 21.74L2.5 16.87C2.3461 16.7828 2.2181 16.6563 2.12904 16.5035C2.03998 16.3506 1.99305 16.1769 1.99305 16C1.99305 15.8231 2.03998 15.6494 2.12904 15.4965C2.2181 15.3437 2.3461 15.2172 2.5 15.13L7.98 12M13 13.74C12.696 13.9155 12.3511 14.0079 12 14.0079C11.6489 14.0079 11.304 13.9155 11 13.74L2.5 8.87C2.3461 8.78278 2.2181 8.6563 2.12904 8.50346C2.03998 8.35062 1.99305 8.17689 1.99305 8C1.99305 7.82311 2.03998 7.64938 2.12904 7.49654C2.2181 7.3437 2.3461 7.21722 2.5 7.13L11 2.26C11.304 2.08446 11.6489 1.99205 12 1.99205C12.3511 1.99205 12.696 2.08446 13 2.26L21.5 7.13C21.6539 7.21722 21.7819 7.3437 21.871 7.49654C21.96 7.64938 22.007 7.82311 22.007 8C22.007 8.17689 21.96 8.35062 21.871 8.50346C21.7819 8.6563 21.6539 8.78278 21.5 8.87L13 13.74Z" stroke="black" stroke-width="2" stroke-linecap="round" stroke-linejoin="round"/>
</g>
<defs>
<clipPath id="clip0_119_2523">
<rect width="24" height="24" fill="white"/>
</clipPath>
</defs>
</svg>
