<svg width="24" height="24" viewBox="0 0 24 24" fill="none" xmlns="http://www.w3.org/2000/svg">
<path d="M6.08 9.50001L2.58 11.1C2.4082 11.1808 2.26294 11.3087 2.16119 11.469C2.05944 11.6293 2.00541 11.8152 2.00541 12.005C2.00541 12.1948 2.05944 12.3807 2.16119 12.541C2.26294 12.7013 2.4082 12.8292 2.58 12.91L11.18 16.82C11.4392 16.9374 11.7205 16.9981 12.005 16.9981C12.2895 16.9981 12.5708 16.9374 12.83 16.82L21.41 12.92C21.5875 12.8418 21.7383 12.7136 21.8442 12.5511C21.9502 12.3887 22.0065 12.1989 22.0065 12.005C22.0065 11.8111 21.9502 11.6213 21.8442 11.4589C21.7383 11.2964 21.5875 11.1682 21.41 11.09L17.91 9.50001M6.08 14.5L2.58 16.1C2.4082 16.1808 2.26294 16.3087 2.16119 16.469C2.05944 16.6293 2.00541 16.8152 2.00541 17.005C2.00541 17.1948 2.05944 17.3807 2.16119 17.541C2.26294 17.7013 2.4082 17.8292 2.58 17.91L11.18 21.82C11.4392 21.9374 11.7205 21.9981 12.005 21.9981C12.2895 21.9981 12.5708 21.9374 12.83 21.82L21.41 17.92C21.5875 17.8418 21.7383 17.7136 21.8442 17.5511C21.9502 17.3887 22.0065 17.1989 22.0065 17.005C22.0065 16.8111 21.9502 16.6213 21.8442 16.4589C21.7383 16.2964 21.5875 16.1682 21.41 16.09L17.91 14.5M12.83 2.18001C12.5694 2.06115 12.2864 1.99965 12 1.99965C11.7136 1.99965 11.4306 2.06115 11.17 2.18001L2.6 6.08001C2.42255 6.15825 2.27168 6.2864 2.16576 6.44886C2.05985 6.61132 2.00345 6.80107 2.00345 6.99501C2.00345 7.18894 2.05985 7.37869 2.16576 7.54115C2.27168 7.70361 2.42255 7.83176 2.6 7.91001L11.18 11.82C11.4406 11.9389 11.7236 12.0004 12.01 12.0004C12.2964 12.0004 12.5794 11.9389 12.84 11.82L21.42 7.92001C21.5975 7.84176 21.7483 7.71361 21.8542 7.55115C21.9602 7.38869 22.0165 7.19894 22.0165 7.00501C22.0165 6.81107 21.9602 6.62132 21.8542 6.45886C21.7483 6.2964 21.5975 6.16825 21.42 6.09001L12.83 2.18001Z" stroke="black" stroke-width="2" stroke-linecap="round" stroke-linejoin="round"/>
</svg>
