<svg width="24" height="24" viewBox="0 0 24 24" fill="none" xmlns="http://www.w3.org/2000/svg">
<path d="M1.99999 22C3.24999 21.013 4.26999 20.025 5.89999 19.8C7.31111 19.7997 8.66956 20.3359 9.69999 21.3C10.2347 21.6746 10.853 21.9126 11.5009 21.9932C12.1488 22.0739 12.8066 21.9947 13.4169 21.7626C14.0271 21.5305 14.5713 21.1526 15.0018 20.6618C15.4324 20.171 15.7363 19.5823 15.887 18.947C16.5358 19.0627 17.2041 18.9928 17.8149 18.7454C18.4258 18.4981 18.9544 18.0833 19.3399 17.5488C19.7255 17.0142 19.9522 16.3817 19.9942 15.724C20.0361 15.0663 19.8915 14.4101 19.577 13.831C20.1502 13.6458 20.666 13.3158 21.0743 12.8728C21.4827 12.4299 21.7698 11.8891 21.9078 11.3027C22.0459 10.7163 22.0303 10.1042 21.8625 9.52559C21.6947 8.947 21.3804 8.42152 20.95 7.99999C21.275 7.67497 21.5328 7.28912 21.7087 6.86445C21.8846 6.43979 21.9752 5.98464 21.9752 5.52499C21.9752 5.06534 21.8846 4.61019 21.7087 4.18553C21.5328 3.76087 21.275 3.37502 20.95 3.04999C20.625 2.72497 20.2391 2.46715 19.8144 2.29125C19.3898 2.11535 18.9346 2.02482 18.475 2.02482C17.5467 2.02482 16.6564 2.39358 16 3.04999C15.5785 2.6196 15.053 2.3053 14.4744 2.13749C13.8958 1.96969 13.2837 1.95407 12.6973 2.09215C12.1109 2.23022 11.5701 2.51732 11.1271 2.92565C10.6842 3.33399 10.3542 3.84974 10.169 4.42299C9.58983 4.10847 8.93365 3.96386 8.27595 4.0058C7.61824 4.04773 6.98574 4.27451 6.45122 4.66004C5.91671 5.04557 5.5019 5.57418 5.25454 6.18504C5.00718 6.79589 4.93732 7.46418 5.05298 8.11299C4.42324 8.26636 3.8402 8.57045 3.35404 8.9991C2.86788 9.42776 2.49317 9.96813 2.26216 10.5737C2.03114 11.1793 1.95074 11.8319 2.02788 12.4755C2.10502 13.119 2.33739 13.7342 2.70498 14.268C3.49898 15.42 4.40898 16.712 4.19998 18.1C3.92598 19.743 3.01399 20.732 1.99999 22ZM1.99999 22L17 6.99999" stroke="black" stroke-width="2" stroke-linecap="round" stroke-linejoin="round"/>
</svg>
