<svg width="24" height="24" viewBox="0 0 24 24" fill="none" xmlns="http://www.w3.org/2000/svg">
<path d="M16 12H19C19.4221 12.0001 19.8334 11.8667 20.1751 11.6188C20.5167 11.3709 20.7712 11.0213 20.902 10.62L21.958 7.287C22.0027 7.13769 22.012 6.97999 21.9849 6.82649C21.9579 6.67298 21.8953 6.52793 21.8022 6.4029C21.7092 6.27786 21.5882 6.17632 21.4489 6.10637C21.3096 6.03641 21.1559 5.99999 21 6H3.00001C2.84414 5.99999 2.69043 6.03641 2.55114 6.10637C2.41185 6.17632 2.29084 6.27786 2.19778 6.4029C2.10471 6.52793 2.04215 6.67298 2.01511 6.82649C1.98806 6.97999 1.99727 7.13769 2.04201 7.287L3.09801 10.621C3.22903 11.0221 3.48356 11.3715 3.82519 11.6192C4.16682 11.8669 4.57804 12.0002 5.00001 12H8.00001M18 6V3C18 2.73478 17.8947 2.48043 17.7071 2.29289C17.5196 2.10536 17.2652 2 17 2H14M9.00001 10H15C15.5523 10 16 10.4477 16 11V21C16 21.5523 15.5523 22 15 22H9.00001C8.44772 22 8.00001 21.5523 8.00001 21V11C8.00001 10.4477 8.44772 10 9.00001 10Z" stroke="black" stroke-width="2" stroke-linecap="round" stroke-linejoin="round"/>
</svg>
