<svg width="24" height="24" viewBox="0 0 24 24" fill="none" xmlns="http://www.w3.org/2000/svg">
<path d="M16.8 11.2C17.6 10.3 18 9.2 18 8C17.998 6.91781 17.7034 5.85629 17.1473 4.9279C16.5912 3.9995 15.7944 3.23879 14.8412 2.72633C13.888 2.21387 12.814 1.96875 11.7329 2.01693C10.6518 2.06511 9.60381 2.40479 8.7 3M2 2L22 22M6.3 6.3C5.94488 7.18555 5.86952 8.15863 6.08405 9.08829C6.29859 10.018 6.79274 10.8596 7.5 11.5C8.2 12.2 8.8 13 9 14M9 18H15M10 22H14" stroke="black" stroke-width="2" stroke-linecap="round" stroke-linejoin="round"/>
</svg>
