<svg width="24" height="24" viewBox="0 0 24 24" fill="none" xmlns="http://www.w3.org/2000/svg">
<path d="M2 12C2 9.2 4.2 7 7 7C9.8 7 12 9.2 12 12M2 12C2 17.5228 6.47715 22 12 22C17.5228 22 22 17.5228 22 12M2 12C2 6.47715 6.47715 2 12 2C17.5228 2 22 6.47715 22 12M12 12C12 14.8 14.2 17 17 17C19.8 17 22 14.8 22 12M12 12C10.8463 11.337 9.47648 11.1594 8.19185 11.5063C6.90723 11.8533 5.81304 12.6963 5.15 13.85C4.48696 15.0037 4.30938 16.3735 4.65632 17.6581C5.00326 18.9428 5.84631 20.037 7 20.7M12 12C12.5647 12.3283 13.1885 12.5422 13.8358 12.6294C14.4832 12.7166 15.1414 12.6755 15.7728 12.5083C16.4042 12.3412 16.9966 12.0513 17.516 11.6552C18.0354 11.2592 18.4717 10.7647 18.8 10.2C19.1283 9.63532 19.3422 9.0115 19.4294 8.36416C19.5166 7.71682 19.4755 7.05865 19.3083 6.42721C19.1412 5.79577 18.8513 5.20344 18.4552 4.68403C18.0592 4.16462 17.5647 3.7283 17 3.4M7 3.3C8.14043 2.63696 9.49754 2.45411 10.7728 2.79167C12.048 3.12924 13.137 3.95957 13.8 5.1C14.463 6.24043 14.6459 7.59754 14.3083 8.87279C13.9708 10.148 13.1404 11.237 12 11.9C10.8596 12.563 10.0292 13.652 9.69167 14.9272C9.35411 16.2025 9.53696 17.5596 10.2 18.7C10.863 19.8404 11.952 20.6708 13.2272 21.0083C14.5025 21.3459 15.8596 21.163 17 20.5" stroke="black" stroke-width="2" stroke-linecap="round" stroke-linejoin="round"/>
</svg>
