<svg width="24" height="24" viewBox="0 0 24 24" fill="none" xmlns="http://www.w3.org/2000/svg">
<path d="M7 10V7C7.00005 5.89937 7.36326 4.8295 8.03329 3.95633C8.70333 3.08315 9.64276 2.45546 10.7059 2.17059C11.769 1.88572 12.8964 1.9596 13.9133 2.38077C14.9302 2.80193 15.7796 3.54685 16.33 4.5M13 16C13 16.5523 12.5523 17 12 17C11.4477 17 11 16.5523 11 16C11 15.4477 11.4477 15 12 15C12.5523 15 13 15.4477 13 16ZM5 10H19C20.1046 10 21 10.8954 21 12V20C21 21.1046 20.1046 22 19 22H5C3.89543 22 3 21.1046 3 20V12C3 10.8954 3.89543 10 5 10Z" stroke="black" stroke-width="2" stroke-linecap="round" stroke-linejoin="round"/>
</svg>
