<svg width="24" height="24" viewBox="0 0 24 24" fill="none" xmlns="http://www.w3.org/2000/svg">
<path d="M7.21 15L2.66 7.14C2.4638 6.80087 2.37153 6.41159 2.39464 6.02048C2.41775 5.62937 2.55523 5.25366 2.79 4.94L4.4 2.8C4.58629 2.55161 4.82786 2.35 5.10557 2.21115C5.38328 2.07229 5.68951 2 6 2H18C18.3105 2 18.6167 2.07229 18.8944 2.21115C19.1721 2.35 19.4137 2.55161 19.6 2.8L21.2 4.94C21.4363 5.25265 21.5756 5.62784 21.6005 6.01897C21.6254 6.4101 21.5348 6.79992 21.34 7.14L16.79 15M11 12L5.12 2.2M13 12L18.88 2.2M8 7H16M12 18V16H11.5M17 17C17 19.7614 14.7614 22 12 22C9.23857 22 7 19.7614 7 17C7 14.2386 9.23857 12 12 12C14.7614 12 17 14.2386 17 17Z" stroke="black" stroke-width="2" stroke-linecap="round" stroke-linejoin="round"/>
</svg>
