<svg width="24" height="24" viewBox="0 0 24 24" fill="none" xmlns="http://www.w3.org/2000/svg">
<path d="M11.6 16.8C11.4949 17.1808 11.3159 17.5372 11.0731 17.8489C10.8303 18.1605 10.5285 18.4213 10.1849 18.6163C9.84135 18.8113 9.46273 18.9367 9.07068 18.9854C8.67863 19.0341 8.28083 19.0051 7.9 18.9C7.51917 18.7949 7.16275 18.6159 6.85111 18.3731C6.53947 18.1303 6.27871 17.8285 6.0837 17.4849C5.8887 17.1413 5.76328 16.7627 5.7146 16.3707C5.66592 15.9786 5.69494 15.5808 5.8 15.2M3 11L21 6V18L3 14V11Z" stroke="black" stroke-width="2" stroke-linecap="round" stroke-linejoin="round"/>
</svg>
