<svg width="24" height="24" viewBox="0 0 24 24" fill="none" xmlns="http://www.w3.org/2000/svg">
<path d="M15.8 9.19999C15.3327 8.74192 14.7044 8.48534 14.05 8.48534C13.3956 8.48534 12.7673 8.74192 12.3 9.19999L12 9.59999L11.65 9.29999C11.4207 9.05185 11.1421 8.85446 10.8319 8.72053C10.5218 8.58659 10.1871 8.51907 9.84925 8.52232C9.51144 8.52557 9.17805 8.5995 8.87054 8.73938C8.56303 8.87925 8.28821 9.08195 8.06377 9.33445C7.83933 9.58694 7.67024 9.88363 7.56739 10.2054C7.46453 10.5272 7.43019 10.867 7.46657 11.2028C7.50296 11.5387 7.60925 11.8632 7.77863 12.1555C7.948 12.4478 8.1767 12.7014 8.45 12.9L12.05 16.4L15.65 12.9C16.85 11.7 16.75 10.2 15.85 9.19999M7.9 20C9.80858 20.979 12.0041 21.2442 14.0909 20.7478C16.1777 20.2513 18.0186 19.0258 19.2818 17.2922C20.545 15.5585 21.1474 13.4307 20.9806 11.2921C20.8137 9.1536 19.8886 7.14496 18.3718 5.62818C16.855 4.1114 14.8464 3.18624 12.7078 3.0194C10.5693 2.85257 8.44147 3.45503 6.70782 4.71823C4.97417 5.98143 3.74869 7.8223 3.25222 9.9091C2.75575 11.9959 3.02094 14.1914 4 16.1L2 22L7.9 20Z" stroke="black" stroke-width="2" stroke-linecap="round" stroke-linejoin="round"/>
</svg>
