<svg width="24" height="24" viewBox="0 0 24 24" fill="none" xmlns="http://www.w3.org/2000/svg">
<path d="M13.5 3.1C13 3.1 12.5 3 12 3C11.5 3 11 3.1 10.5 3.1M19.3 6.8C18.7035 6.00359 17.9964 5.29645 17.2 4.7M20.9 13.5C21 13 21 12.5 21 12C21 11.5 20.9 11 20.9 10.5M17.2 19.3C17.9964 18.7035 18.7035 17.9964 19.3 17.2M10.5 20.9C11 21 11.5 21 12 21C12.5 21 13 20.9 13.5 20.9M3.5 17.5L2 22L6.5 20.5M3.1 10.5C3.1 11 3 11.5 3 12C3 12.5 3.1 13 3.1 13.5M6.8 4.7C6.00359 5.29645 5.29645 6.00359 4.7 6.8" stroke="black" stroke-width="2" stroke-linecap="round" stroke-linejoin="round"/>
</svg>
