<svg width="24" height="24" viewBox="0 0 24 24" fill="none" xmlns="http://www.w3.org/2000/svg">
<path d="M21 15C21 15.5304 20.7893 16.0391 20.4142 16.4142C20.0391 16.7893 19.5304 17 19 17H7L3 21V5C3 4.46957 3.21071 3.96086 3.58579 3.58579C3.96086 3.21071 4.46957 3 5 3H19C19.5304 3 20.0391 3.21071 20.4142 3.58579C20.7893 3.96086 21 4.46957 21 5V15Z" stroke="black" stroke-width="2" stroke-linecap="round" stroke-linejoin="round"/>
<path d="M14.8 7.5C14.455 7.15559 13.9875 6.96215 13.5 6.96215C13.0125 6.96215 12.545 7.15559 12.2 7.5L12 7.8L11.7 7.5C11.5161 7.34241 11.3031 7.22258 11.0729 7.14735C10.8427 7.07211 10.6 7.04295 10.3586 7.06152C10.1171 7.08009 9.88174 7.14604 9.66579 7.25559C9.44984 7.36514 9.25759 7.51615 9.1 7.7C8.94241 7.88385 8.82258 8.09694 8.74735 8.3271C8.67211 8.55726 8.64295 8.79999 8.66152 9.04142C8.68009 9.28285 8.74604 9.51826 8.85559 9.73421C8.96514 9.95016 9.11615 10.1424 9.3 10.3L12 13L14.7 10.3C15.6 9.4 15.5 8.2 14.8 7.5Z" stroke="black" stroke-width="2" stroke-linecap="round" stroke-linejoin="round"/>
</svg>
