<svg width="24" height="24" viewBox="0 0 24 24" fill="none" xmlns="http://www.w3.org/2000/svg">
<path d="M2 2L22 22M18.89 13.23C18.9622 12.824 18.999 12.4124 19 12V10M5 10V12C4.97966 13.3992 5.37912 14.7723 6.14683 15.9422C6.91455 17.1121 8.01528 18.0251 9.30695 18.5633C10.5986 19.1015 12.022 19.2402 13.3932 18.9616C14.7645 18.6829 16.0208 17.9997 17 17M15 9.34V5C14.9959 4.32637 14.7653 3.67371 14.3452 3.14712C13.925 2.62053 13.3399 2.25067 12.684 2.09708C12.0281 1.9435 11.3396 2.01514 10.7294 2.30047C10.1191 2.58579 9.62271 3.0682 9.32 3.67M9 9V12C9.00052 12.593 9.17675 13.1725 9.50643 13.6653C9.83611 14.1582 10.3045 14.5423 10.8523 14.7691C11.4002 14.996 12.0029 15.0554 12.5845 14.9399C13.1661 14.8243 13.7005 14.539 14.12 14.12M12 19V22" stroke="black" stroke-width="2" stroke-linecap="round" stroke-linejoin="round"/>
</svg>
