<svg width="24" height="24" viewBox="0 0 24 24" fill="none" xmlns="http://www.w3.org/2000/svg">
<path d="M12 17V21M15.2 4.89999L14.3 4.49999M15.2 7.09999L14.3 7.49999M16.9 3.19999L16.5 2.29999M16.9 8.79999L16.5 9.69999M19.5 2.29999L19.1 3.19999M19.5 9.69999L19.1 8.79999M21.7 4.49999L20.8 4.89999M21.7 7.49999L20.8 7.09999M22 13V15C22 15.5304 21.7893 16.0391 21.4142 16.4142C21.0391 16.7893 20.5304 17 20 17H4C3.46957 17 2.96086 16.7893 2.58579 16.4142C2.21071 16.0391 2 15.5304 2 15V4.99999C2 4.46955 2.21071 3.96085 2.58579 3.58577C2.96086 3.2107 3.46957 2.99999 4 2.99999H11M8 21H16M21 5.99999C21 7.65684 19.6569 8.99999 18 8.99999C16.3431 8.99999 15 7.65684 15 5.99999C15 4.34313 16.3431 2.99999 18 2.99999C19.6569 2.99999 21 4.34313 21 5.99999Z" stroke="black" stroke-width="2" stroke-linecap="round" stroke-linejoin="round"/>
</svg>
