<svg width="24" height="24" viewBox="0 0 24 24" fill="none" xmlns="http://www.w3.org/2000/svg">
<path d="M12 17V21M8 21H16M10 7.75C10.0002 7.61679 10.036 7.48605 10.1035 7.37122C10.171 7.25639 10.2679 7.16162 10.3842 7.09665C10.5005 7.03168 10.632 6.99886 10.7652 7.00156C10.8984 7.00425 11.0284 7.04237 11.142 7.112L14.806 9.361C14.9152 9.4281 15.0054 9.52207 15.0679 9.63393C15.1305 9.7458 15.1633 9.87183 15.1633 10C15.1633 10.1282 15.1305 10.2542 15.0679 10.3661C15.0054 10.4779 14.9152 10.5719 14.806 10.639L11.142 12.889C11.0283 12.9587 10.898 12.9968 10.7647 12.9995C10.6313 13.0021 10.4997 12.9691 10.3833 12.9039C10.267 12.8387 10.1701 12.7436 10.1027 12.6285C10.0354 12.5134 9.99989 12.3824 10 12.249V7.75ZM4 3H20C21.1046 3 22 3.89543 22 5V15C22 16.1046 21.1046 17 20 17H4C2.89543 17 2 16.1046 2 15V5C2 3.89543 2.89543 3 4 3Z" stroke="black" stroke-width="2" stroke-linecap="round" stroke-linejoin="round"/>
</svg>
