<svg width="24" height="24" viewBox="0 0 24 24" fill="none" xmlns="http://www.w3.org/2000/svg">
<path d="M12 5.99999V6.34299M18.218 18.218C17.4974 19.6117 16.3294 20.7229 14.9015 21.3733C13.4736 22.0237 11.8687 22.1754 10.3442 21.8043C8.81969 21.4331 7.4641 20.5606 6.49496 19.3267C5.52582 18.0927 4.99934 16.569 5 15V8.99999C4.99953 7.88021 5.2677 6.77667 5.782 5.78199M19 13.343V8.99999C19.0003 7.77695 18.6801 6.57519 18.0714 5.51441C17.4627 4.45362 16.5866 3.57083 15.5306 2.95398C14.4745 2.33712 13.2752 2.00773 12.0522 1.99861C10.8292 1.98949 9.62516 2.30095 8.56 2.90199M22 22L2 1.99999" stroke="black" stroke-width="2" stroke-linecap="round" stroke-linejoin="round"/>
</svg>
