<svg width="24" height="24" viewBox="0 0 24 24" fill="none" xmlns="http://www.w3.org/2000/svg">
<path d="M10 15V9M14 15V9M2.586 16.872C2.2109 16.497 2.00011 15.9884 2 15.458V8.542C2.00011 8.01161 2.2109 7.50299 2.586 7.128L7.128 2.586C7.50299 2.2109 8.01161 2.00011 8.542 2H15.458C15.9884 2.00011 16.497 2.2109 16.872 2.586L21.414 7.128C21.7891 7.50299 21.9999 8.01161 22 8.542V15.458C21.9999 15.9884 21.7891 16.497 21.414 16.872L16.872 21.414C16.497 21.7891 15.9884 21.9999 15.458 22H8.542C8.01161 21.9999 7.50299 21.7891 7.128 21.414L2.586 16.872Z" stroke="black" stroke-width="2" stroke-linecap="round" stroke-linejoin="round"/>
</svg>
