<svg width="24" height="24" viewBox="0 0 24 24" fill="none" xmlns="http://www.w3.org/2000/svg">
<g clip-path="url(#clip0_119_2895)">
<path d="M10.4 21.9C12.3228 22.2159 14.2959 21.9633 16.077 21.173C17.8581 20.3827 19.3695 19.0893 20.4255 17.4518C21.4815 15.8142 22.0361 13.9037 22.0211 11.9553C22.0061 10.0068 21.4221 8.10513 20.341 6.48402M13.5 2.10002C11.5851 1.8076 9.62649 2.07763 7.86216 2.87732C6.09784 3.677 4.60375 4.9719 3.56144 6.60468C2.51914 8.23745 1.9735 10.1378 1.99082 12.0748C2.00814 14.0118 2.58767 15.9021 3.659 17.516M15 12C15 13.6569 13.6569 15 12 15C10.3431 15 9 13.6569 9 12C9 10.3432 10.3431 9.00002 12 9.00002C13.6569 9.00002 15 10.3432 15 12ZM21 5.00002C21 6.10459 20.1046 7.00002 19 7.00002C17.8954 7.00002 17 6.10459 17 5.00002C17 3.89545 17.8954 3.00002 19 3.00002C20.1046 3.00002 21 3.89545 21 5.00002ZM7 19C7 20.1046 6.10457 21 5 21C3.89543 21 3 20.1046 3 19C3 17.8954 3.89543 17 5 17C6.10457 17 7 17.8954 7 19Z" stroke="black" stroke-width="2" stroke-linecap="round" stroke-linejoin="round"/>
</g>
<defs>
<clipPath id="clip0_119_2895">
<rect width="24" height="24" fill="white"/>
</clipPath>
</defs>
</svg>
