<svg width="24" height="24" viewBox="0 0 24 24" fill="none" xmlns="http://www.w3.org/2000/svg">
<path d="M12 12V4C12 3.73478 12.1054 3.48043 12.2929 3.29289C12.4804 3.10536 12.7348 3 13 3H19.297C19.5013 3.00002 19.7007 3.0626 19.8683 3.17933C20.036 3.29606 20.1638 3.46133 20.2347 3.65291C20.3057 3.84449 20.3162 4.0532 20.2649 4.25094C20.2137 4.44869 20.1031 4.62599 19.948 4.759L15.252 8.784M12 21L4.58601 13.586C4.21091 13.211 4.00012 12.7024 4.00001 12.172V6.415C4.00099 6.21767 4.06022 6.02503 4.17027 5.86124C4.28031 5.69744 4.43626 5.56978 4.61857 5.49427C4.80088 5.41876 5.00143 5.39877 5.19506 5.43679C5.38869 5.47481 5.56679 5.56916 5.70701 5.708L20 20.009M12.214 3.381L20.628 18.347C20.7351 18.5376 20.7767 18.7581 20.7465 18.9746C20.7164 19.1912 20.6161 19.3919 20.461 19.546L19.293 20.709C19.1054 20.8956 18.8516 21.0002 18.587 21H6.35101C6.12385 21.0001 5.90342 20.9229 5.72601 20.781L3.25001 18.8C3.08772 18.6702 2.96988 18.4931 2.91288 18.2933C2.85587 18.0935 2.86253 17.8809 2.93192 17.685C3.00132 17.4892 3.13 17.3198 3.30009 17.2004C3.47017 17.0811 3.67322 17.0176 3.88101 17.019L8.04601 17.046" stroke="black" stroke-width="2" stroke-linecap="round" stroke-linejoin="round"/>
</svg>
