<svg width="24" height="24" viewBox="0 0 24 24" fill="none" xmlns="http://www.w3.org/2000/svg">
<path d="M12 22V13M20 13V16.87C20.0004 17.2474 19.8971 17.6177 19.7013 17.9405C19.5056 18.2632 19.2249 18.5259 18.89 18.7L12.89 21.78C12.6151 21.9229 12.3098 21.9975 12 21.9975C11.6902 21.9975 11.3849 21.9229 11.11 21.78L5.10999 18.7C4.77507 18.5259 4.49442 18.2632 4.29867 17.9405C4.10292 17.6177 3.9996 17.2474 3.99999 16.87V13M15.17 2.21C15.419 2.07074 15.6996 1.99762 15.985 1.99762C16.2703 1.99762 16.5509 2.07074 16.8 2.21L21 4.57C21.2974 4.7382 21.5449 4.98236 21.7171 5.27753C21.8893 5.57269 21.98 5.90828 21.98 6.25C21.98 6.59171 21.8893 6.9273 21.7171 7.22247C21.5449 7.51764 21.2974 7.7618 21 7.93L8.81999 14.79C8.57019 14.9325 8.28757 15.0074 7.99999 15.0074C7.71241 15.0074 7.42979 14.9325 7.17999 14.79L2.99999 12.43C2.70254 12.2618 2.45508 12.0176 2.2829 11.7225C2.11072 11.4273 2.01999 11.0917 2.01999 10.75C2.01999 10.4083 2.11072 10.0727 2.2829 9.77753C2.45508 9.48236 2.70254 9.2382 2.99999 9.07L15.17 2.21ZM21 12.43C21.2974 12.2618 21.5449 12.0176 21.7171 11.7225C21.8893 11.4273 21.98 11.0917 21.98 10.75C21.98 10.4083 21.8893 10.0727 21.7171 9.77753C21.5449 9.48236 21.2974 9.2382 21 9.07L8.82999 2.2C8.58187 2.05791 8.30091 1.98315 8.01499 1.98315C7.72906 1.98315 7.44811 2.05791 7.19999 2.2L2.99999 4.57C2.70254 4.7382 2.45508 4.98236 2.2829 5.27753C2.11072 5.57269 2.01999 5.90828 2.01999 6.25C2.01999 6.59171 2.11072 6.9273 2.2829 7.22247C2.45508 7.51764 2.70254 7.7618 2.99999 7.93L15.18 14.79C15.428 14.9325 15.709 15.0075 15.995 15.0075C16.281 15.0075 16.562 14.9325 16.81 14.79L21 12.43Z" stroke="black" stroke-width="2" stroke-linecap="round" stroke-linejoin="round"/>
</svg>
