<svg width="24" height="24" viewBox="0 0 24 24" fill="none" xmlns="http://www.w3.org/2000/svg">
<path d="M3 8.99999H21M3 8.99999V19C3 19.5304 3.21071 20.0391 3.58579 20.4142C3.96086 20.7893 4.46957 21 5 21H19C19.5304 21 20.0391 20.7893 20.4142 20.4142C20.7893 20.0391 21 19.5304 21 19V8.99999M3 8.99999L5.45 4.09999C5.61696 3.76864 5.87281 3.49027 6.18893 3.29601C6.50504 3.10175 6.86897 2.99926 7.24 2.99999H16.76C17.1327 2.99739 17.4988 3.09901 17.8168 3.29338C18.1349 3.48774 18.3923 3.76712 18.56 4.09999L21 8.99999M12 2.99999V8.99999" stroke="black" stroke-width="2" stroke-linecap="round" stroke-linejoin="round"/>
</svg>
