<svg width="24" height="24" viewBox="0 0 24 24" fill="none" xmlns="http://www.w3.org/2000/svg">
<path d="M14.622 17.897L3.942 14.984M9 7.99998C7.196 10.71 5.03 11.46 2.417 11.948C2.33031 11.9638 2.24925 12.0019 2.1818 12.0587C2.11435 12.1154 2.06285 12.1887 2.03236 12.2713C2.00188 12.354 1.99346 12.4432 2.00796 12.5301C2.02245 12.617 2.05934 12.6987 2.115 12.767L9.435 21.65C9.58368 21.8079 9.77966 21.9132 9.99341 21.95C10.2072 21.9868 10.4271 21.9531 10.62 21.854C12.735 20.405 16 16.792 16 15M18.376 2.62198C18.5731 2.42486 18.8071 2.26851 19.0647 2.16183C19.3222 2.05515 19.5982 2.00024 19.877 2.00024C20.1558 2.00024 20.4318 2.05515 20.6893 2.16183C20.9469 2.26851 21.1809 2.42486 21.378 2.62198C21.5751 2.81909 21.7315 3.0531 21.8382 3.31064C21.9448 3.56819 21.9997 3.84422 21.9997 4.12298C21.9997 4.40174 21.9448 4.67777 21.8382 4.93531C21.7315 5.19286 21.5751 5.42686 21.378 5.62398L17.36 9.64298C17.2663 9.73674 17.2136 9.8639 17.2136 9.99648C17.2136 10.1291 17.2663 10.2562 17.36 10.35L18.304 11.294C18.7559 11.7459 19.0097 12.3589 19.0097 12.998C19.0097 13.6371 18.7559 14.25 18.304 14.702L17.36 15.646C17.2662 15.7397 17.1391 15.7924 17.0065 15.7924C16.8739 15.7924 16.7468 15.7397 16.653 15.646L8.354 7.34798C8.26026 7.25421 8.2076 7.12706 8.2076 6.99448C8.2076 6.8619 8.26026 6.73474 8.354 6.64098L9.298 5.69698C9.74995 5.24509 10.3629 4.99123 11.002 4.99123C11.6411 4.99123 12.254 5.24509 12.706 5.69698L13.65 6.64098C13.7438 6.73471 13.8709 6.78737 14.0035 6.78737C14.1361 6.78737 14.2632 6.73471 14.357 6.64098L18.376 2.62198Z" stroke="black" stroke-width="2" stroke-linecap="round" stroke-linejoin="round"/>
</svg>
