<svg width="24" height="24" viewBox="0 0 24 24" fill="none" xmlns="http://www.w3.org/2000/svg">
<path d="M9 9.00001C9 8.20436 9.31607 7.4413 9.87868 6.87869C10.4413 6.31608 11.2044 6.00001 12 6.00001C12.7956 6.00001 13.5587 6.31608 14.1213 6.87869C14.6839 7.4413 15 8.20436 15 9.00001M12 12V15M11 15H13M12 19V22M19 9.00001C19.0047 7.97927 18.7861 6.96986 18.3595 6.04252C17.9329 5.11518 17.3087 4.29235 16.5306 3.6317C15.7525 2.97106 14.8393 2.48858 13.855 2.21809C12.8708 1.94759 11.8393 1.89563 10.8328 2.06584C9.82637 2.23605 8.86932 2.62431 8.02874 3.20342C7.18817 3.78252 6.48442 4.53845 5.96681 5.41823C5.4492 6.298 5.13026 7.28034 5.03235 8.29638C4.93444 9.31242 5.05992 10.3376 5.4 11.3C6.4 14.4 8 19 8 19H16C16 19 17.6 14.4 18.6 11.3C18.9 10.5 19 9.80001 19 9.00001Z" stroke="black" stroke-width="2" stroke-linecap="round" stroke-linejoin="round"/>
</svg>
