<svg width="24" height="24" viewBox="0 0 24 24" fill="none" xmlns="http://www.w3.org/2000/svg">
<path d="M12 20H21M16.376 3.62198C16.7741 3.22389 17.314 3.00024 17.877 3.00024C18.44 3.00024 18.9799 3.22389 19.378 3.62198C19.7761 4.02007 19.9997 4.55999 19.9997 5.12298C19.9997 5.68596 19.7761 6.22589 19.378 6.62398L7.36801 18.635C7.1301 18.8729 6.83603 19.0469 6.51301 19.141L3.64101 19.979C3.55496 20.0041 3.46375 20.0056 3.37692 19.9833C3.29009 19.9611 3.21083 19.9159 3.14745 19.8525C3.08407 19.7892 3.0389 19.7099 3.01665 19.6231C2.9944 19.5362 2.99591 19.445 3.02101 19.359L3.85901 16.487C3.95323 16.1643 4.12725 15.8706 4.36501 15.633L16.376 3.62198Z" stroke="black" stroke-width="2" stroke-linecap="round" stroke-linejoin="round"/>
</svg>
