<svg width="24" height="24" viewBox="0 0 24 24" fill="none" xmlns="http://www.w3.org/2000/svg">
<g clip-path="url(#clip0_119_2991)">
<path d="M13 6.99999L8.69999 2.69999C8.24836 2.25054 7.63714 1.99823 6.99999 1.99823C6.36283 1.99823 5.75161 2.25054 5.29999 2.69999L2.69999 5.29999C2.25054 5.75161 1.99823 6.36283 1.99823 6.99999C1.99823 7.63714 2.25054 8.24836 2.69999 8.69999L6.99999 13M7.99999 5.99999L9.99998 3.99999M18 16L20 14M17 11L21.3 15.3C22.24 16.24 22.24 17.76 21.3 18.7L18.7 21.3C17.76 22.24 16.24 22.24 15.3 21.3L11 17M15 4.99999L19 8.99999M21.174 6.81199C21.7027 6.28341 21.9998 5.56645 21.9999 4.81884C22 4.07122 21.7031 3.35419 21.1745 2.82549C20.6459 2.29678 19.929 1.9997 19.1813 1.9996C18.4337 1.99951 17.7167 2.29641 17.188 2.82499L3.84199 16.174C3.6098 16.4055 3.4381 16.6905 3.34199 17.004L2.02099 21.356C1.99514 21.4425 1.99319 21.5343 2.01534 21.6218C2.03748 21.7093 2.08291 21.7892 2.14678 21.853C2.21066 21.9168 2.29061 21.9621 2.37814 21.9841C2.46568 22.0061 2.55754 22.004 2.64399 21.978L6.99699 20.658C7.31015 20.5627 7.59516 20.3921 7.82699 20.161L21.174 6.81199Z" stroke="black" stroke-width="2" stroke-linecap="round" stroke-linejoin="round"/>
</g>
<defs>
<clipPath id="clip0_119_2991">
<rect width="24" height="24" fill="white"/>
</clipPath>
</defs>
</svg>
