<svg width="24" height="24" viewBox="0 0 24 24" fill="none" xmlns="http://www.w3.org/2000/svg">
<path d="M10 10L3.84301 16.162C3.61041 16.3944 3.43868 16.6805 3.34301 16.995L2.02101 21.355C1.99479 21.4415 1.99251 21.5335 2.01441 21.6212C2.03631 21.7089 2.08158 21.789 2.14539 21.853C2.2092 21.917 2.28918 21.9626 2.3768 21.9847C2.46442 22.0069 2.55642 22.0049 2.64301 21.979L7.00101 20.656C7.31448 20.5599 7.59951 20.3882 7.83101 20.156L14 13.982M12.829 7.172L17.188 2.826C17.4497 2.56428 17.7604 2.35666 18.1024 2.21502C18.4444 2.07338 18.8109 2.00047 19.181 2.00047C19.5511 2.00047 19.9177 2.07338 20.2596 2.21502C20.6016 2.35666 20.9123 2.56428 21.174 2.826C21.4357 3.08772 21.6433 3.39844 21.785 3.7404C21.9266 4.08236 21.9995 4.44887 21.9995 4.819C21.9995 5.18913 21.9266 5.55564 21.785 5.8976C21.6433 6.23956 21.4357 6.55027 21.174 6.812L16.821 11.165M15 5L19 9M2.00001 2L22 22" stroke="black" stroke-width="2" stroke-linecap="round" stroke-linejoin="round"/>
</svg>
