<svg width="24" height="24" viewBox="0 0 24 24" fill="none" xmlns="http://www.w3.org/2000/svg">
<path d="M1.99999 14H22M5.99999 14V18M9.99999 14V18M14 14V18M18 14V18M18.5 8.00002C17.1 8.00002 15.9 7.20002 15.3 6.00002C14.732 4.42466 13.6081 3.11103 12.1396 2.30605C10.6711 1.50106 8.95922 1.26017 7.32562 1.62865C5.69203 1.99713 4.24928 2.94961 3.26857 4.30703C2.28786 5.66446 1.83674 7.33336 1.99999 9.00002V20C1.99999 20.5305 2.21071 21.0392 2.58578 21.4142C2.96085 21.7893 3.46956 22 3.99999 22H20C20.5304 22 21.0391 21.7893 21.4142 21.4142C21.7893 21.0392 22 20.5305 22 20V11.5C22 9.60002 20.4 8.00002 18.5 8.00002Z" stroke="black" stroke-width="2" stroke-linecap="round" stroke-linejoin="round"/>
</svg>
