<svg width="24" height="24" viewBox="0 0 24 24" fill="none" xmlns="http://www.w3.org/2000/svg">
<path d="M14.531 12.469L6.619 20.38C6.22118 20.7778 5.68161 21.0013 5.119 21.0013C4.55639 21.0013 4.01683 20.7778 3.619 20.38C3.22118 19.9822 2.99768 19.4426 2.99768 18.88C2.99768 18.3174 3.22118 17.7778 3.619 17.38L11.531 9.46802M15.686 4.31402C14.1763 3.37351 12.4832 2.76604 10.7199 2.5322C8.95659 2.29836 7.1637 2.44353 5.461 2.95802C5.30942 3.05452 5.18664 3.19008 5.10557 3.35045C5.02451 3.51082 4.98815 3.69007 5.00033 3.86935C5.0125 4.04863 5.07276 4.22132 5.17477 4.36925C5.27678 4.51719 5.41676 4.6349 5.58 4.71002C7.8574 5.48785 9.99176 6.63407 11.898 8.10302M19.686 8.31402C20.6265 9.82379 21.2339 11.5169 21.4677 13.2801C21.7016 15.0434 21.5564 16.8363 21.042 18.539C20.9454 18.6904 20.8099 18.8129 20.6497 18.8938C20.4894 18.9747 20.3103 19.011 20.1312 18.9988C19.9521 18.9866 19.7796 18.9264 19.6317 18.8246C19.4839 18.7228 19.3662 18.583 19.291 18.42C18.5133 16.1423 17.367 14.0076 15.898 12.101M17.7 3.70002C17.5131 3.51679 17.2618 3.41416 17 3.41416C16.7382 3.41416 16.4869 3.51679 16.3 3.70002L11.7 8.30002C11.5168 8.48695 11.4141 8.73827 11.4141 9.00002C11.4141 9.26177 11.5168 9.51309 11.7 9.70002L14.3 12.3C14.4869 12.4832 14.7382 12.5859 15 12.5859C15.2618 12.5859 15.5131 12.4832 15.7 12.3L20.3 7.70002C20.4832 7.51309 20.5859 7.26177 20.5859 7.00002C20.5859 6.73827 20.4832 6.48695 20.3 6.30002L17.7 3.70002Z" stroke="black" stroke-width="2" stroke-linecap="round" stroke-linejoin="round"/>
</svg>
