<svg width="24" height="24" viewBox="0 0 24 24" fill="none" xmlns="http://www.w3.org/2000/svg">
<path d="M2 22L3 21M3 21H6L15 12M3 21V18L12 9.00002M15 6.00002L18.4 2.60002C18.7978 2.20219 19.3374 1.9787 19.9 1.9787C20.4626 1.9787 21.0022 2.20219 21.4 2.60002C21.7978 2.99784 22.0213 3.53741 22.0213 4.10002C22.0213 4.66263 21.7978 5.20219 21.4 5.60002L18 9.00002L18.4 9.40002C18.597 9.597 18.7532 9.83085 18.8598 10.0882C18.9665 10.3456 19.0213 10.6214 19.0213 10.9C19.0213 11.1786 18.9665 11.4544 18.8598 11.7118C18.7532 11.9692 18.597 12.203 18.4 12.4C18.203 12.597 17.9692 12.7533 17.7118 12.8599C17.4544 12.9665 17.1786 13.0213 16.9 13.0213C16.6214 13.0213 16.3456 12.9665 16.0882 12.8599C15.8308 12.7533 15.597 12.597 15.4 12.4L11.6 8.60002C11.403 8.40304 11.2468 8.16918 11.1402 7.91181C11.0335 7.65444 10.9787 7.37859 10.9787 7.10002C10.9787 6.82144 11.0335 6.5456 11.1402 6.28822C11.2468 6.03085 11.403 5.797 11.6 5.60002C11.797 5.40304 12.0308 5.24678 12.2882 5.14017C12.5456 5.03357 12.8214 4.9787 13.1 4.9787C13.3786 4.9787 13.6544 5.03357 13.9118 5.14017C14.1692 5.24678 14.403 5.40304 14.6 5.60002L15 6.00002Z" stroke="black" stroke-width="2" stroke-linecap="round" stroke-linejoin="round"/>
</svg>
