<svg width="24" height="24" viewBox="0 0 24 24" fill="none" xmlns="http://www.w3.org/2000/svg">
<path d="M10 10V9C10 8.46957 10.2107 7.96086 10.5858 7.58579C10.9609 7.21071 11.4696 7 12 7C12.5304 7 13.0392 7.21071 13.4142 7.58579C13.7893 7.96086 14 8.46957 14 9V10C14 9.46957 14.2107 8.96086 14.5858 8.58579C14.9609 8.21071 15.4696 8 16 8C16.5304 8 17.0392 8.21071 17.4142 8.58579C17.7893 8.96086 18 9.46957 18 10V11C18 10.4696 18.2107 9.96086 18.5858 9.58579C18.9609 9.21071 19.4696 9 20 9C20.5304 9 21.0392 9.21071 21.4142 9.58579C21.7893 9.96086 22 10.4696 22 11V14C22 16.1217 21.1572 18.1566 19.6569 19.6569C18.1566 21.1571 16.1217 22 14 22H12C9.20001 22 7.50001 21.14 6.01001 19.66L2.41001 16.06C2.06595 15.6789 1.8816 15.1802 1.89514 14.6669C1.90867 14.1537 2.11906 13.6653 2.48273 13.303C2.84641 12.9406 3.33551 12.7319 3.84878 12.7202C4.36205 12.7085 4.86018 12.8946 5.24001 13.24L7.00001 15M10 9.5V4C10 3.46957 9.7893 2.96086 9.41422 2.58579C9.03915 2.21071 8.53044 2 8.00001 2C7.46958 2 6.96087 2.21071 6.5858 2.58579C6.21073 2.96086 6.00001 3.46957 6.00001 4V14" stroke="black" stroke-width="2" stroke-linecap="round" stroke-linejoin="round"/>
</svg>
