<svg width="24" height="24" viewBox="0 0 24 24" fill="none" xmlns="http://www.w3.org/2000/svg">
<path d="M10 4.5V4C9.99993 3.70261 9.93353 3.40898 9.80565 3.14049C9.67777 2.872 9.49162 2.63541 9.26076 2.44794C9.0299 2.26047 8.76013 2.12685 8.47111 2.0568C8.18209 1.98675 7.88108 1.98204 7.59001 2.043M13.9 8.4C13.8063 8.10041 13.6435 7.82708 13.4246 7.6021C13.2057 7.37713 12.9369 7.20684 12.64 7.105M21.7 16.2C21.9018 15.4842 22.0028 14.7437 22 14V11C22 10.4696 21.7893 9.96086 21.4142 9.58579C21.0391 9.21071 20.5304 9 20 9C19.4696 9 18.9609 9.21071 18.5858 9.58579C18.2107 9.96086 18 10.4696 18 11V10C17.9998 9.57597 17.8649 9.16297 17.6146 8.82065C17.3644 8.47833 17.0118 8.2244 16.6078 8.09553C16.2039 7.96665 15.7694 7.96951 15.3672 8.10369C14.9649 8.23786 14.6157 8.49641 14.37 8.842M7.00001 15L5.20001 13.2C4.81545 12.859 4.31439 12.6792 3.80079 12.6978C3.28718 12.7164 2.80046 12.9321 2.44157 13.2999C2.08269 13.6678 1.87921 14.1597 1.87333 14.6736C1.86745 15.1876 2.05964 15.684 2.41001 16.06L6.00001 19.7C6.77706 20.4907 7.71489 21.1053 8.75005 21.5021C9.78521 21.8989 10.8935 22.0687 12 22H14C15.0506 22 16.0909 21.7931 17.0615 21.3911C18.0322 20.9891 18.9141 20.3999 19.657 19.657M6.00001 6V14M2.00001 2L22 22" stroke="black" stroke-width="2" stroke-linecap="round" stroke-linejoin="round"/>
</svg>
