<svg width="24" height="24" viewBox="0 0 24 24" fill="none" xmlns="http://www.w3.org/2000/svg">
<path d="M18.36 6.64C19.4356 7.71615 20.2209 9.04743 20.6423 10.5094C21.0638 11.9714 21.1077 13.5164 20.77 15M6.16 6.16C5.2046 6.96243 4.42648 7.95474 3.87504 9.07393C3.3236 10.1931 3.01089 11.4147 2.95675 12.6612C2.90262 13.9077 3.10825 15.1519 3.56058 16.3146C4.01292 17.4774 4.70208 18.5335 5.58431 19.4157C6.46655 20.2979 7.52258 20.9871 8.68536 21.4394C9.84815 21.8918 11.0923 22.0974 12.3388 22.0432C13.5853 21.9891 14.8069 21.6764 15.9261 21.125C17.0453 20.5735 18.0376 19.7954 18.84 18.84M12 2V6M2 2L22 22" stroke="black" stroke-width="2" stroke-linecap="round" stroke-linejoin="round"/>
</svg>
