<svg width="24" height="24" viewBox="0 0 24 24" fill="none" xmlns="http://www.w3.org/2000/svg">
<g clip-path="url(#clip0_119_3091)">
<path d="M19.439 7.84999C19.39 8.17199 19.498 8.49799 19.728 8.72799L21.296 10.296C21.766 10.766 22.002 11.383 22.002 12C22.002 12.617 21.767 13.233 21.296 13.704L19.685 15.315C19.5767 15.4232 19.4446 15.5045 19.2993 15.5524C19.1539 15.6003 18.9994 15.6135 18.848 15.591C18.378 15.521 18.046 15.111 17.88 14.666C17.7343 14.2728 17.4922 13.9225 17.1757 13.6474C16.8593 13.3722 16.4787 13.1811 16.0691 13.0915C15.6595 13.0019 15.2339 13.0167 14.8315 13.1346C14.4291 13.2525 14.0628 13.4697 13.7663 13.7662C13.4697 14.0627 13.2525 14.429 13.1346 14.8315C13.0167 15.2339 13.0019 15.6595 13.0915 16.0691C13.1811 16.4787 13.3722 16.8593 13.6474 17.1757C13.9225 17.4922 14.2728 17.7343 14.666 17.88C15.112 18.046 15.521 18.377 15.591 18.848C15.6136 18.9994 15.6004 19.1539 15.5525 19.2993C15.5046 19.4447 15.4232 19.5768 15.315 19.685L13.705 21.295C13.4814 21.5194 13.2157 21.6973 12.9231 21.8186C12.6305 21.94 12.3168 22.0023 12 22.002C11.6835 22.0024 11.37 21.9402 11.0775 21.8191C10.7851 21.6979 10.5195 21.5201 10.296 21.296L8.728 19.728C8.61467 19.6145 8.47629 19.5291 8.32398 19.4787C8.17168 19.4283 8.00968 19.4144 7.851 19.438C7.358 19.512 7.011 19.942 6.831 20.406C6.68013 20.7932 6.43509 21.1368 6.11805 21.4055C5.80101 21.6742 5.42197 21.8597 5.01523 21.9451C4.60849 22.0305 4.18687 22.0131 3.78852 21.8946C3.39017 21.7761 3.02766 21.5601 2.73378 21.2662C2.4399 20.9723 2.22392 20.6098 2.10538 20.2115C1.98685 19.8131 1.96949 19.3915 2.05489 18.9848C2.14029 18.578 2.32574 18.199 2.59447 17.8819C2.86321 17.5649 3.20674 17.3199 3.594 17.169C4.058 16.989 4.488 16.642 4.561 16.149C4.58472 15.9904 4.57093 15.8284 4.52074 15.6761C4.47055 15.5238 4.38536 15.3854 4.272 15.272L2.704 13.704C2.47985 13.4805 2.30209 13.2149 2.18093 12.9225C2.05976 12.63 1.9976 12.3165 1.998 12C1.998 11.383 2.234 10.766 2.704 10.296L4.23 8.76999C4.47 8.52999 4.811 8.41699 5.147 8.46699C5.662 8.54399 6.024 8.99499 6.22 9.47699C6.3757 9.85874 6.62339 10.1961 6.94102 10.4589C7.25864 10.7217 7.63634 10.902 8.04048 10.9835C8.44461 11.065 8.86264 11.0453 9.25733 10.9262C9.65202 10.807 10.0111 10.5921 10.3026 10.3006C10.5942 10.0091 10.8091 9.65 10.9282 9.25531C11.0473 8.86063 11.067 8.4426 10.9855 8.03846C10.904 7.63433 10.7238 7.25663 10.4609 6.939C10.1981 6.62138 9.86075 6.37369 9.479 6.21799C8.997 6.02199 8.546 5.65999 8.469 5.14499C8.419 4.80899 8.531 4.46899 8.772 4.22799L10.297 2.70299C10.5205 2.47914 10.7859 2.30162 11.0782 2.18064C11.3704 2.05966 11.6837 1.99759 12 1.99799C12.617 1.99799 13.234 2.23399 13.704 2.70399L15.272 4.27199C15.502 4.50199 15.828 4.60999 16.149 4.56199C16.642 4.48799 16.989 4.05799 17.169 3.59399C17.3199 3.20673 17.5649 2.86319 17.882 2.59446C18.199 2.32573 18.578 2.14027 18.9848 2.05488C19.3915 1.96948 19.8131 1.98683 20.2115 2.10537C20.6098 2.22391 20.9723 2.43988 21.2662 2.73377C21.5601 3.02765 21.7761 3.39016 21.8946 3.78851C22.0132 4.18686 22.0305 4.60847 21.9451 5.01521C21.8597 5.42196 21.6743 5.80099 21.4055 6.11803C21.1368 6.43507 20.7933 6.68011 20.406 6.83099C19.942 7.01099 19.512 7.35699 19.439 7.84999Z" stroke="black" stroke-width="2" stroke-linecap="round" stroke-linejoin="round"/>
</g>
<defs>
<clipPath id="clip0_119_3091">
<rect width="24" height="24" fill="white"/>
</clipPath>
</defs>
</svg>
