<svg width="24" height="24" viewBox="0 0 24 24" fill="none" xmlns="http://www.w3.org/2000/svg">
<path d="M12 2V22M2.50001 16.88C2.38124 16.8107 2.27804 16.7176 2.19688 16.6066C2.11571 16.4955 2.05832 16.369 2.02829 16.2348C1.99825 16.1005 1.99623 15.9616 2.02233 15.8266C2.04844 15.6915 2.10211 15.5633 2.18001 15.45L11.18 2.43C11.2722 2.29797 11.3948 2.19015 11.5376 2.11569C11.6804 2.04124 11.839 2.00236 12 2.00236C12.161 2.00236 12.3196 2.04124 12.4624 2.11569C12.6052 2.19015 12.7278 2.29797 12.82 2.43L21.82 15.44C21.8996 15.5537 21.9546 15.6826 21.9816 15.8187C22.0087 15.9548 22.0071 16.095 21.977 16.2304C21.9469 16.3659 21.8889 16.4936 21.8068 16.6054C21.7247 16.7172 21.6202 16.8107 21.5 16.88L12.99 21.74C12.6884 21.9118 12.3472 22.0022 12 22.0022C11.6528 22.0022 11.3117 21.9118 11.01 21.74L2.50001 16.88Z" stroke="black" stroke-width="2" stroke-linecap="round" stroke-linejoin="round"/>
</svg>
