<svg width="24" height="24" viewBox="0 0 24 24" fill="none" xmlns="http://www.w3.org/2000/svg">
<path d="M13 16C13.5795 15.9992 14.1467 16.1663 14.6333 16.481C15.1198 16.7957 15.5048 17.2446 15.7417 17.7735C15.9787 18.3023 16.0573 18.8884 15.9683 19.461C15.8793 20.0336 15.6263 20.5681 15.24 21M18 12H18.01M18 21H10C8.93914 21 7.92172 20.5786 7.17158 19.8284C6.42143 19.0783 6 18.0609 6 17C6 15.1435 6.7375 13.363 8.05026 12.0503C9.36301 10.7375 11.1435 10 13 10H13.2L9.6 6.4C9.41615 6.21615 9.27031 5.99789 9.17081 5.75767C9.07131 5.51746 9.0201 5.26 9.0201 5C9.0201 4.4749 9.2287 3.9713 9.6 3.6C9.97131 3.2287 10.4749 3.0201 11 3.0201C11.26 3.0201 11.5175 3.07131 11.7577 3.17081C11.9979 3.27031 12.2162 3.41615 12.4 3.6L15.8 7H16M16 7C19.3 7 22 9.7 22 13V14C22 14.5304 21.7893 15.0391 21.4142 15.4142C21.0391 15.7893 20.5304 16 20 16H19C18.2044 16 17.4413 16.3161 16.8787 16.8787C16.3161 17.4413 16 18.2044 16 19M16 7L16 4C16 3.46957 16.2107 2.96086 16.5858 2.58579C16.9609 2.21071 17.4696 2 18 2C18.5304 2 19.0391 2.21071 19.4142 2.58579C19.7893 2.96086 20 3.46957 20 4V8.54M7.612 12.524C7.33081 12.0263 6.91329 11.6194 6.40859 11.351C5.9039 11.0826 5.33304 10.964 4.76322 11.0092C4.19339 11.0543 3.64832 11.2613 3.19217 11.6058C2.73602 11.9503 2.38778 12.4179 2.18844 12.9536C1.9891 13.4893 1.94696 14.0709 2.06698 14.6297C2.18701 15.1886 2.46419 15.7015 2.86591 16.1082C3.26763 16.5148 3.77717 16.7982 4.33453 16.925C4.8919 17.0519 5.47389 17.0168 6.012 16.824" stroke="black" stroke-width="2" stroke-linecap="round" stroke-linejoin="round"/>
</svg>
