<svg width="24" height="24" viewBox="0 0 24 24" fill="none" xmlns="http://www.w3.org/2000/svg">
<path d="M6.99001 3.33999C8.89745 2.23721 11.1157 1.79526 13.3001 2.08278C15.4846 2.3703 17.5129 3.3712 19.07 4.92999L13.41 10.59M4.00001 5.99999H4.01002M2.29001 9.61999C1.91511 11.147 1.90559 12.741 2.26224 14.2724C2.61889 15.8039 3.33165 17.2296 4.34265 18.4339C5.35365 19.6382 6.6344 20.5871 8.08091 21.2036C9.52743 21.8201 11.0989 22.0868 12.6679 21.982C14.2368 21.8773 15.7589 21.404 17.1106 20.6007C18.4623 19.7974 19.6055 18.6866 20.4474 17.3586C21.2893 16.0305 21.8062 14.5227 21.9561 12.9574C22.106 11.3922 21.8846 9.81365 21.31 8.34999M16.24 7.75999C15.6645 7.18115 14.977 6.72582 14.2195 6.42186C13.4619 6.1179 12.6504 5.97169 11.8344 5.99219C11.0184 6.0127 10.2152 6.19947 9.47388 6.54109C8.73258 6.88271 8.06877 7.372 7.52308 7.979C6.97738 8.58601 6.56128 9.29798 6.30023 10.0713C6.03917 10.8447 5.93866 11.6632 6.00483 12.4767C6.07101 13.2903 6.30248 14.0818 6.68509 14.8028C7.0677 15.5238 7.59339 16.1592 8.23001 16.67M12 18H12.01M17.99 11.66C18.0444 12.6114 17.8714 13.562 17.4854 14.4332C17.0993 15.3045 16.5113 16.0712 15.77 16.67M14 12C14 13.1046 13.1046 14 12 14C10.8954 14 10 13.1046 10 12C10 10.8954 10.8954 9.99999 12 9.99999C13.1046 9.99999 14 10.8954 14 12Z" stroke="black" stroke-width="2" stroke-linecap="round" stroke-linejoin="round"/>
</svg>
