<svg width="24" height="24" viewBox="0 0 24 24" fill="none" xmlns="http://www.w3.org/2000/svg">
<path d="M4.90001 16.1C1.00001 12.2 1.00001 5.80002 4.90001 1.90002M7.80001 4.70002C6.85131 5.683 6.25752 6.95429 6.11263 8.3127C5.96773 9.67111 6.28 11.0391 7.00001 12.2M12 11C13.1046 11 14 10.1046 14 9.00002C14 7.89545 13.1046 7.00002 12 7.00002C10.8954 7.00002 10 7.89545 10 9.00002C10 10.1046 10.8954 11 12 11ZM12 11L8.00001 22M12 11L16 22M16.2 4.80002C18.2 6.80002 18.46 9.91003 17 12.27M19.1 1.90002C20.027 2.82516 20.7625 3.92405 21.2643 5.13378C21.7661 6.34351 22.0244 7.64034 22.0244 8.95002C22.0244 10.2597 21.7661 11.5565 21.2643 12.7663C20.7625 13.976 20.027 15.0749 19.1 16M9.50001 18H14.5" stroke="black" stroke-width="2" stroke-linecap="round" stroke-linejoin="round"/>
</svg>
