<svg width="24" height="24" viewBox="0 0 24 24" fill="none" xmlns="http://www.w3.org/2000/svg">
<path d="M4.90001 19.1C1.00001 15.2 1.00001 8.80002 4.90001 4.90002M7.80001 16.2C5.50001 13.9 5.50001 10.1 7.80001 7.70002M16.2 7.80002C18.5 10.1 18.5 13.9 16.2 16.3M19.1 4.90002C23 8.80002 23 15.1 19.1 19M14 12C14 13.1046 13.1046 14 12 14C10.8954 14 10 13.1046 10 12C10 10.8955 10.8954 10 12 10C13.1046 10 14 10.8955 14 12Z" stroke="black" stroke-width="2" stroke-linecap="round" stroke-linejoin="round"/>
</svg>
