<svg width="24" height="24" viewBox="0 0 24 24" fill="none" xmlns="http://www.w3.org/2000/svg">
<path d="M20.34 17.52C21.708 15.453 22.2596 12.9516 21.8878 10.501C21.516 8.05035 20.2473 5.82512 18.3279 4.25688C16.4084 2.68864 13.9748 1.88917 11.4993 2.01352C9.02372 2.13786 6.68256 3.17717 4.92987 4.92986C3.17718 6.68255 2.13788 9.0237 2.01353 11.4993C1.88918 13.9748 2.68866 16.4083 4.2569 18.3278C5.82513 20.2473 8.05036 21.516 10.501 21.8878C12.9516 22.2596 15.453 21.708 17.52 20.34M13.41 13.41L17.59 17.59M21 19C21 20.1046 20.1046 21 19 21C17.8954 21 17 20.1046 17 19C17 17.8954 17.8954 17 19 17C20.1046 17 21 17.8954 21 19ZM14 12C14 13.1046 13.1046 14 12 14C10.8954 14 10 13.1046 10 12C10 10.8954 10.8954 9.99999 12 9.99999C13.1046 9.99999 14 10.8954 14 12Z" stroke="black" stroke-width="2" stroke-linecap="round" stroke-linejoin="round"/>
</svg>
