<svg width="24" height="24" viewBox="0 0 24 24" fill="none" xmlns="http://www.w3.org/2000/svg">
<path d="M12 12H12.01M7.49999 4.20001C7.19999 3.70001 6.59999 3.50001 6.19999 3.80001C3.89999 5.50001 2.29999 8.10001 1.99999 11C1.89999 11.5 2.39999 12 2.99999 12H7.99999C7.99999 10.5 8.79999 9.20001 9.99999 8.60001C8.89999 6.70001 7.99999 5.10001 7.49999 4.20001ZM21 12C21.6 12 22 11.6 22 11C21.7 8.10001 20.2 5.50001 17.9 3.90001C17.5 3.60001 16.8 3.70001 16.6 4.20001C16 5.10001 15.1 6.70001 14 8.50001C15.2 9.20001 16 10.5 16 12H21ZM7.49999 19.8C7.19999 20.3 7.39999 20.9 7.89999 21.1C10.5 22.3 13.5 22.3 16.1 21.1C16.6 20.9 16.8 20.3 16.5 19.8C16 18.9 15.1 17.3 14 15.5C12.8 16.2 11.2 16.2 9.99999 15.5C8.89999 17.3 7.99999 18.9 7.49999 19.8Z" stroke="black" stroke-width="2" stroke-linecap="round" stroke-linejoin="round"/>
</svg>
