<svg width="24" height="24" viewBox="0 0 24 24" fill="none" xmlns="http://www.w3.org/2000/svg">
<path d="M12 6.5V17.5M15 9.4C14.4685 8.77864 13.7594 8.33507 12.9681 8.12905C12.1768 7.92303 11.3414 7.96446 10.5744 8.24774C9.80742 8.53102 9.14565 9.04255 8.67824 9.71344C8.21084 10.3843 7.96026 11.1823 7.96026 12C7.96026 12.8177 8.21084 13.6157 8.67824 14.2866C9.14565 14.9574 9.80742 15.469 10.5744 15.7523C11.3414 16.0355 12.1768 16.077 12.9681 15.8709C13.7594 15.6649 14.4685 15.2214 15 14.6M4 2V22L6 21L8 22L10 21L12 22L14 21L16 22L18 21L20 22V2L18 3L16 2L14 3L12 2L10 3L8 2L6 3L4 2Z" stroke="black" stroke-width="2" stroke-linecap="round" stroke-linejoin="round"/>
</svg>
