<svg width="24" height="24" viewBox="0 0 24 24" fill="none" xmlns="http://www.w3.org/2000/svg">
<path d="M8 12H13M16 9.5C15.4685 8.87864 14.7594 8.43507 13.9681 8.22905C13.1768 8.02303 12.3414 8.06446 11.5744 8.34774C10.8074 8.63102 10.1456 9.14256 9.67824 9.81344C9.21084 10.4843 8.96026 11.2823 8.96026 12.1C8.96026 12.9177 9.21084 13.7157 9.67824 14.3866C10.1456 15.0574 10.8074 15.569 11.5744 15.8523C12.3414 16.1355 13.1768 16.177 13.9681 15.9709C14.7594 15.7649 15.4685 15.3214 16 14.7M4 2V22L6 21L8 22L10 21L12 22L14 21L16 22L18 21L20 22V2L18 3L16 2L14 3L12 2L10 3L8 2L6 3L4 2Z" stroke="black" stroke-width="2" stroke-linecap="round" stroke-linejoin="round"/>
</svg>
