<svg width="24" height="24" viewBox="0 0 24 24" fill="none" xmlns="http://www.w3.org/2000/svg">
<path d="M11.99 11.22C13.002 10.002 14 9 14 8C14 7.46957 13.7893 6.96086 13.4142 6.58579C13.0391 6.21071 12.5304 6 12 6C11.4696 6 10.9609 6.21071 10.5858 6.58579C10.2107 6.96086 10 7.46957 10 8C10 9 11 9.997 12 11.22L9.35001 14.53M12 18L14.57 14.5M12 18L14.646 21.602C14.8026 21.8119 15.0353 21.9521 15.2941 21.9923C15.5529 22.0325 15.8171 21.9695 16.03 21.817L17.924 20.457C18.0336 20.3783 18.1262 20.2782 18.1961 20.1628C18.266 20.0473 18.3118 19.9189 18.3307 19.7853C18.3497 19.6517 18.3414 19.5157 18.3064 19.3853C18.2714 19.255 18.2104 19.1331 18.127 19.027L14.57 14.5M12 18L9.32101 21.593C9.164 21.8043 8.93 21.9452 8.66977 21.9851C8.40954 22.025 8.14409 21.9606 7.93101 21.806L6.06601 20.453C5.95757 20.3743 5.86605 20.2746 5.79688 20.1599C5.72772 20.0451 5.68232 19.9176 5.66339 19.785C5.64445 19.6523 5.65236 19.5173 5.68666 19.3877C5.72095 19.2582 5.78092 19.1369 5.86301 19.031L9.35001 14.53M14.57 14.5C16.222 12.235 17.995 10.22 18 7C18 5.67392 17.3679 4.40215 16.2426 3.46447C15.1174 2.52678 13.5913 2 12 2C10.4087 2 8.88258 2.52678 7.75737 3.46447C6.63215 4.40215 6.00001 5.67392 6.00001 7C6.00001 10.221 7.72801 12.246 9.35001 14.53M6.24301 9.016C6.88653 8.08583 7.74587 7.32546 8.74746 6.79997C9.74906 6.27447 10.8631 5.99952 11.9942 5.99863C13.1252 5.99775 14.2397 6.27096 15.2421 6.79489C16.2445 7.31881 17.105 8.07784 17.75 9.007" stroke="black" stroke-width="2" stroke-linecap="round" stroke-linejoin="round"/>
</svg>
