<svg width="24" height="24" viewBox="0 0 24 24" fill="none" xmlns="http://www.w3.org/2000/svg">
<path d="M21 12C21 13.78 20.4722 15.5201 19.4832 17.0001C18.4943 18.4802 17.0887 19.6337 15.4441 20.3149C13.7996 20.9961 11.99 21.1743 10.2442 20.8271C8.49836 20.4798 6.89471 19.6226 5.63604 18.364C4.37736 17.1053 3.5202 15.5016 3.17293 13.7558C2.82566 12.01 3.00389 10.2004 3.68508 8.55585C4.36627 6.91131 5.51982 5.50571 6.99986 4.51677C8.47991 3.52784 10.22 3 12 3C14.52 3 16.93 4 18.74 5.74L21 8M21 8V3M21 8H16" stroke="black" stroke-width="2" stroke-linecap="round" stroke-linejoin="round"/>
</svg>
