<svg width="24" height="24" viewBox="0 0 24 24" fill="none" xmlns="http://www.w3.org/2000/svg">
<path d="M6.01 18H6M10.01 18H10M15 10V14M17.84 7.17001C17.4685 6.7981 17.0274 6.50307 16.5418 6.30177C16.0562 6.10047 15.5357 5.99686 15.01 5.99686C14.4843 5.99686 13.9638 6.10047 13.4782 6.30177C12.9926 6.50307 12.5515 6.7981 12.18 7.17001M20.66 4.34001C19.1599 2.84085 17.1258 1.99872 15.005 1.99872C12.8842 1.99872 10.8501 2.84085 9.35 4.34001M4 14H20C21.1046 14 22 14.8954 22 16V20C22 21.1046 21.1046 22 20 22H4C2.89543 22 2 21.1046 2 20V16C2 14.8954 2.89543 14 4 14Z" stroke="black" stroke-width="2" stroke-linecap="round" stroke-linejoin="round"/>
</svg>
