<svg width="24" height="24" viewBox="0 0 24 24" fill="none" xmlns="http://www.w3.org/2000/svg">
<path d="M7 21H17M11.38 12C10.7744 12.0057 10.189 11.7821 9.74128 11.3742C9.29357 10.9663 9.01664 10.4042 8.96603 9.80069C8.91541 9.19714 9.09487 8.59678 9.46839 8.12001C9.84191 7.64324 10.3819 7.32533 10.98 7.23003C10.8842 6.80626 10.9053 6.36444 11.0409 5.9517C11.1766 5.53896 11.4217 5.17078 11.7502 4.88644C12.0787 4.6021 12.4782 4.41225 12.9061 4.33715C13.334 4.26206 13.7743 4.30453 14.18 4.46003C14.3576 4.18039 14.5912 3.94056 14.8661 3.75563C15.141 3.5707 15.4511 3.44468 15.7771 3.3855C16.1031 3.32632 16.4377 3.33526 16.7601 3.41177C17.0824 3.48827 17.3854 3.63068 17.65 3.83003C18.1116 3.46725 18.6901 3.28624 19.2761 3.32122C19.8621 3.35621 20.415 3.60478 20.8301 4.0199C21.2452 4.43502 21.4938 4.9879 21.5288 5.57392C21.5638 6.15994 21.3828 6.73847 21.02 7.20003C21.2458 7.49996 21.3981 7.84868 21.4646 8.21816C21.5312 8.58764 21.5101 8.96758 21.4031 9.32744C21.2961 9.6873 21.1062 10.017 20.8486 10.2902C20.591 10.5633 20.273 10.7722 19.92 10.9C20.0112 11.26 20.0215 11.6357 19.95 12M13 12L17 8.00003M10.9 7.25003C10.3515 6.6653 9.63955 6.25937 8.85698 6.08515C8.0744 5.91094 7.25749 5.97651 6.51273 6.27334C5.76797 6.57016 5.1299 7.08447 4.6817 7.74921C4.23349 8.41396 3.99594 9.19831 4 10C4 10.73 4.2 11.41 4.54 12M12 21C14.3869 21 16.6761 20.0518 18.364 18.364C20.0518 16.6762 21 14.387 21 12H3C3 14.387 3.94821 16.6762 5.63604 18.364C7.32387 20.0518 9.61305 21 12 21Z" stroke="black" stroke-width="2" stroke-linecap="round" stroke-linejoin="round"/>
</svg>
