<svg width="24" height="24" viewBox="0 0 24 24" fill="none" xmlns="http://www.w3.org/2000/svg">
<path d="M2 2.00002L22 22M5 5.00002C4.73478 5.00002 4.48043 5.10538 4.29289 5.29292C4.10536 5.48045 4 5.73481 4 6.00002V13C4 18 7.5 20.5 11.67 21.94C11.8855 22.0203 12.1222 22.0238 12.34 21.95C14.69 21.13 16.82 19.98 18.24 18.24M9.309 3.65202C9.99547 3.25813 10.6422 2.79865 11.24 2.28002C11.4519 2.09902 11.7214 1.99957 12 1.99957C12.2786 1.99957 12.5481 2.09902 12.76 2.28002C14.51 3.81002 17 5.00002 19 5.00002C19.2652 5.00002 19.5196 5.10538 19.7071 5.29292C19.8946 5.48045 20 5.73481 20 6.00002V13C20.0007 13.4226 19.9739 13.8449 19.92 14.264" stroke="black" stroke-width="2" stroke-linecap="round" stroke-linejoin="round"/>
</svg>
