<svg width="24" height="24" viewBox="0 0 24 24" fill="none" xmlns="http://www.w3.org/2000/svg">
<path d="M12 1.99957C11.7214 1.99957 11.4519 2.09902 11.24 2.28002C9.5 3.80002 7 5.00002 5 5.00002C4.73478 5.00002 4.48043 5.10538 4.29289 5.29292C4.10536 5.48045 4 5.73481 4 6.00002V13C4 18 7.5 20.5 11.67 21.94C11.8855 22.0203 12.1222 22.0238 12.34 21.95C16.5 20.5 20 18 20 13V6.00002C20 5.73481 19.8946 5.48045 19.7071 5.29292C19.5196 5.10538 19.2652 5.00002 19 5.00002C17 5.00002 14.51 3.81002 12.76 2.28002C12.5481 2.09902 12.2786 1.99957 12 1.99957ZM12 1.99957V22" stroke="black" stroke-width="2" stroke-linecap="round" stroke-linejoin="round"/>
</svg>
