<svg width="24" height="24" viewBox="0 0 24 24" fill="none" xmlns="http://www.w3.org/2000/svg">
<path d="M9.1 9.00002C9.33998 8.33865 9.80477 7.78266 10.4131 7.42925C11.0215 7.07584 11.7347 6.94748 12.4281 7.06662C13.1215 7.18576 13.751 7.54482 14.2065 8.08103C14.662 8.61724 14.9145 9.29648 14.92 10C14.92 12 11.92 13 11.92 13M12 17H12.01M20 13C20 18 16.5 20.5 12.34 21.95C12.1222 22.0238 11.8855 22.0203 11.67 21.94C7.5 20.5 4 18 4 13V6.00002C4 5.73481 4.10536 5.48045 4.29289 5.29292C4.48043 5.10538 4.73478 5.00002 5 5.00002C7 5.00002 9.5 3.80002 11.24 2.28002C11.4519 2.09902 11.7214 1.99957 12 1.99957C12.2786 1.99957 12.5481 2.09902 12.76 2.28002C14.51 3.81002 17 5.00002 19 5.00002C19.2652 5.00002 19.5196 5.10538 19.7071 5.29292C19.8946 5.48045 20 5.73481 20 6.00002V13Z" stroke="black" stroke-width="2" stroke-linecap="round" stroke-linejoin="round"/>
</svg>
