<svg width="24" height="24" viewBox="0 0 24 24" fill="none" xmlns="http://www.w3.org/2000/svg">
<path d="M2.04999 2.04999H4.04999L6.70999 14.47C6.80757 14.9248 7.06066 15.3315 7.4257 15.6198C7.79074 15.9082 8.24489 16.0603 8.70999 16.05H18.49C18.9452 16.0493 19.3865 15.8933 19.741 15.6078C20.0956 15.3224 20.3421 14.9245 20.44 14.48L22.09 7.04999H5.11999M8.99999 21C8.99999 21.5523 8.55227 22 7.99999 22C7.4477 22 6.99999 21.5523 6.99999 21C6.99999 20.4477 7.4477 20 7.99999 20C8.55227 20 8.99999 20.4477 8.99999 21ZM20 21C20 21.5523 19.5523 22 19 22C18.4477 22 18 21.5523 18 21C18 20.4477 18.4477 20 19 20C19.5523 20 20 20.4477 20 21Z" stroke="black" stroke-width="2" stroke-linecap="round" stroke-linejoin="round"/>
</svg>
