<svg width="24" height="24" viewBox="0 0 24 24" fill="none" xmlns="http://www.w3.org/2000/svg">
<path d="M12 22V15L9.99999 13M14 14L12 16M17 8V8.8C18.1625 9.46723 19.0681 10.5045 19.5724 11.7464C20.0767 12.9883 20.1506 14.3633 19.7824 15.6521C19.4142 16.9409 18.625 18.0693 17.5407 18.8574C16.4564 19.6454 15.1395 20.0476 13.8 20H9.99999C8.62894 19.9069 7.32266 19.3817 6.26878 18.4998C5.2149 17.6178 4.46765 16.4246 4.13435 15.0914C3.80106 13.7582 3.89887 12.3537 4.41374 11.0796C4.92861 9.80549 5.83404 8.72734 6.99999 8C6.99999 6.67392 7.52678 5.40215 8.46446 4.46447C9.40214 3.52678 10.6739 3 12 3C13.3261 3 14.5978 3.52678 15.5355 4.46447C16.4732 5.40215 17 6.67392 17 8Z" stroke="black" stroke-width="2" stroke-linecap="round" stroke-linejoin="round"/>
</svg>
