<svg width="24" height="24" viewBox="0 0 24 24" fill="none" xmlns="http://www.w3.org/2000/svg">
<path d="M12 13V21M12 3V6M18 6C18.5304 6.00011 19.039 6.2109 19.414 6.586L21.707 8.793C21.8945 8.98053 21.9998 9.23484 21.9998 9.5C21.9998 9.76516 21.8945 10.0195 21.707 10.207L19.437 12.391C19.2146 12.6208 18.9404 12.794 18.6373 12.896C18.3342 12.9979 18.0111 13.0257 17.695 12.977L6 13C5.46961 12.9999 4.96099 12.7891 4.586 12.414L2.293 10.207C2.10553 10.0195 2.00021 9.76516 2.00021 9.5C2.00021 9.23484 2.10553 8.98053 2.293 8.793L4.586 6.586C4.96099 6.2109 5.46961 6.00011 6 6H18Z" stroke="black" stroke-width="2" stroke-linecap="round" stroke-linejoin="round"/>
</svg>
