<svg width="24" height="24" viewBox="0 0 24 24" fill="none" xmlns="http://www.w3.org/2000/svg">
<path d="M13 8.31998C13.6392 9.44112 13.9754 10.7094 13.9754 12C13.9754 13.2905 13.6392 14.5588 13 15.68M16.46 6.20998C17.4591 7.97616 17.9841 9.97081 17.9841 12C17.9841 14.0291 17.4591 16.0238 16.46 17.79M19.91 4.09998C21.2876 6.50461 22.0132 9.22737 22.0149 11.9986C22.0167 14.7699 21.2945 17.4936 19.92 19.9M3 5.99998H8C8.55228 5.99998 9 6.44769 9 6.99998V17C9 17.5523 8.55228 18 8 18H3C2.44772 18 2 17.5523 2 17V6.99998C2 6.44769 2.44772 5.99998 3 5.99998Z" stroke="black" stroke-width="2" stroke-linecap="round" stroke-linejoin="round"/>
</svg>
