<svg width="24" height="24" viewBox="0 0 24 24" fill="none" xmlns="http://www.w3.org/2000/svg">
<path d="M22 11V12C21.9899 14.0183 21.3693 15.9864 20.2197 17.6454C19.0702 19.3044 17.4455 20.5767 15.5594 21.295C13.6732 22.0134 11.6138 22.1442 9.65186 21.6703C7.68996 21.1963 5.91739 20.1398 4.56718 18.6395C3.21698 17.1393 2.35235 15.2656 2.08695 13.2648C1.82156 11.264 2.16782 9.22969 3.08023 7.42935C3.99263 5.629 5.42846 4.14689 7.19897 3.17785C8.96947 2.20881 10.9918 1.7982 13 2.00001M8 14C8 14 9.5 16 12 16C14.5 16 16 14 16 14M9 9.00001H9.01M15 9.00001H15.01M16 5.00001H22M19 2.00001V8.00001" stroke="black" stroke-width="2" stroke-linecap="round" stroke-linejoin="round"/>
</svg>
