<svg width="24" height="24" viewBox="0 0 24 24" fill="none" xmlns="http://www.w3.org/2000/svg">
<path d="M7 21H17M19.5 12L22 6M16.25 3C16.52 3.1 17.05 3.53 17 4.36C16.94 5.19 16.07 5.56 16 6.38C15.95 7.16 16.34 7.62 16.73 8M11.25 3C11.52 3.1 12.05 3.53 11.99 4.36C11.94 5.19 11.06 5.56 11.01 6.38C10.95 7.16 11.34 7.62 11.73 8M6.25 3C6.52 3.1 7.05 3.53 7 4.36C6.94 5.19 6.07 5.56 6 6.38C5.95 7.16 6.34 7.62 6.74 8M12 21C14.3869 21 16.6761 20.0518 18.364 18.364C20.0518 16.6761 21 14.3869 21 12H3C3 14.3869 3.94821 16.6761 5.63604 18.364C7.32387 20.0518 9.61305 21 12 21Z" stroke="black" stroke-width="2" stroke-linecap="round" stroke-linejoin="round"/>
</svg>
