<svg width="24" height="24" viewBox="0 0 24 24" fill="none" xmlns="http://www.w3.org/2000/svg">
<path d="M8.8 20V15.9L10.7 16.1C11.2531 16.0692 11.7766 15.8399 12.1742 15.4541C12.5717 15.0683 12.8167 14.5519 12.864 14V8.29995C12.8706 6.8593 12.3047 5.47501 11.2907 4.45163C10.2767 3.42824 8.89766 2.84958 7.457 2.84295C6.01634 2.83632 4.63206 3.40226 3.60867 4.41627C2.58529 5.43028 2.00663 6.8093 2 8.24995C2 11.05 2.656 11.304 3 12.8C3.23248 13.7034 3.24243 14.6498 3.029 15.558L2 20M19.8 17.8C21.2058 16.394 21.9958 14.4873 21.9964 12.4991C21.997 10.5108 21.208 8.60373 19.803 7.19695M17 15C17.3272 14.6728 17.5863 14.2841 17.7622 13.8563C17.9382 13.4284 18.0277 12.9699 18.0253 12.5072C18.023 12.0446 17.929 11.587 17.7487 11.1609C17.5684 10.7349 17.3054 10.3488 16.975 10.025" stroke="black" stroke-width="2" stroke-linecap="round" stroke-linejoin="round"/>
</svg>
