<svg width="24" height="24" viewBox="0 0 24 24" fill="none" xmlns="http://www.w3.org/2000/svg">
<path d="M3.6 3.6C3.96926 3.22317 4.47246 3.00751 5 3H19C19.5304 3 20.0391 3.21071 20.4142 3.58579C20.7893 3.96086 21 4.46957 21 5V19C20.9978 19.5296 20.7856 20.0366 20.41 20.41M3 8.7V19C3 19.5304 3.21071 20.0391 3.58579 20.4142C3.96086 20.7893 4.46957 21 5 21H15.3M2 2L22 22M13 13C13.7956 13 14.5587 12.6839 15.1213 12.1213C15.6839 11.5587 16 10.7956 16 10C16 9.20435 15.6839 8.44129 15.1213 7.87868C14.5587 7.31607 13.7956 7 13 7H9V9M9 17V14.7" stroke="black" stroke-width="2" stroke-linecap="round" stroke-linejoin="round"/>
</svg>
