<svg width="24" height="24" viewBox="0 0 24 24" fill="none" xmlns="http://www.w3.org/2000/svg">
<path d="M7 21C8.06087 21 9.07828 20.5786 9.82843 19.8284C10.5786 19.0783 11 18.0609 11 17V5C11 4.46957 10.7893 3.96086 10.4142 3.58579C10.0391 3.21071 9.53043 3 9 3H5C4.46957 3 3.96086 3.21071 3.58579 3.58579C3.21071 3.96086 3 4.46957 3 5V17C3 18.0609 3.42143 19.0783 4.17157 19.8284C4.92172 20.5786 5.93913 21 7 21ZM7 21H19C19.5304 21 20.0391 20.7893 20.4142 20.4142C20.7893 20.0391 21 19.5304 21 19V15C21 14.4696 20.7893 13.9609 20.4142 13.5858C20.0391 13.2107 19.5304 13 19 13H16.7M7 17H7.01M11 8L13.3 5.7C13.5233 5.47592 13.7887 5.29819 14.0809 5.17705C14.3732 5.0559 14.6865 4.99373 15.0028 4.9941C15.3192 4.99447 15.6323 5.05738 15.9243 5.17921C16.2162 5.30104 16.4812 5.47939 16.704 5.704L18.6 7.6C18.8306 7.82181 19.0145 8.08749 19.1409 8.38141C19.2674 8.67534 19.3337 8.99157 19.3362 9.31152C19.3386 9.63147 19.277 9.94868 19.155 10.2445C19.0331 10.5403 18.8532 10.8087 18.626 11.034L9.9 19.8" stroke="black" stroke-width="2" stroke-linecap="round" stroke-linejoin="round"/>
</svg>
