<svg width="24" height="24" viewBox="0 0 24 24" fill="none" xmlns="http://www.w3.org/2000/svg">
<path d="M10 2H14M4.6 11C3.99419 12.4562 3.83236 14.059 4.13483 15.607C4.4373 17.1549 5.19058 18.5789 6.3 19.7C7.42107 20.8094 8.84507 21.5627 10.393 21.8652C11.941 22.1676 13.5438 22.0058 15 21.4M7.4 7.4C8.95709 6.31966 10.8472 5.82718 12.7335 6.01032C14.6198 6.19346 16.3798 7.04031 17.7 8.4C19.0189 9.72668 19.8312 11.4736 19.9957 13.3371C20.1601 15.2007 19.6663 17.0629 18.6 18.6M2 2L22 22M12 12V10" stroke="black" stroke-width="2" stroke-linecap="round" stroke-linejoin="round"/>
</svg>
