<svg width="24" height="24" viewBox="0 0 24 24" fill="none" xmlns="http://www.w3.org/2000/svg">
<path d="M8 3.1V7C8 8.06087 8.42143 9.07828 9.17157 9.82843C9.92172 10.5786 10.9391 11 12 11C13.0609 11 14.0783 10.5786 14.8284 9.82843C15.5786 9.07828 16 8.06087 16 7V3.1M9 15L8 14M15 15L16 14M8 19L6 22M16 19L18 22M9 19C6.2 19 4 16.8 4 14V10C4 7.87827 4.84285 5.84344 6.34315 4.34315C7.84344 2.84285 9.87827 2 12 2C14.1217 2 16.1566 2.84285 17.6569 4.34315C19.1571 5.84344 20 7.87827 20 10V14C20 16.8 17.8 19 15 19H9Z" stroke="black" stroke-width="2" stroke-linecap="round" stroke-linejoin="round"/>
</svg>
