<svg width="24" height="24" viewBox="0 0 24 24" fill="none" xmlns="http://www.w3.org/2000/svg">
<path d="M12 22V19M17 14L20 17.3C20.137 17.4398 20.2301 17.6167 20.2675 17.8088C20.3049 18.001 20.2852 18.1998 20.2106 18.3808C20.1361 18.5618 20.0101 18.717 19.8482 18.8271C19.6863 18.9371 19.4957 18.9973 19.3 19H4.7C4.50428 18.9973 4.31366 18.9371 4.15179 18.8271C3.98992 18.717 3.8639 18.5618 3.78937 18.3808C3.71484 18.1998 3.69507 18.001 3.73251 17.8088C3.76996 17.6167 3.86296 17.4398 4 17.3L7 14H6.7C6.50428 13.9973 6.31366 13.9371 6.15179 13.8271C5.98992 13.717 5.8639 13.5619 5.78937 13.3808C5.71484 13.1998 5.69507 13.001 5.73251 12.8088C5.76996 12.6167 5.86296 12.4398 6 12.3L9 9H8.8C8.59575 9.01843 8.39077 8.97361 8.21285 8.87162C8.03493 8.76963 7.89267 8.6154 7.80534 8.42984C7.71802 8.24428 7.68986 8.03636 7.72468 7.83425C7.7595 7.63215 7.85562 7.44564 8 7.3L12 3L16 7.3C16.1444 7.44564 16.2405 7.63215 16.2753 7.83425C16.3101 8.03636 16.282 8.24428 16.1947 8.42984C16.1073 8.6154 15.9651 8.76963 15.7872 8.87162C15.6092 8.97361 15.4043 9.01843 15.2 9H15L18 12.3C18.137 12.4398 18.2301 12.6167 18.2675 12.8088C18.3049 13.001 18.2852 13.1998 18.2106 13.3808C18.1361 13.5619 18.0101 13.717 17.8482 13.8271C17.6863 13.9371 17.4957 13.9973 17.3 14H17Z" stroke="black" stroke-width="2" stroke-linecap="round" stroke-linejoin="round"/>
</svg>
