<svg width="24" height="24" viewBox="0 0 24 24" fill="none" xmlns="http://www.w3.org/2000/svg">
<path d="M7 16V22M13 19V22M12 19H20.3C20.4957 18.9973 20.6863 18.9371 20.8482 18.8271C21.0101 18.717 21.1361 18.5618 21.2106 18.3808C21.2852 18.1998 21.3049 18.001 21.2675 17.8088C21.2301 17.6167 21.137 17.4398 21 17.3L18 14H18.3C18.4957 13.9973 18.6863 13.9371 18.8482 13.8271C19.0101 13.717 19.1361 13.5619 19.2106 13.3808C19.2852 13.1998 19.3049 13.001 19.2675 12.8088C19.2301 12.6167 19.137 12.4398 19 12.3L16 9H16.2C16.4043 9.01843 16.6092 8.97361 16.7872 8.87162C16.9651 8.76963 17.1073 8.6154 17.1947 8.42984C17.282 8.24428 17.3101 8.03636 17.2753 7.83425C17.2405 7.63215 17.1444 7.44564 17 7.3L13 3L11.6 4.5M10 10V10.2C10.6558 10.4522 11.2023 10.9266 11.5442 11.5405C11.886 12.1544 12.0016 12.8687 11.8707 13.5591C11.7397 14.2494 11.3706 14.8719 10.8278 15.318C10.2849 15.7641 9.60263 16.0054 8.9 16H5C4.30577 15.9827 3.63903 15.7251 3.11351 15.2712C2.58799 14.8172 2.23623 14.195 2.11824 13.5106C2.00025 12.8263 2.12333 12.1222 2.46649 11.5185C2.80965 10.9147 3.35164 10.4488 4 10.2V10C4 9.20435 4.31607 8.44129 4.87868 7.87868C5.44129 7.31607 6.20435 7 7 7C7.79565 7 8.55872 7.31607 9.12132 7.87868C9.68393 8.44129 10 9.20435 10 10Z" stroke="black" stroke-width="2" stroke-linecap="round" stroke-linejoin="round"/>
</svg>
