<svg width="24" height="24" viewBox="0 0 24 24" fill="none" xmlns="http://www.w3.org/2000/svg">
<path d="M12 19V22M7.99999 19C7.14199 19.0019 6.3061 18.7279 5.61575 18.2184C4.9254 17.7089 4.41718 16.9909 4.16611 16.1705C3.91504 15.35 3.93444 14.4706 4.22145 13.662C4.50845 12.8534 5.04784 12.1586 5.75999 11.68C5.32092 11.1314 5.05715 10.4633 5.003 9.76273C4.94886 9.06214 5.10684 8.36148 5.4564 7.75191C5.80595 7.14235 6.33089 6.65212 6.9629 6.34501C7.59492 6.0379 8.30473 5.92813 8.99999 6.03V6C8.99999 5.20435 9.31606 4.44129 9.87867 3.87868C10.4413 3.31607 11.2043 3 12 3C12.7956 3 13.5587 3.31607 14.1213 3.87868C14.6839 4.44129 15 5.20435 15 6V6.04C15.6952 5.93813 16.4051 6.0479 17.0371 6.35501C17.6691 6.66212 18.194 7.15235 18.5436 7.76191C18.8931 8.37148 19.0511 9.07214 18.997 9.77273C18.9428 10.4733 18.6791 11.1414 18.24 11.69C18.9477 12.1702 19.4828 12.8645 19.767 13.6712C20.0511 14.4778 20.0692 15.3543 19.8186 16.1719C19.568 16.9896 19.062 17.7055 18.3748 18.2144C17.6875 18.7234 16.8552 18.9987 16 19H7.99999Z" stroke="black" stroke-width="2" stroke-linecap="round" stroke-linejoin="round"/>
</svg>
