<svg width="24" height="24" viewBox="0 0 24 24" fill="none" xmlns="http://www.w3.org/2000/svg">
<path d="M12 2V3M15.5 21C15.3083 21.3884 14.9864 21.6972 14.5904 21.8726C14.1943 22.048 13.7493 22.0789 13.3329 21.9599C12.9164 21.8409 12.5549 21.5796 12.3113 21.2214C12.0678 20.8633 11.9576 20.431 12 20V12H2C2.25786 9.45002 3.48497 7.09639 5.428 5.425M17.5 12H22C21.8538 10.5161 21.3776 9.08362 20.6063 7.80751C19.835 6.53141 18.788 5.44394 17.5421 4.62474C16.2962 3.80554 14.8828 3.27533 13.4055 3.07293C11.9282 2.87054 10.4243 3.00108 9.004 3.455M2 2L22 22" stroke="black" stroke-width="2" stroke-linecap="round" stroke-linejoin="round"/>
</svg>
