<svg width="24" height="24" viewBox="0 0 24 24" fill="none" xmlns="http://www.w3.org/2000/svg">
<path d="M18.84 12.25L20.56 10.54H20.54C21.4606 9.58604 21.9651 8.30573 21.9426 6.98018C21.9201 5.65462 21.3725 4.39217 20.42 3.47C19.4869 2.57019 18.2412 2.06739 16.945 2.06739C15.6488 2.06739 14.4031 2.57019 13.47 3.47L11.75 5.18M5.17 11.75L3.46 13.46C2.53937 14.414 2.03493 15.6943 2.05742 17.0198C2.07992 18.3454 2.62753 19.6078 3.58 20.53C4.51305 21.4298 5.75876 21.9326 7.055 21.9326C8.35124 21.9326 9.59695 21.4298 10.53 20.53L12.24 18.82M8 2V5M2 8H5M16 19V22M19 16H22" stroke="black" stroke-width="2" stroke-linecap="round" stroke-linejoin="round"/>
</svg>
