<svg width="24" height="24" viewBox="0 0 24 24" fill="none" xmlns="http://www.w3.org/2000/svg">
<path d="M19 5L22 2M2 22L5 19M7.5 13.5L10 11M10.5 16.5L13 14M6.3 20.3C6.52297 20.5237 6.78791 20.7013 7.07963 20.8224C7.37136 20.9435 7.68413 21.0059 8 21.0059C8.31587 21.0059 8.62864 20.9435 8.92036 20.8224C9.21209 20.7013 9.47703 20.5237 9.7 20.3L12 18L6 12L3.7 14.3C3.47626 14.523 3.29873 14.7879 3.17759 15.0796C3.05646 15.3714 2.99411 15.6841 2.99411 16C2.99411 16.3159 3.05646 16.6286 3.17759 16.9204C3.29873 17.2121 3.47626 17.477 3.7 17.7L6.3 20.3ZM12 6L18 12L20.3 9.7C20.5237 9.47703 20.7013 9.21209 20.8224 8.92036C20.9435 8.62864 21.0059 8.31587 21.0059 8C21.0059 7.68413 20.9435 7.37136 20.8224 7.07963C20.7013 6.78791 20.5237 6.52297 20.3 6.3L17.7 3.7C17.477 3.47626 17.2121 3.29873 16.9204 3.17759C16.6286 3.05646 16.3159 2.99411 16 2.99411C15.6841 2.99411 15.3714 3.05646 15.0796 3.17759C14.7879 3.29873 14.523 3.47626 14.3 3.7L12 6Z" stroke="black" stroke-width="2" stroke-linecap="round" stroke-linejoin="round"/>
</svg>
