<svg width="24" height="24" viewBox="0 0 24 24" fill="none" xmlns="http://www.w3.org/2000/svg">
<path d="M1.99999 2C5.0186 4.40804 7.47673 7.44442 9.20361 10.8982C10.9305 14.352 11.8847 18.1403 12 22C12.9 15.18 13.5 12.5 16 8M16 8C20 8 22 6 22 2C18 2 16 4 16 8ZM17.41 3.6C15.3348 2.26507 12.8394 1.74449 10.4035 2.13837C7.96772 2.53226 5.76352 3.81279 4.21483 5.73372C2.66615 7.65465 1.88234 10.0803 2.01413 12.5443C2.14593 15.0082 3.18403 17.3364 4.92879 19.0812C6.67355 20.826 9.00178 21.8641 11.4657 21.9959C13.9297 22.1277 16.3553 21.3438 18.2763 19.7952C20.1972 18.2465 21.4777 16.0423 21.8716 13.6065C22.2655 11.1706 21.7449 8.67517 20.41 6.6" stroke="black" stroke-width="2" stroke-linecap="round" stroke-linejoin="round"/>
</svg>
