<svg width="24" height="24" viewBox="0 0 24 24" fill="none" xmlns="http://www.w3.org/2000/svg">
<path d="M14 7L17 10M5 6V10M19 14V18M10 2V4M7 8H3M21 16H17M11 3H9M21.64 3.64L20.36 2.36C20.2475 2.24632 20.1135 2.15607 19.9659 2.09448C19.8183 2.03289 19.6599 2.00118 19.5 2.00118C19.3401 2.00118 19.1817 2.03289 19.0341 2.09448C18.8865 2.15607 18.7525 2.24632 18.64 2.36L2.36 18.64C2.24632 18.7525 2.15607 18.8865 2.09448 19.0341C2.03289 19.1817 2.00117 19.3401 2.00117 19.5C2.00117 19.6599 2.03289 19.8183 2.09448 19.9659C2.15607 20.1135 2.24632 20.2475 2.36 20.36L3.64 21.64C3.75182 21.7549 3.88553 21.8462 4.03324 21.9086C4.18095 21.971 4.33966 22.0031 4.5 22.0031C4.66033 22.0031 4.81904 21.971 4.96675 21.9086C5.11446 21.8462 5.24818 21.7549 5.36 21.64L21.64 5.36C21.7549 5.24818 21.8462 5.11447 21.9086 4.96676C21.971 4.81905 22.0031 4.66034 22.0031 4.5C22.0031 4.33966 21.971 4.18095 21.9086 4.03324C21.8462 3.88553 21.7549 3.75182 21.64 3.64Z" stroke="black" stroke-width="2" stroke-linecap="round" stroke-linejoin="round"/>
</svg>
