<svg width="24" height="24" viewBox="0 0 24 24" fill="none" xmlns="http://www.w3.org/2000/svg">
<path d="M12 10V12L13 13M16.13 7.66L15.32 3.61C15.2286 3.14961 14.9781 2.73604 14.6125 2.4417C14.2468 2.14737 13.7893 1.99101 13.32 2H10.64C10.1707 1.99101 9.71318 2.14737 9.34755 2.4417C8.98191 2.73604 8.73144 3.14961 8.64 3.61L7.86 7.66M7.88 16.36L8.68 20.36C8.77144 20.8204 9.02191 21.234 9.38755 21.5283C9.75318 21.8226 10.2107 21.979 10.68 21.97H13.4C13.8693 21.979 14.3268 21.8226 14.6925 21.5283C15.0581 21.234 15.3086 20.8204 15.4 20.36L16.21 16.31M18 12C18 15.3137 15.3137 18 12 18C8.68629 18 6 15.3137 6 12C6 8.68629 8.68629 6 12 6C15.3137 6 18 8.68629 18 12Z" stroke="black" stroke-width="2" stroke-linecap="round" stroke-linejoin="round"/>
</svg>
