<svg width="24" height="24" viewBox="0 0 24 24" fill="none" xmlns="http://www.w3.org/2000/svg">
<path d="M17 17H12C10.91 16.98 10.06 17.92 9.5 18.9C9.24392 19.355 8.90073 19.7552 8.49001 20.0776C8.07929 20.4 7.6091 20.6383 7.10627 20.779C6.60344 20.9197 6.07782 20.9599 5.55943 20.8975C5.04104 20.835 4.54003 20.6711 4.085 20.415C3.62997 20.1589 3.22983 19.8157 2.90744 19.405C2.58504 18.9943 2.3467 18.5241 2.20602 18.0213C2.06534 17.5184 2.02507 16.9928 2.08752 16.4744C2.14998 15.956 2.31392 15.455 2.57 15M9 3.4C9.42001 2.91305 9.95123 2.53455 10.5486 2.29657C11.146 2.05858 11.792 1.96814 12.4318 2.0329C13.0716 2.09767 13.6863 2.31573 14.2239 2.6686C14.7615 3.02148 15.2061 3.49876 15.52 4.06M6 17L9.1 11.2C9.2539 10.8818 9.33855 10.5345 9.34838 10.1811C9.3582 9.82774 9.29298 9.47631 9.157 9.15M20.3 20.3C19.6233 20.7637 18.8203 21.008 18 21M18.6 13C19.4529 13.1308 20.2407 13.534 20.8457 14.1492C21.4507 14.7645 21.8406 15.559 21.957 16.414M12 6L12.6 7M2 2L22 22" stroke="black" stroke-width="2" stroke-linecap="round" stroke-linejoin="round"/>
</svg>
