<svg width="24" height="24" viewBox="0 0 24 24" fill="none" xmlns="http://www.w3.org/2000/svg">
<path d="M18 16.9801H12.01C10.91 16.9801 10.06 17.9201 9.53 18.8801C9.11045 19.6673 8.43979 20.2917 7.62462 20.654C6.80945 21.0163 5.89656 21.0958 5.03107 20.8797C4.16558 20.6636 3.39715 20.1644 2.84795 19.4614C2.29874 18.7585 2.00028 17.8921 2 17.0001C2.01 16.3001 2.2 15.6001 2.57 15.0001M6 17.0001L9.13 11.2201C9.66 10.2501 9.23 9.04006 8.63 8.12006C8.34681 7.66716 8.15721 7.16213 8.07236 6.63477C7.98751 6.1074 8.00915 5.56839 8.13599 5.04952C8.26283 4.53066 8.49231 4.04245 8.81088 3.61371C9.12946 3.18496 9.53068 2.82437 9.99087 2.5532C10.4511 2.28202 10.9609 2.10577 11.4903 2.03483C12.0197 1.96388 12.558 1.99969 13.0733 2.14014C13.5887 2.28059 14.0707 2.52283 14.4909 2.85258C14.9111 3.18232 15.261 3.59289 15.52 4.06006M12 6.00006L15.13 11.7301C15.66 12.7001 16.9 13.0001 18 13.0001C19.0609 13.0001 20.0783 13.4215 20.8284 14.1716C21.5786 14.9218 22 15.9392 22 17.0001C22 18.0609 21.5786 19.0783 20.8284 19.8285C20.0783 20.5786 19.0609 21.0001 18 21.0001" stroke="black" stroke-width="2" stroke-linecap="round" stroke-linejoin="round"/>
</svg>
