<svg width="24" height="24" viewBox="0 0 24 24" fill="none" xmlns="http://www.w3.org/2000/svg">
<path d="M12 8C13.6569 8 15 6.65685 15 5C15 3.34315 13.6569 2 12 2C10.3431 2 9 3.34315 9 5C9 6.65685 10.3431 8 12 8Z" stroke="black" stroke-width="2" stroke-linecap="round" stroke-linejoin="round"/>
<path d="M6.5 8C6.06726 8.00449 5.64764 8.14923 5.30415 8.41248C4.96066 8.67573 4.71183 9.0433 4.595 9.46L2.1 18.5C2.0244 18.7926 2.01609 19.0985 2.07568 19.3947C2.13528 19.691 2.26123 19.9699 2.44408 20.2105C2.62693 20.4511 2.86193 20.6471 3.13141 20.7839C3.40089 20.9206 3.69786 20.9945 4 21H20C20.3087 20.9999 20.6131 20.9283 20.8895 20.7909C21.1659 20.6535 21.4068 20.454 21.5932 20.208C21.7797 19.962 21.9066 19.6762 21.9642 19.3729C22.0218 19.0697 22.0083 18.7572 21.925 18.46L19.4 9.5C19.2899 9.07341 19.042 8.69512 18.6948 8.42388C18.3476 8.15265 17.9206 8.00364 17.48 8H6.5Z" stroke="black" stroke-width="2" stroke-linecap="round" stroke-linejoin="round"/>
</svg>
