<svg width="24" height="24" viewBox="0 0 24 24" fill="none" xmlns="http://www.w3.org/2000/svg">
<path d="M2 22L16 8M16 8H18C19.0609 8 20.0783 7.57857 20.8284 6.82843C21.5786 6.07828 22 5.06087 22 4V2H20C18.9391 2 17.9217 2.42143 17.1716 3.17157C16.4214 3.92172 16 4.93913 16 6V8ZM6.53 17.47C7.1834 16.814 7.55026 15.9259 7.55026 15C7.55026 14.0741 7.1834 13.186 6.53 12.53L5 11L3.47 12.53C2.8166 13.186 2.44974 14.0741 2.44974 15C2.44974 15.9259 2.8166 16.814 3.47 17.47L5 19M6.53 17.47L5 19M6.53 17.47C7.18598 16.8166 8.07413 16.4497 9 16.4497C9.92587 16.4497 10.814 16.8166 11.47 17.47L13 19L11.47 20.53C10.814 21.1834 9.92587 21.5503 9 21.5503C8.07413 21.5503 7.18598 21.1834 6.53 20.53L5 19M10.53 13.47C11.1834 12.814 11.5503 11.9259 11.5503 11C11.5503 10.0741 11.1834 9.18598 10.53 8.53L9 7L7.47 8.53C6.8166 9.18598 6.44974 10.0741 6.44974 11C6.44974 11.9259 6.8166 12.814 7.47 13.47L9 15M10.53 13.47L9 15M10.53 13.47C11.186 12.8166 12.0741 12.4497 13 12.4497C13.9259 12.4497 14.814 12.8166 15.47 13.47L17 15L15.47 16.53C14.814 17.1834 13.9259 17.5503 13 17.5503C12.0741 17.5503 11.186 17.1834 10.53 16.53L9 15M14.53 9.47C15.1834 8.81402 15.5503 7.92587 15.5503 7C15.5503 6.07413 15.1834 5.18598 14.53 4.53L13 3L11.47 4.53C10.8166 5.18598 10.4497 6.07413 10.4497 7C10.4497 7.92587 10.8166 8.81402 11.47 9.47L13 11M14.53 9.47L13 11M14.53 9.47C15.186 8.8166 16.0741 8.44974 17 8.44974C17.9259 8.44974 18.814 8.8166 19.47 9.47L21 11L19.47 12.53C18.814 13.1834 17.9259 13.5503 17 13.5503C16.0741 13.5503 15.186 13.1834 14.53 12.53L13 11" stroke="black" stroke-width="2" stroke-linecap="round" stroke-linejoin="round"/>
</svg>
