<svg width="24" height="24" viewBox="0 0 24 24" fill="none" xmlns="http://www.w3.org/2000/svg">
<path d="M12 20H12.01M8.5 16.429C9.43464 15.5129 10.6912 14.9997 12 14.9997C13.3088 14.9997 14.5654 15.5129 15.5 16.429M5 12.859C6.41803 11.4689 8.21781 10.5325 10.17 10.169M19 12.859C18.3979 12.2688 17.7235 11.757 16.993 11.336M2 8.82C3.2366 7.71408 4.64809 6.82095 6.177 6.177M22 8.82C20.4747 7.45581 18.6864 6.41814 16.7452 5.77083C14.8039 5.12352 12.7508 4.88025 10.712 5.056M2 2L22 22" stroke="black" stroke-width="2" stroke-linecap="round" stroke-linejoin="round"/>
</svg>
