<svg width="24" height="24" viewBox="0 0 24 24" fill="none" xmlns="http://www.w3.org/2000/svg">
<path d="M17.7 7.70005C17.9927 7.41821 18.3497 7.21196 18.7401 7.09917C19.1304 6.98637 19.5424 6.97043 19.9403 7.05272C20.3383 7.13501 20.7101 7.31306 21.0237 7.57144C21.3373 7.82982 21.5832 8.16075 21.7401 8.53557C21.897 8.9104 21.9602 9.31781 21.9242 9.72255C21.8882 10.1273 21.754 10.5171 21.5334 10.8584C21.3128 11.1996 21.0123 11.4819 20.658 11.6808C20.3037 11.8798 19.9062 11.9893 19.5 12H2M9.6 4.60005C9.83168 4.36375 10.1184 4.18864 10.4344 4.0904C10.7504 3.99216 11.0858 3.97387 11.4106 4.03717C11.7355 4.10047 12.0395 4.24338 12.2955 4.45309C12.5515 4.66279 12.7514 4.93275 12.8774 5.23874C13.0034 5.54474 13.0515 5.87723 13.0174 6.20639C12.9833 6.53555 12.8681 6.85111 12.682 7.12477C12.4959 7.39843 12.2449 7.62164 11.9513 7.7744C11.6578 7.92716 11.3309 8.0047 11 8.00005H2M12.6 19.4C12.8317 19.6363 13.1184 19.8115 13.4344 19.9097C13.7504 20.0079 14.0858 20.0262 14.4106 19.9629C14.7355 19.8996 15.0395 19.7567 15.2955 19.547C15.5515 19.3373 15.7514 19.0673 15.8774 18.7613C16.0034 18.4554 16.0515 18.1229 16.0174 17.7937C15.9833 17.4645 15.8681 17.149 15.682 16.8753C15.4959 16.6017 15.2449 16.3785 14.9513 16.2257C14.6578 16.0729 14.3309 15.9954 14 16H2" stroke="black" stroke-width="2" stroke-linecap="round" stroke-linejoin="round"/>
</svg>
