<svg width="24" height="24" viewBox="0 0 24 24" fill="none" xmlns="http://www.w3.org/2000/svg">
<path d="M19 12L17.5 15M19.63 18.81L22 20M6.46999 8.23005C6.76062 8.06588 7.09357 7.992 7.42637 8.01785C7.75916 8.0437 8.07671 8.16809 8.3385 8.37517C8.6003 8.58225 8.79448 8.86262 8.89626 9.18051C8.99805 9.49841 9.00283 9.83942 8.90999 10.16L8.26999 12.24C7.85399 13.5702 7.85927 14.9964 8.28511 16.3234C8.71095 17.6504 9.53653 18.8134 10.6488 19.6531C11.7611 20.4928 13.1058 20.9682 14.4987 21.0142C15.8916 21.0602 17.2647 20.6745 18.43 19.91L18.85 19.64C19.1264 19.4608 19.3648 19.2288 19.5516 18.9575C19.7384 18.6861 19.8699 18.3805 19.9387 18.0583C20.0074 17.7361 20.0119 17.4035 19.9521 17.0795C19.8923 16.7555 19.7692 16.4465 19.59 16.17C19.4107 15.8936 19.1788 15.6552 18.9074 15.4684C18.636 15.2816 18.3305 15.1501 18.0083 15.0814C17.686 15.0127 17.3534 15.0081 17.0294 15.0679C16.7055 15.1277 16.3964 15.2508 16.12 15.43L15.7 15.7C15.3972 15.8925 15.0427 15.9877 14.6842 15.9731C14.3257 15.9584 13.9803 15.8345 13.6942 15.618C13.4081 15.4015 13.1949 15.1028 13.0834 14.7618C12.9718 14.4208 12.9671 14.0538 13.07 13.71L13.71 11.63C14.1195 10.3411 14.127 8.95809 13.7313 7.66484C13.3357 6.3716 12.5557 5.22945 11.4951 4.39031C10.4345 3.55117 9.14355 3.05481 7.79397 2.96723C6.4444 2.87965 5.10014 3.20502 3.93999 3.90005L3.23999 4.30005C2.95503 4.46748 2.70583 4.68941 2.50662 4.95315C2.30742 5.21689 2.16212 5.51729 2.07901 5.83719C1.91117 6.48325 2.00684 7.16953 2.34499 7.74505C2.68314 8.32057 3.23607 8.73819 3.88213 8.90603C4.5282 9.07388 5.21447 8.9782 5.78999 8.64005L6.46999 8.23005Z" stroke="black" stroke-width="2" stroke-linecap="round" stroke-linejoin="round"/>
</svg>
